<svg xmlns="http://www.w3.org/2000/svg" xmlns:xlink="http://www.w3.org/1999/xlink" width="1080" viewBox="0 0 810 809.999993" height="1080" preserveAspectRatio="xMidYMid meet"><defs><clipPath id="fc64a116bf"><path d="M 0 94.992188 L 810 94.992188 L 810 715.242188 L 0 715.242188 Z M 0 94.992188 " clip-rule="nonzero"></path></clipPath><clipPath id="c8b493d7b4"><path d="M 0 94.992188 L 753 94.992188 L 753 715 L 0 715 Z M 0 94.992188 " clip-rule="nonzero"></path></clipPath><clipPath id="4ca968b81b"><path d="M 62 139 L 803 139 L 803 715.242188 L 62 715.242188 Z M 62 139 " clip-rule="nonzero"></path></clipPath></defs><g clip-path="url(#fc64a116bf)"><path fill="#ffffff" d="M 809.960938 373.167969 L 809.960938 706.476562 C 809.960938 711.144531 806.167969 714.941406 801.503906 714.941406 L 625.480469 714.941406 C 625.316406 715.019531 625.140625 715.074219 624.949219 715.074219 L 487.789062 715.074219 C 487.410156 715.179688 487.019531 715.25 486.605469 715.25 L 384.507812 715.25 C 384.011719 715.25 383.535156 715.128906 383.085938 714.941406 L 350.390625 714.941406 C 345.726562 714.941406 341.929688 711.144531 341.929688 706.476562 L 341.929688 674.398438 L 297.84375 558.425781 C 297.125 556.535156 297.382812 554.40625 298.53125 552.742188 C 299.679688 551.074219 301.578125 550.078125 303.601562 550.078125 L 341.929688 550.078125 L 341.929688 431.714844 C 295.886719 416.894531 262.46875 373.652344 262.46875 322.726562 C 262.46875 259.605469 313.804688 208.25 376.898438 208.25 C 439.996094 208.25 491.332031 259.605469 491.332031 322.726562 C 491.332031 337.542969 488.472656 351.695312 483.328125 364.703125 L 711.402344 364.703125 L 704.269531 344.097656 C 704.117188 343.660156 704.230469 343.171875 704.558594 342.84375 C 704.890625 342.515625 705.375 342.40625 705.816406 342.554688 L 756.117188 359.976562 C 756.605469 360.148438 756.933594 360.609375 756.929688 361.128906 C 756.929688 361.648438 756.597656 362.109375 756.105469 362.273438 L 748.863281 364.703125 L 801.503906 364.703125 C 806.167969 364.703125 809.960938 368.5 809.960938 373.167969 Z M 638.503906 323.941406 C 701.601562 323.941406 752.933594 272.585938 752.933594 209.464844 C 752.933594 146.34375 701.601562 94.992188 638.503906 94.992188 C 575.40625 94.992188 524.074219 146.34375 524.074219 209.464844 C 524.074219 272.585938 575.40625 323.941406 638.503906 323.941406 Z M 228.90625 438.03125 C 228.90625 374.910156 177.574219 323.554688 114.476562 323.554688 C 51.378906 323.554688 0.0429688 374.910156 0.0429688 438.03125 C 0.0429688 501.152344 51.378906 552.503906 114.476562 552.503906 C 177.574219 552.503906 228.90625 501.152344 228.90625 438.03125 Z M 287.839844 616.652344 C 287.714844 616.328125 287.457031 616.070312 287.128906 615.953125 C 286.800781 615.828125 286.441406 615.859375 286.132812 616.023438 C 285.839844 616.179688 256.816406 631.648438 237.867188 622.8125 C 216.011719 612.613281 208.976562 592.304688 207.746094 588.175781 L 225.375 574.429688 C 225.773438 574.121094 225.9375 573.601562 225.789062 573.121094 C 225.648438 572.640625 225.222656 572.300781 224.722656 572.257812 L 169.980469 568.058594 C 169.332031 567.960938 168.734375 568.5 168.679688 569.160156 L 164.195312 620.015625 C 164.152344 620.503906 164.402344 620.96875 164.835938 621.195312 C 165.269531 621.421875 165.792969 621.371094 166.167969 621.066406 L 179.445312 610.289062 C 182.515625 617.78125 197.191406 649.613281 227.816406 659.042969 C 234.410156 661.074219 241.152344 661.886719 247.738281 661.886719 C 274.535156 661.886719 298.660156 648.371094 298.957031 648.199219 C 299.480469 647.898438 299.707031 647.265625 299.488281 646.707031 Z M 287.839844 616.652344 " fill-opacity="1" fill-rule="nonzero"></path></g><path fill="#d8d0c5" d="M 761.6875 450.890625 C 763.375 451.5625 765.058594 452.324219 766.71875 453.167969 C 761.253906 464.59375 751.140625 468.507812 747.148438 469.640625 C 739.445312 471.8125 731.847656 470.621094 729.847656 466.917969 C 727.835938 463.1875 728.683594 458.511719 732.058594 454.71875 C 735.195312 451.195312 740.894531 448.167969 748.527344 448.167969 C 752.433594 448.164062 756.851562 448.957031 761.6875 450.890625 Z M 521.9375 703.519531 C 521.757812 703.246094 521.601562 702.9375 521.453125 702.625 C 520.550781 703.679688 519.417969 704.40625 518.144531 704.566406 C 517.960938 704.589844 517.777344 704.601562 517.59375 704.601562 C 515.976562 704.601562 514.484375 703.703125 513.4375 702.078125 C 511.710938 699.402344 511.15625 694.867188 511.691406 687.804688 C 511.710938 687.539062 511.742188 687.292969 511.765625 687.03125 C 511.246094 687.851562 510.703125 688.847656 510.191406 690.101562 C 509.789062 691.09375 509.503906 692.097656 509.226562 693.074219 C 508.675781 695.011719 508.15625 696.835938 506.824219 698.414062 C 505.898438 699.507812 503.800781 700.429688 501.765625 700.003906 C 500.089844 699.65625 498.875 698.464844 498.335938 696.660156 C 497.195312 692.8125 497.226562 686.582031 500.738281 680.632812 C 500.84375 680.460938 500.96875 680.316406 501.074219 680.144531 L 444.085938 680.144531 L 435.550781 704.847656 C 435.445312 705.144531 435.496094 705.464844 435.675781 705.722656 C 435.710938 705.773438 435.769531 705.796875 435.8125 705.835938 C 435.914062 705.808594 436.015625 705.773438 436.128906 705.773438 L 524.679688 705.773438 C 523.625 705.410156 522.667969 704.652344 521.9375 703.519531 Z M 584.085938 692.84375 C 583.699219 693.070312 583.285156 693.296875 582.914062 693.515625 C 582.253906 693.90625 581.609375 694.285156 580.972656 694.648438 C 572.078125 699.976562 554.957031 704.578125 538.472656 705.773438 L 583.957031 705.773438 L 584.269531 698.582031 C 583.785156 697.15625 583.636719 695.164062 584.085938 692.84375 Z M 391.460938 680.148438 L 348.359375 680.148438 C 346.863281 680.148438 345.453125 679.582031 344.355469 678.640625 C 343.59375 677.984375 342.976562 677.152344 342.605469 676.179688 L 341.929688 674.398438 L 341.929688 706.476562 C 341.929688 711.144531 345.722656 714.941406 350.390625 714.941406 L 383.085938 714.941406 C 382.460938 714.679688 381.902344 714.265625 381.5 713.699219 C 381.242188 713.339844 381.082031 712.929688 380.96875 712.515625 C 380.78125 711.808594 380.777344 711.0625 381.019531 710.355469 Z M 809.960938 373.167969 L 809.960938 706.476562 C 809.960938 711.144531 806.167969 714.941406 801.503906 714.941406 L 712.488281 714.941406 C 712.839844 714.941406 713.175781 714.789062 713.402344 714.527344 C 713.632812 714.261719 713.738281 713.910156 713.691406 713.5625 L 713.546875 712.515625 L 712.648438 705.980469 C 735.695312 704.085938 749.652344 698.644531 752.964844 683.449219 C 756.140625 668.863281 753.105469 649.367188 752.976562 648.542969 C 749.242188 617.347656 740.40625 576.644531 729.816406 560.933594 C 717.265625 542.316406 688.953125 532.351562 685.347656 531.144531 L 672.65625 515.8125 L 672.65625 503.265625 C 675.136719 504.417969 677.890625 505.082031 680.800781 505.082031 C 691.496094 505.082031 700.195312 496.378906 700.195312 485.679688 C 700.195312 476.890625 694.316406 469.453125 686.289062 467.082031 C 688.671875 456.105469 690.503906 439.25 683.105469 427.960938 C 676.09375 417.253906 662.125 417.140625 653.632812 418.238281 C 649.070312 417.527344 644.460938 417.464844 640.316406 417.722656 C 624.386719 418.714844 618.53125 424.253906 614.734375 432.277344 C 614.039062 432.839844 613.375 433.417969 612.773438 434.035156 C 612.761719 434.046875 612.746094 434.054688 612.734375 434.0625 C 612.71875 434.078125 612.707031 434.09375 612.691406 434.105469 C 612.679688 434.117188 612.664062 434.128906 612.648438 434.144531 C 612.640625 434.15625 612.632812 434.164062 612.625 434.171875 C 606.199219 439.855469 608.019531 451.863281 608.101562 452.378906 C 608.6875 456.972656 609.605469 461.429688 610.410156 465.367188 C 610.636719 466.46875 610.855469 467.53125 611.058594 468.550781 C 604.9375 471.816406 600.757812 478.265625 600.757812 485.675781 C 600.757812 489.136719 601.675781 492.378906 603.265625 495.191406 C 601.839844 495.832031 595.71875 498.957031 594.597656 505.78125 C 593.523438 512.335938 597.386719 516.867188 598.570312 518.078125 C 598.941406 521.378906 602.347656 523.984375 606.527344 523.984375 C 610.953125 523.984375 614.554688 521.074219 614.554688 517.496094 C 614.554688 513.917969 610.953125 511.007812 606.527344 511.007812 C 603.214844 511.007812 600.367188 512.640625 599.140625 514.957031 C 597.898438 513.195312 596.351562 510.105469 596.992188 506.171875 C 598.007812 499.976562 604.402344 497.339844 604.46875 497.3125 C 604.519531 497.289062 604.558594 497.25 604.605469 497.222656 C 606.601562 499.90625 609.265625 502.0625 612.363281 503.429688 C 613.214844 505.890625 614.496094 508.304688 616.417969 510.589844 C 619.324219 514.050781 622.980469 516.671875 627.09375 518.328125 L 627.09375 521.429688 L 617.089844 536.71875 C 613.542969 537.269531 594.957031 540.945312 579.53125 559.292969 C 562.949219 579.023438 546.042969 645.148438 545.222656 648.382812 L 542.820312 656.285156 L 503.8125 553.671875 C 502.992188 551.519531 500.898438 550.074219 498.597656 550.074219 L 341.933594 550.074219 L 341.933594 431.710938 C 342.738281 431.96875 343.546875 432.214844 344.359375 432.457031 C 354.679688 435.523438 365.597656 437.199219 376.902344 437.199219 C 424.265625 437.199219 465 408.257812 482.371094 367.128906 C 482.707031 366.328125 483.007812 365.507812 483.328125 364.699219 L 711.402344 364.699219 L 712.242188 367.128906 L 721.6875 394.414062 C 721.855469 394.902344 722.3125 395.230469 722.828125 395.230469 C 722.832031 395.230469 722.832031 395.230469 722.832031 395.230469 C 723.347656 395.230469 723.804688 394.90625 723.976562 394.421875 L 732.214844 371.074219 C 738.679688 375.417969 768.277344 397.160156 770.265625 432.132812 C 770.699219 439.835938 769.617188 446.003906 767.6875 450.9375 C 766 450.085938 764.296875 449.316406 762.585938 448.628906 C 747.136719 442.46875 735.511719 447.1875 730.246094 453.101562 C 726.167969 457.675781 725.203125 463.410156 727.714844 468.0625 C 730.273438 472.808594 738.917969 474.484375 747.8125 471.96875 C 755.859375 469.691406 764.070312 464 768.78125 454.253906 C 787.65625 464.648438 803.585938 485.117188 800.042969 503.636719 C 798.875 509.738281 795.554688 514.523438 790.175781 517.855469 C 768.71875 531.148438 721.300781 518.109375 720.828125 517.976562 C 720.175781 517.792969 719.511719 518.175781 719.332031 518.816406 C 719.152344 519.460938 719.527344 520.132812 720.171875 520.3125 C 721.46875 520.675781 741.949219 526.3125 762.230469 526.3125 C 772.992188 526.3125 783.695312 524.722656 791.449219 519.921875 C 797.429688 516.214844 801.125 510.890625 802.425781 504.089844 C 806.183594 484.453125 789.5 462.859375 769.761719 452.03125 C 771.976562 446.542969 773.132812 439.894531 772.683594 431.996094 C 770.707031 397.175781 742.339844 375.136719 734.320312 369.578125 L 741.628906 367.128906 L 748.863281 364.703125 L 801.5 364.703125 C 806.167969 364.703125 809.960938 368.5 809.960938 373.167969 Z M 509.867188 443.171875 C 510.359375 443.007812 510.691406 442.550781 510.695312 442.027344 C 510.695312 441.507812 510.367188 441.046875 509.878906 440.875 L 459.578125 423.453125 C 459.136719 423.296875 458.652344 423.414062 458.320312 423.742188 C 457.992188 424.074219 457.882812 424.558594 458.03125 425 L 475.449219 475.320312 C 475.53125 475.566406 475.691406 475.765625 475.894531 475.910156 C 476.097656 476.050781 476.34375 476.132812 476.59375 476.132812 C 476.726562 476.132812 476.859375 476.113281 476.992188 476.066406 C 477.078125 476.039062 477.140625 475.980469 477.214844 475.9375 C 477.253906 475.914062 477.289062 475.898438 477.328125 475.871094 C 477.5 475.734375 477.628906 475.5625 477.710938 475.363281 C 477.714844 475.34375 477.734375 475.339844 477.738281 475.320312 L 486.292969 451.082031 Z M 533.609375 513.90625 C 524.550781 482.390625 503.867188 466.671875 503.660156 466.519531 C 503.125 466.117188 502.363281 466.230469 501.960938 466.765625 C 501.5625 467.300781 501.671875 468.0625 502.207031 468.460938 C 502.410156 468.613281 522.457031 483.882812 531.277344 514.574219 C 540.101562 545.285156 528.671875 575.6875 528.554688 575.992188 C 528.316406 576.617188 528.625 577.320312 529.25 577.558594 C 529.394531 577.613281 529.542969 577.640625 529.6875 577.640625 C 530.175781 577.640625 530.636719 577.34375 530.820312 576.863281 C 530.9375 576.550781 542.664062 545.417969 533.609375 513.90625 Z M 533.609375 513.90625 " fill-opacity="1" fill-rule="nonzero"></path><g clip-path="url(#c8b493d7b4)"><path fill="#f58e6d" d="M 713.546875 712.515625 L 713.6875 713.5625 C 713.738281 713.910156 713.632812 714.261719 713.402344 714.523438 C 713.171875 714.789062 712.839844 714.9375 712.488281 714.9375 L 625.476562 714.9375 C 625.878906 714.742188 626.160156 714.335938 626.160156 713.859375 L 626.160156 706.988281 C 626.160156 706.316406 625.617188 705.773438 624.945312 705.773438 L 586.386719 705.773438 L 586.574219 701.476562 C 586.585938 701.484375 586.597656 701.492188 586.609375 701.5 C 587.078125 701.765625 587.578125 701.980469 588.128906 702.074219 C 588.414062 702.121094 588.695312 702.144531 588.980469 702.144531 C 590.21875 702.144531 591.460938 701.683594 592.527344 700.910156 C 592.53125 700.914062 592.53125 700.914062 592.53125 700.917969 C 593.390625 702.015625 594.851562 702.710938 596.542969 702.824219 C 596.710938 702.835938 596.882812 702.839844 597.050781 702.839844 C 598.570312 702.839844 599.996094 702.355469 601.066406 701.527344 C 601.105469 701.578125 601.117188 701.632812 601.152344 701.683594 C 601.953125 702.691406 603.386719 703.320312 604.988281 703.363281 C 605.046875 703.367188 605.109375 703.367188 605.164062 703.367188 C 607.089844 703.367188 608.925781 702.523438 610.234375 701.035156 C 610.671875 700.542969 611.195312 699.902344 611.796875 699.164062 C 612.773438 697.972656 613.9375 696.550781 615.222656 695.140625 C 624.125 705.398438 651.769531 707.195312 674.054688 707.191406 C 681.121094 707.191406 687.652344 707.015625 692.859375 706.871094 L 696.476562 706.777344 C 701.363281 706.660156 705.925781 706.457031 710.222656 706.15625 C 711.035156 706.097656 711.855469 706.042969 712.648438 705.980469 Z M 752.976562 648.539062 C 752.867188 647.878906 752.230469 647.429688 751.589844 647.53125 C 750.988281 647.628906 750.589844 648.148438 750.585938 648.730469 L 704.804688 648.730469 L 704.757812 648.5 C 704.757812 648.488281 704.75 648.480469 704.75 648.472656 C 704.746094 648.464844 704.75 648.457031 704.746094 648.445312 L 704.523438 647.515625 L 692.601562 598.109375 C 692.441406 597.457031 691.792969 597.066406 691.136719 597.214844 C 690.484375 597.371094 690.082031 598.027344 690.242188 598.679688 L 702.375 648.964844 L 702.378906 648.976562 L 706.265625 668.992188 L 705.140625 669.09375 L 634.550781 675.429688 C 626.417969 669.847656 615.597656 666.652344 604.777344 666.652344 C 604.761719 666.652344 604.75 666.652344 604.742188 666.652344 C 599.003906 666.652344 593.222656 668.515625 588.015625 671.398438 C 587.972656 671.421875 587.925781 671.445312 587.882812 671.472656 L 588.871094 648.757812 L 591.058594 598.445312 C 591.085938 597.773438 590.566406 597.210938 589.898438 597.179688 C 589.234375 597.183594 588.660156 597.671875 588.632812 598.339844 L 586.492188 647.515625 L 586.386719 649.941406 L 546.382812 649.941406 C 546.011719 649.941406 545.65625 649.769531 545.425781 649.472656 C 545.195312 649.175781 545.117188 648.792969 545.207031 648.429688 C 545.210938 648.417969 545.21875 648.390625 545.21875 648.382812 C 546.039062 645.148438 562.945312 579.023438 579.527344 559.292969 C 594.957031 540.945312 613.535156 537.269531 617.085938 536.71875 L 627.09375 521.429688 L 627.289062 521.125 C 627.496094 520.808594 627.839844 520.609375 628.21875 520.578125 C 628.585938 520.542969 628.964844 520.703125 629.210938 520.984375 L 629.519531 521.328125 L 639.941406 533.085938 L 670.230469 515.542969 L 670.835938 515.191406 C 671.347656 514.894531 672 515.007812 672.378906 515.46875 L 672.65625 515.804688 L 685.347656 531.136719 C 688.953125 532.34375 717.265625 542.308594 729.816406 560.925781 C 740.402344 576.640625 749.242188 617.34375 752.976562 648.539062 Z M 685.644531 531.515625 C 685.273438 530.949219 684.515625 530.808594 683.964844 531.171875 L 682.839844 531.917969 L 649.605469 553.988281 L 641.238281 535.144531 L 640.796875 534.144531 C 640.628906 533.769531 640.28125 533.503906 639.875 533.4375 C 639.472656 533.378906 639.054688 533.527344 638.78125 533.835938 L 638.070312 534.640625 L 623.902344 550.667969 L 619.152344 538 L 618.9375 537.421875 C 618.703125 536.796875 618 536.476562 617.375 536.714844 C 616.746094 536.949219 616.429688 537.648438 616.667969 538.277344 L 617.015625 539.203125 L 622.339844 553.410156 C 622.488281 553.808594 622.832031 554.101562 623.253906 554.175781 C 623.671875 554.261719 624.097656 554.109375 624.382812 553.789062 L 639.347656 536.855469 L 647.972656 556.285156 C 648.117188 556.613281 648.398438 556.855469 648.742188 556.957031 C 648.851562 556.988281 648.96875 557.007812 649.082031 557.007812 C 649.316406 557.007812 649.550781 556.9375 649.75 556.804688 L 684.808594 533.523438 L 685.304688 533.195312 C 685.863281 532.824219 686.015625 532.070312 685.644531 531.515625 Z M 599.140625 514.960938 C 598.726562 515.742188 598.496094 516.597656 598.496094 517.5 C 598.496094 517.699219 598.546875 517.886719 598.570312 518.082031 C 598.9375 521.382812 602.34375 523.988281 606.527344 523.988281 C 610.953125 523.988281 614.550781 521.074219 614.550781 517.5 C 614.550781 513.921875 610.949219 511.011719 606.527344 511.011719 C 603.210938 511.011719 600.363281 512.644531 599.140625 514.960938 Z M 524.074219 209.464844 C 524.074219 146.34375 575.40625 94.992188 638.503906 94.992188 C 701.601562 94.992188 752.933594 146.34375 752.933594 209.464844 C 752.933594 272.585938 701.601562 323.941406 638.503906 323.941406 C 575.40625 323.941406 524.074219 272.585938 524.074219 209.464844 Z M 586.363281 277.980469 C 586.363281 278.652344 586.90625 279.191406 587.578125 279.191406 L 689.433594 279.191406 C 690.105469 279.191406 690.648438 278.652344 690.648438 277.980469 L 690.648438 233.871094 C 690.648438 216.148438 676.234375 201.726562 658.511719 201.726562 L 652.34375 201.726562 L 652.34375 201.460938 C 664.117188 196.328125 671.679688 184.832031 671.679688 171.945312 C 671.679688 154.183594 657.238281 139.734375 639.484375 139.734375 C 621.730469 139.734375 607.289062 154.183594 607.289062 171.945312 C 607.289062 184.058594 613.925781 194.929688 624.664062 200.507812 L 624.664062 201.726562 L 618.496094 201.726562 C 600.777344 201.726562 586.363281 216.148438 586.363281 233.871094 Z M 482.367188 367.128906 C 465 408.261719 424.265625 437.199219 376.898438 437.199219 C 365.597656 437.199219 354.679688 435.527344 344.355469 432.457031 C 343.542969 432.214844 342.734375 431.972656 341.929688 431.714844 C 295.886719 416.894531 262.46875 373.652344 262.46875 322.726562 C 262.46875 259.605469 313.804688 208.25 376.898438 208.25 C 439.996094 208.25 491.332031 259.605469 491.332031 322.726562 C 491.332031 337.542969 488.472656 351.695312 483.328125 364.703125 C 483.007812 365.511719 482.707031 366.332031 482.367188 367.128906 Z M 429.042969 347.132812 C 429.042969 329.410156 414.625 314.988281 396.90625 314.988281 L 390.738281 314.988281 L 390.738281 314.722656 C 402.511719 309.589844 410.078125 298.09375 410.078125 285.207031 C 410.078125 267.445312 395.632812 252.996094 377.878906 252.996094 C 360.125 252.996094 345.683594 267.445312 345.683594 285.207031 C 345.683594 297.316406 352.320312 308.191406 363.058594 313.765625 L 363.058594 314.988281 L 356.890625 314.988281 C 339.171875 314.988281 324.753906 329.410156 324.753906 347.132812 L 324.753906 391.242188 C 324.753906 391.914062 325.296875 392.457031 325.96875 392.457031 L 427.828125 392.457031 C 428.5 392.457031 429.039062 391.914062 429.039062 391.242188 L 429.039062 347.132812 Z M 114.476562 552.503906 C 51.378906 552.503906 0.0429688 501.152344 0.0429688 438.03125 C 0.0429688 374.910156 51.378906 323.554688 114.476562 323.554688 C 177.574219 323.554688 228.90625 374.910156 228.90625 438.03125 C 228.90625 501.152344 177.574219 552.503906 114.476562 552.503906 Z M 166.617188 462.4375 C 166.617188 444.710938 152.203125 430.292969 134.484375 430.292969 L 128.316406 430.292969 L 128.316406 430.027344 C 140.089844 424.894531 147.652344 413.394531 147.652344 400.511719 C 147.652344 382.75 133.210938 368.300781 115.457031 368.300781 C 97.703125 368.300781 83.261719 382.75 83.261719 400.511719 C 83.261719 412.621094 89.898438 423.496094 100.636719 429.070312 L 100.636719 430.292969 L 94.46875 430.292969 C 76.75 430.292969 62.332031 444.710938 62.332031 462.4375 L 62.332031 506.546875 C 62.332031 507.214844 62.875 507.757812 63.546875 507.757812 L 165.402344 507.757812 C 166.074219 507.757812 166.617188 507.214844 166.617188 506.546875 Z M 287.839844 616.652344 C 287.714844 616.328125 287.457031 616.070312 287.128906 615.953125 C 286.800781 615.828125 286.441406 615.859375 286.132812 616.023438 C 285.839844 616.179688 256.816406 631.648438 237.867188 622.8125 C 216.011719 612.613281 208.976562 592.304688 207.746094 588.175781 L 225.375 574.429688 C 225.773438 574.121094 225.9375 573.601562 225.789062 573.121094 C 225.648438 572.640625 225.222656 572.300781 224.722656 572.257812 L 169.980469 568.058594 C 169.332031 567.960938 168.734375 568.5 168.679688 569.160156 L 164.195312 620.015625 C 164.152344 620.503906 164.402344 620.96875 164.835938 621.195312 C 165.269531 621.421875 165.792969 621.371094 166.167969 621.066406 L 179.445312 610.289062 C 182.515625 617.78125 197.191406 649.613281 227.816406 659.042969 C 234.410156 661.074219 241.152344 661.886719 247.738281 661.886719 C 274.535156 661.886719 298.660156 648.371094 298.957031 648.199219 C 299.480469 647.898438 299.707031 647.265625 299.488281 646.707031 Z M 484.199219 450.507812 C 484.101562 450.21875 484.128906 449.921875 484.238281 449.660156 C 484.285156 449.546875 484.355469 449.449219 484.433594 449.351562 C 484.464844 449.316406 484.484375 449.273438 484.519531 449.242188 C 484.644531 449.125 484.789062 449.027344 484.960938 448.972656 L 505.722656 442.003906 L 461.144531 426.566406 L 477.742188 474.523438 C 477.839844 474.808594 477.816406 475.101562 477.710938 475.363281 C 477.714844 475.347656 477.734375 475.339844 477.742188 475.324219 L 486.292969 451.082031 L 509.867188 443.171875 L 485.734375 451.269531 C 485.097656 451.496094 484.410156 451.140625 484.199219 450.507812 Z M 484.199219 450.507812 " fill-opacity="1" fill-rule="nonzero"></path></g><g clip-path="url(#4ca968b81b)"><path fill="#231f20" d="M 683.105469 427.960938 C 676.09375 417.253906 662.125 417.136719 653.628906 418.238281 C 649.070312 417.523438 644.457031 417.460938 640.3125 417.722656 C 624.386719 418.714844 618.53125 424.253906 614.730469 432.273438 C 614.039062 432.835938 613.375 433.417969 612.769531 434.035156 C 612.757812 434.042969 612.746094 434.050781 612.734375 434.0625 C 612.71875 434.074219 612.707031 434.089844 612.691406 434.105469 C 612.679688 434.117188 612.660156 434.128906 612.648438 434.140625 C 612.640625 434.152344 612.632812 434.164062 612.621094 434.171875 C 606.199219 439.855469 608.019531 451.863281 608.097656 452.378906 C 608.097656 452.378906 608.101562 452.378906 608.101562 452.378906 C 608.6875 456.96875 609.601562 461.429688 610.410156 465.363281 C 610.636719 466.464844 610.855469 467.527344 611.054688 468.550781 C 604.933594 471.816406 600.753906 478.265625 600.753906 485.675781 C 600.753906 489.132812 601.671875 492.375 603.265625 495.191406 C 601.839844 495.832031 595.714844 498.953125 594.597656 505.777344 C 593.523438 512.332031 597.386719 516.863281 598.570312 518.078125 C 598.546875 517.882812 598.496094 517.695312 598.496094 517.496094 C 598.496094 516.597656 598.726562 515.738281 599.140625 514.957031 C 597.894531 513.195312 596.347656 510.105469 596.992188 506.171875 C 598.007812 499.976562 604.402344 497.339844 604.46875 497.3125 C 604.519531 497.289062 604.554688 497.25 604.601562 497.222656 C 606.601562 499.90625 609.265625 502.0625 612.363281 503.429688 C 613.214844 505.890625 614.496094 508.304688 616.414062 510.589844 C 619.320312 514.050781 622.980469 516.671875 627.09375 518.328125 L 627.09375 521.429688 L 627.292969 521.125 C 627.5 520.808594 627.84375 520.609375 628.21875 520.578125 C 628.589844 520.542969 628.964844 520.703125 629.214844 520.984375 L 629.519531 521.328125 L 629.519531 519.167969 C 631.390625 519.722656 633.335938 520.105469 635.339844 520.261719 C 636.074219 520.320312 636.847656 520.355469 637.671875 520.355469 C 643.78125 520.355469 652.230469 518.464844 661.171875 510.726562 C 661.679688 510.289062 661.734375 509.523438 661.296875 509.015625 C 660.859375 508.507812 660.09375 508.457031 659.585938 508.894531 C 650.082031 517.117188 641.269531 518.3125 635.535156 517.84375 C 628.722656 517.300781 622.59375 514.167969 618.277344 509.03125 C 614.410156 504.425781 613.339844 499.253906 613.3125 494.109375 C 613.296875 490.894531 613.683594 487.691406 614.054688 484.644531 C 614.3125 482.53125 614.550781 480.507812 614.632812 478.625 C 614.667969 477.8125 614.683594 477.019531 614.648438 476.269531 C 614.492188 473.164062 613.703125 469.324219 612.792969 464.871094 C 612.011719 461.066406 611.132812 456.761719 610.558594 452.363281 C 611.558594 450.378906 619.09375 437.820312 647.082031 442.695312 C 647.273438 446.960938 649.140625 463.125 665.4375 473.886719 C 662.925781 477.15625 661.414062 481.238281 661.414062 485.671875 C 661.414062 492.46875 664.933594 498.453125 670.238281 501.917969 L 670.238281 515.542969 L 670.84375 515.191406 C 671.355469 514.890625 672.007812 515.007812 672.382812 515.464844 L 672.664062 515.804688 L 672.664062 503.253906 C 675.144531 504.40625 677.898438 505.070312 680.808594 505.070312 C 691.503906 505.070312 700.203125 496.367188 700.203125 485.667969 C 700.203125 476.878906 694.324219 469.445312 686.292969 467.070312 C 688.671875 456.101562 690.503906 439.25 683.105469 427.960938 Z M 612.21875 476.394531 C 612.335938 478.679688 611.996094 481.4375 611.640625 484.359375 C 611.050781 489.207031 610.382812 494.773438 611.492188 500.25 C 606.523438 497.285156 603.179688 491.871094 603.179688 485.679688 C 603.179688 479.46875 606.542969 474.042969 611.53125 471.082031 C 611.882812 473.058594 612.140625 474.851562 612.21875 476.394531 Z M 619.160156 429.386719 C 622.769531 424.191406 628.46875 420.890625 640.464844 420.144531 C 651.601562 419.449219 666.347656 421.042969 673.144531 432.574219 C 678.78125 442.140625 679.484375 461.453125 679.574219 466.339844 C 677.132812 466.496094 674.816406 467.097656 672.699219 468.074219 C 672.742188 462.550781 672.285156 447.445312 666.601562 437.105469 C 666.476562 436.863281 666.34375 436.640625 666.210938 436.410156 C 666.15625 436.316406 666.105469 436.222656 666.046875 436.132812 C 665.257812 434.785156 664.417969 433.589844 663.507812 432.617188 C 663.4375 432.542969 663.359375 432.484375 663.289062 432.414062 C 662.78125 431.859375 662.226562 431.328125 661.605469 430.828125 C 657.601562 427.46875 652.25 425.605469 645.046875 424.964844 C 644.722656 424.933594 644.394531 424.902344 644.066406 424.878906 C 643.464844 424.835938 642.847656 424.796875 642.21875 424.769531 C 641.800781 424.75 641.394531 424.707031 640.972656 424.695312 C 640.664062 424.691406 640.363281 424.714844 640.054688 424.710938 C 639.652344 424.707031 639.285156 424.679688 638.875 424.679688 C 638.117188 424.683594 637.390625 424.738281 636.65625 424.773438 C 636.640625 424.773438 636.625 424.773438 636.613281 424.773438 C 633.03125 424.953125 629.660156 425.519531 626.484375 426.480469 C 623.835938 427.230469 621.378906 428.203125 619.160156 429.386719 Z M 697.769531 485.679688 C 697.769531 495.039062 690.15625 502.652344 680.800781 502.652344 C 671.445312 502.652344 663.832031 495.039062 663.832031 485.679688 C 663.832031 481.382812 665.449219 477.464844 668.089844 474.472656 L 672.105469 471.128906 C 674.652344 469.601562 677.621094 468.703125 680.800781 468.703125 C 690.15625 468.703125 697.769531 476.320312 697.769531 485.679688 Z M 633.441406 507.191406 C 634.1875 507.191406 634.972656 507.101562 635.804688 506.910156 C 642.808594 505.308594 644.328125 499.152344 644.148438 496.117188 C 644.125 495.703125 643.890625 495.328125 643.523438 495.128906 C 643.160156 494.925781 642.714844 494.925781 642.355469 495.125 C 636.992188 498.070312 625.074219 497.78125 624.960938 497.78125 C 624.574219 497.777344 624.191406 497.953125 623.953125 498.269531 C 623.71875 498.582031 623.652344 498.992188 623.773438 499.367188 C 624.714844 502.296875 627.859375 507.191406 633.441406 507.191406 Z M 641.574219 498.128906 C 641.179688 500.238281 639.820312 503.503906 635.265625 504.546875 C 630.535156 505.640625 627.929688 502.324219 626.792969 500.21875 C 630.066406 500.179688 636.835938 499.878906 641.574219 498.128906 Z M 621.175781 469.816406 L 621.40625 474.8125 C 621.441406 475.484375 620.921875 476.050781 620.253906 476.082031 C 620.234375 476.085938 620.214844 476.085938 620.195312 476.085938 C 619.550781 476.085938 619.015625 475.578125 618.988281 474.929688 L 618.753906 469.929688 C 618.722656 469.257812 619.242188 468.691406 619.910156 468.660156 C 620.582031 468.570312 621.144531 469.148438 621.175781 469.816406 Z M 639.160156 473.6875 L 638.929688 468.6875 C 638.898438 468.015625 639.414062 467.453125 640.082031 467.421875 C 640.730469 467.328125 641.324219 467.90625 641.351562 468.574219 L 641.582031 473.570312 C 641.617188 474.242188 641.097656 474.808594 640.429688 474.839844 C 640.410156 474.84375 640.390625 474.84375 640.371094 474.84375 C 639.726562 474.84375 639.191406 474.335938 639.160156 473.6875 Z M 624.203125 483.910156 C 627.550781 475.648438 626.828125 471.144531 626.820312 471.097656 C 626.707031 470.4375 627.148438 469.8125 627.804688 469.691406 C 628.460938 469.585938 629.089844 470.007812 629.207031 470.664062 C 629.246094 470.871094 630.097656 475.816406 626.457031 484.820312 C 626.046875 485.824219 626.035156 486.613281 626.421875 487.164062 C 627.058594 488.058594 628.804688 488.566406 631.007812 488.460938 C 631.636719 488.445312 632.246094 488.953125 632.273438 489.621094 C 632.300781 490.289062 631.785156 490.855469 631.113281 490.886719 C 630.898438 490.894531 630.6875 490.898438 630.480469 490.898438 C 627.679688 490.898438 625.496094 490.0625 624.441406 488.5625 C 623.828125 487.691406 623.289062 486.179688 624.203125 483.910156 Z M 752.976562 648.539062 C 752.867188 647.878906 752.230469 647.429688 751.589844 647.53125 C 750.988281 647.628906 750.589844 648.148438 750.585938 648.730469 C 750.585938 648.792969 750.570312 648.855469 750.578125 648.921875 C 750.613281 649.121094 753.675781 668.785156 750.59375 682.929688 C 746.890625 699.933594 728.699219 703.574219 696.425781 704.347656 L 692.796875 704.445312 C 673.09375 704.984375 627.539062 706.21875 616.898438 693.40625 C 618.652344 691.675781 620.558594 690.113281 622.5 689.234375 C 623.109375 688.960938 623.378906 688.242188 623.101562 687.632812 C 622.828125 687.019531 622.101562 686.75 621.5 687.027344 C 621.472656 687.039062 621.445312 687.054688 621.417969 687.070312 C 616.839844 689.179688 612.679688 694.257812 609.921875 697.628906 C 609.34375 698.335938 608.839844 698.957031 608.421875 699.429688 C 607.222656 700.789062 605.765625 700.988281 605.058594 700.9375 C 604.074219 700.910156 603.34375 700.535156 603.0625 700.175781 C 601.792969 698.570312 602.707031 695.496094 605.769531 691.035156 C 608.96875 686.378906 617.375 681.066406 617.949219 680.707031 C 617.96875 680.695312 618.003906 680.671875 618.003906 680.671875 C 618.578125 680.320312 618.753906 679.570312 618.398438 679.003906 C 618.050781 678.433594 617.300781 678.25 616.730469 678.609375 C 616.664062 678.652344 616.308594 678.871094 615.769531 679.226562 C 613.289062 680.847656 606.714844 685.378906 603.773438 689.660156 C 601.882812 692.410156 599.738281 696.097656 600.164062 699.21875 C 600.050781 699.273438 599.9375 699.332031 599.839844 699.425781 C 599.136719 700.113281 597.953125 700.484375 596.710938 700.402344 C 595.726562 700.335938 594.875 699.964844 594.445312 699.417969 C 593.515625 698.234375 593.535156 694.402344 597.554688 689.199219 C 601.542969 684.03125 608.65625 677.960938 608.730469 677.898438 C 608.867188 677.785156 608.964844 677.644531 609.035156 677.492188 C 609.234375 677.074219 609.1875 676.5625 608.867188 676.1875 C 608.4375 675.683594 607.675781 675.617188 607.160156 676.050781 C 607.089844 676.109375 606.660156 676.476562 606.007812 677.050781 C 603.785156 679.019531 598.839844 683.5625 595.636719 687.714844 C 592.269531 692.070312 591.238281 695.882812 591.605469 698.511719 C 590.742188 699.375 589.570312 699.859375 588.539062 699.675781 C 587.625 699.523438 586.949219 698.894531 586.582031 697.851562 C 585.871094 695.820312 586.054688 691.867188 588.917969 687.390625 C 592.207031 682.257812 597.808594 677.65625 599.625 676.234375 C 599.988281 675.949219 600.214844 675.78125 600.226562 675.773438 C 600.765625 675.378906 600.882812 674.617188 600.484375 674.078125 C 600.085938 673.535156 599.328125 673.425781 598.789062 673.816406 C 598.476562 674.046875 591.0625 679.542969 586.875 686.082031 C 586.136719 687.242188 585.570312 688.367188 585.117188 689.460938 C 583.921875 690.113281 582.765625 690.78125 581.679688 691.425781 C 579.460938 692.742188 577.542969 693.875 575.859375 694.40625 C 574.941406 694.683594 573.511719 694.476562 572.800781 693.628906 C 572.023438 692.710938 572.179688 691.070312 573.242188 689.011719 C 578.199219 679.390625 592.042969 669.085938 604.746094 669.082031 C 604.757812 669.082031 604.765625 669.082031 604.777344 669.082031 C 615.273438 669.082031 625.75 672.210938 633.527344 677.671875 C 633.757812 677.839844 634.03125 677.910156 634.332031 677.886719 L 707.820312 671.289062 C 708.164062 671.257812 708.476562 671.085938 708.679688 670.8125 C 708.886719 670.535156 708.96875 670.1875 708.902344 669.847656 L 704.804688 648.730469 L 704.761719 648.5 C 704.757812 648.488281 704.75 648.484375 704.75 648.472656 C 704.75 648.464844 704.75 648.457031 704.75 648.445312 L 704.523438 647.515625 L 692.601562 598.109375 C 692.441406 597.457031 691.792969 597.066406 691.136719 597.214844 C 690.488281 597.371094 690.085938 598.027344 690.242188 598.679688 L 702.378906 648.964844 L 702.378906 648.976562 L 706.265625 668.992188 L 705.140625 669.09375 L 634.550781 675.429688 C 626.417969 669.847656 615.601562 666.652344 604.777344 666.652344 C 604.765625 666.652344 604.753906 666.652344 604.746094 666.652344 C 599.007812 666.652344 593.222656 668.515625 588.019531 671.398438 C 587.972656 671.421875 587.929688 671.445312 587.882812 671.472656 L 588.871094 648.757812 L 591.058594 598.445312 C 591.089844 597.773438 590.570312 597.210938 589.898438 597.179688 C 589.234375 597.183594 588.660156 597.671875 588.632812 598.339844 L 586.496094 647.515625 L 586.390625 649.941406 L 585.386719 672.964844 C 579.042969 677.054688 573.824219 682.578125 571.085938 687.894531 C 569.113281 691.722656 569.917969 693.976562 570.941406 695.191406 C 571.265625 695.574219 571.65625 695.867188 572.0625 696.121094 C 563.574219 699.421875 551.691406 702.367188 539.121094 703.328125 C 540.722656 700.886719 542.050781 696.039062 542.792969 692.914062 C 542.96875 693.207031 543.152344 693.515625 543.332031 693.828125 C 544.507812 695.820312 545.71875 697.882812 547.117188 699.042969 C 548.710938 700.367188 551.261719 700.90625 553.3125 700.351562 C 555.011719 699.890625 556.273438 698.75 556.867188 697.132812 C 558.058594 693.890625 553.925781 685.066406 548.960938 678.867188 C 549.101562 678.71875 549.25 678.578125 549.371094 678.40625 C 550.121094 677.320312 550.289062 675.9375 549.820312 674.699219 L 544.230469 659.992188 L 547.28125 649.941406 L 546.386719 649.941406 C 546.011719 649.941406 545.65625 649.769531 545.425781 649.472656 C 545.195312 649.179688 545.117188 648.792969 545.207031 648.429688 C 545.210938 648.421875 545.21875 648.394531 545.222656 648.382812 L 542.820312 656.285156 L 503.8125 553.671875 C 502.992188 551.519531 500.894531 550.074219 498.597656 550.074219 L 303.597656 550.074219 C 301.574219 550.074219 299.679688 551.070312 298.53125 552.742188 C 297.378906 554.40625 297.125 556.53125 297.84375 558.425781 L 341.929688 674.398438 L 342.605469 676.175781 C 342.976562 677.152344 343.59375 677.984375 344.355469 678.636719 C 345.453125 679.582031 346.863281 680.148438 348.363281 680.148438 L 391.460938 680.148438 L 381.019531 710.355469 C 380.777344 711.058594 380.78125 711.808594 380.972656 712.511719 C 381.085938 712.929688 381.246094 713.339844 381.503906 713.699219 C 381.90625 714.265625 382.460938 714.675781 383.085938 714.941406 C 383.53125 715.128906 384.011719 715.25 384.507812 715.25 L 486.605469 715.25 C 487.019531 715.25 487.410156 715.175781 487.789062 715.074219 L 624.949219 715.074219 C 625.140625 715.074219 625.316406 715.019531 625.480469 714.941406 C 625.878906 714.742188 626.160156 714.339844 626.160156 713.859375 L 626.160156 706.988281 C 626.160156 706.316406 625.621094 705.773438 624.949219 705.773438 L 586.390625 705.773438 L 586.574219 701.476562 C 586.589844 701.484375 586.601562 701.492188 586.613281 701.5 C 587.082031 701.765625 587.578125 701.980469 588.132812 702.074219 C 588.414062 702.121094 588.699219 702.144531 588.984375 702.144531 C 590.21875 702.144531 591.464844 701.683594 592.53125 700.910156 C 592.53125 700.914062 592.53125 700.914062 592.535156 700.917969 C 593.390625 702.015625 594.851562 702.710938 596.546875 702.824219 C 596.714844 702.835938 596.882812 702.839844 597.050781 702.839844 C 598.570312 702.839844 599.996094 702.355469 601.066406 701.527344 C 601.105469 701.578125 601.117188 701.632812 601.15625 701.683594 C 601.953125 702.695312 603.386719 703.320312 604.992188 703.363281 C 605.050781 703.367188 605.109375 703.367188 605.167969 703.367188 C 607.089844 703.367188 608.929688 702.523438 610.238281 701.035156 C 610.675781 700.542969 611.195312 699.902344 611.800781 699.164062 C 612.777344 697.972656 613.941406 696.550781 615.226562 695.140625 C 624.125 705.398438 651.769531 707.195312 674.058594 707.191406 C 681.125 707.191406 687.652344 707.015625 692.859375 706.875 L 696.480469 706.777344 C 701.367188 706.660156 705.925781 706.457031 710.222656 706.15625 C 711.039062 706.097656 711.855469 706.042969 712.648438 705.980469 C 735.695312 704.082031 749.652344 698.640625 752.960938 683.449219 C 756.140625 668.863281 753.105469 649.363281 752.976562 648.542969 C 752.976562 648.542969 752.976562 648.539062 752.976562 648.539062 Z M 436.128906 705.773438 C 436.015625 705.773438 435.914062 705.8125 435.8125 705.839844 C 435.769531 705.796875 435.710938 705.773438 435.675781 705.722656 C 435.496094 705.464844 435.445312 705.148438 435.550781 704.847656 L 444.085938 680.148438 L 501.074219 680.148438 C 500.96875 680.316406 500.839844 680.464844 500.738281 680.636719 C 497.226562 686.585938 497.195312 692.816406 498.335938 696.660156 C 498.875 698.464844 500.089844 699.65625 501.765625 700.007812 C 503.800781 700.429688 505.898438 699.507812 506.824219 698.414062 C 508.15625 696.839844 508.675781 695.011719 509.226562 693.074219 C 509.503906 692.101562 509.789062 691.09375 510.191406 690.101562 C 510.703125 688.847656 511.246094 687.851562 511.765625 687.03125 C 511.742188 687.292969 511.710938 687.539062 511.691406 687.804688 C 511.15625 694.867188 511.710938 699.402344 513.4375 702.082031 C 514.484375 703.703125 515.976562 704.601562 517.59375 704.601562 C 517.777344 704.601562 517.960938 704.589844 518.144531 704.566406 C 519.414062 704.410156 520.546875 703.683594 521.453125 702.625 C 521.601562 702.941406 521.761719 703.246094 521.9375 703.519531 C 522.667969 704.65625 523.625 705.410156 524.679688 705.777344 L 436.128906 705.777344 Z M 528.96875 701.058594 C 528.429688 702.46875 527.425781 703.460938 526.34375 703.597656 C 525.199219 703.722656 524.433594 702.917969 523.972656 702.199219 C 522.570312 700.023438 522.121094 695.847656 522.609375 689.429688 C 522.910156 685.476562 524.0625 681.46875 524.46875 680.148438 L 531.363281 680.148438 C 529.078125 686.53125 528.515625 697.042969 528.96875 701.058594 Z M 520.1875 689.242188 C 519.855469 693.621094 519.945312 697.027344 520.472656 699.621094 C 519.933594 701.027344 518.929688 702.023438 517.84375 702.160156 C 516.738281 702.285156 515.9375 701.476562 515.472656 700.761719 C 514.070312 698.585938 513.625 694.40625 514.113281 687.988281 C 514.394531 684.199219 515.207031 681.234375 515.535156 680.148438 L 521.933594 680.148438 C 521.398438 681.984375 520.464844 685.585938 520.1875 689.242188 Z M 512.453125 682.476562 C 511.585938 683.195312 509.582031 685.171875 507.949219 689.1875 C 507.492188 690.300781 507.191406 691.371094 506.894531 692.410156 C 506.398438 694.160156 505.96875 695.667969 504.972656 696.847656 C 504.566406 697.328125 503.335938 697.859375 502.265625 697.632812 C 501.46875 697.464844 500.949219 696.921875 500.664062 695.972656 C 499.667969 692.613281 499.714844 687.148438 502.832031 681.871094 C 503.191406 681.265625 503.601562 680.707031 504.007812 680.148438 L 513.011719 680.148438 C 512.847656 680.742188 512.652344 681.523438 512.453125 682.476562 Z M 554.585938 696.300781 C 554.265625 697.179688 553.625 697.753906 552.683594 698.007812 C 551.386719 698.363281 549.65625 698 548.664062 697.179688 C 547.589844 696.289062 546.441406 694.328125 545.425781 692.597656 C 544.769531 691.488281 544.148438 690.441406 543.53125 689.613281 C 544.296875 686.515625 545.054688 682.546875 545.089844 682.371094 C 545.214844 681.710938 544.78125 681.078125 544.125 680.949219 C 543.460938 680.832031 542.832031 681.257812 542.707031 681.914062 C 542.699219 681.960938 541.832031 686.507812 541.035156 689.585938 C 541.03125 689.601562 541.039062 689.617188 541.035156 689.632812 C 541.03125 689.640625 541.023438 689.648438 541.023438 689.65625 C 540.195312 693.828125 538.289062 701.019531 536.6875 702.53125 C 535.707031 703.457031 534.28125 703.808594 533.148438 703.414062 C 532.472656 703.175781 531.625 702.578125 531.410156 701.078125 C 530.890625 697.386719 531.527344 686.421875 533.808594 680.511719 C 533.855469 680.390625 533.863281 680.269531 533.871094 680.148438 L 546.066406 680.148438 C 546.328125 680.148438 546.582031 680.101562 546.835938 680.054688 C 551.679688 685.96875 555.296875 694.367188 554.585938 696.300781 Z M 498.597656 552.503906 C 499.898438 552.503906 501.082031 553.324219 501.542969 554.539062 L 547.550781 675.566406 C 547.738281 676.0625 547.671875 676.597656 547.371094 677.035156 C 547.070312 677.46875 546.59375 677.722656 546.0625 677.722656 L 543.6875 677.722656 L 496.089844 552.503906 Z M 348.359375 677.722656 C 346.824219 677.722656 345.421875 676.753906 344.875 675.316406 L 300.113281 557.5625 C 299.671875 556.398438 299.820312 555.144531 300.527344 554.117188 C 301.234375 553.09375 302.355469 552.503906 303.601562 552.503906 L 493.492188 552.503906 L 541.089844 677.722656 L 444.925781 677.722656 L 456.5 644.226562 C 456.628906 643.855469 456.570312 643.445312 456.34375 643.128906 C 456.117188 642.808594 455.746094 642.617188 455.355469 642.617188 L 405.292969 642.617188 C 404.777344 642.617188 404.316406 642.945312 404.148438 643.4375 L 392.300781 677.722656 Z M 486.605469 712.824219 L 384.507812 712.824219 C 384.09375 712.824219 383.71875 712.628906 383.480469 712.292969 C 383.238281 711.957031 383.179688 711.542969 383.3125 711.148438 L 406.15625 645.042969 L 453.652344 645.042969 L 433.261719 704.058594 C 432.902344 705.089844 433.070312 706.238281 433.703125 707.132812 C 434.339844 708.023438 435.367188 708.550781 436.460938 708.550781 L 486.605469 708.550781 C 487.78125 708.550781 488.742188 709.511719 488.742188 710.6875 C 488.742188 711.867188 487.785156 712.824219 486.605469 712.824219 Z M 623.734375 708.203125 L 623.734375 712.648438 L 490.707031 712.648438 C 490.992188 712.050781 491.167969 711.390625 491.167969 710.6875 C 491.167969 709.769531 490.890625 708.917969 490.421875 708.203125 Z M 538.472656 705.773438 C 554.957031 704.578125 572.078125 699.976562 580.972656 694.648438 C 581.609375 694.285156 582.253906 693.90625 582.914062 693.515625 C 583.285156 693.296875 583.699219 693.070312 584.085938 692.84375 C 583.636719 695.164062 583.785156 697.15625 584.269531 698.582031 L 583.957031 705.773438 Z M 685.644531 531.515625 C 686.015625 532.070312 685.863281 532.824219 685.304688 533.195312 L 684.808594 533.523438 L 649.75 556.804688 C 649.546875 556.9375 649.316406 557.007812 649.078125 557.007812 C 648.964844 557.007812 648.851562 556.992188 648.742188 556.960938 C 648.398438 556.855469 648.117188 556.613281 647.96875 556.285156 L 639.347656 536.855469 L 624.382812 553.789062 C 624.097656 554.109375 623.667969 554.261719 623.25 554.179688 C 622.832031 554.101562 622.488281 553.8125 622.335938 553.414062 L 617.011719 539.207031 L 616.664062 538.277344 C 616.425781 537.648438 616.746094 536.949219 617.375 536.714844 C 617.996094 536.476562 618.699219 536.796875 618.933594 537.425781 L 619.148438 538 L 623.898438 550.671875 L 638.066406 534.640625 L 638.777344 533.835938 C 639.054688 533.527344 639.46875 533.378906 639.871094 533.441406 C 640.277344 533.503906 640.628906 533.769531 640.796875 534.148438 L 641.238281 535.144531 L 649.605469 553.988281 L 682.839844 531.921875 L 683.960938 531.175781 C 684.515625 530.808594 685.269531 530.949219 685.644531 531.515625 Z M 439.972656 600.597656 L 387.640625 600.597656 C 386.96875 600.597656 386.425781 600.054688 386.425781 599.382812 C 386.425781 598.710938 386.96875 598.171875 387.640625 598.171875 L 439.972656 598.171875 C 440.644531 598.171875 441.1875 598.710938 441.1875 599.382812 C 441.1875 600.054688 440.644531 600.597656 439.972656 600.597656 Z M 443.285156 609.308594 L 390.953125 609.308594 C 390.28125 609.308594 389.738281 608.769531 389.738281 608.097656 C 389.738281 607.425781 390.28125 606.882812 390.953125 606.882812 L 443.285156 606.882812 C 443.957031 606.882812 444.5 607.425781 444.5 608.097656 C 444.5 608.769531 443.957031 609.308594 443.285156 609.308594 Z M 446.597656 618.023438 L 394.265625 618.023438 C 393.59375 618.023438 393.050781 617.480469 393.050781 616.808594 C 393.050781 616.136719 393.59375 615.59375 394.265625 615.59375 L 446.597656 615.59375 C 447.269531 615.59375 447.808594 616.136719 447.808594 616.808594 C 447.808594 617.480469 447.269531 618.023438 446.597656 618.023438 Z M 449.910156 626.738281 L 397.578125 626.738281 C 396.90625 626.738281 396.363281 626.195312 396.363281 625.523438 C 396.363281 624.851562 396.90625 624.3125 397.578125 624.3125 L 449.910156 624.3125 C 450.582031 624.3125 451.121094 624.851562 451.121094 625.523438 C 451.121094 626.195312 450.582031 626.738281 449.910156 626.738281 Z M 616.667969 466.003906 C 616.425781 466.296875 616.078125 466.445312 615.730469 466.445312 C 615.457031 466.445312 615.183594 466.355469 614.960938 466.167969 C 614.441406 465.738281 614.371094 464.976562 614.796875 464.457031 C 618.589844 459.871094 624.007812 461.582031 624.238281 461.652344 C 624.875 461.859375 625.222656 462.546875 625.011719 463.183594 C 624.804688 463.820312 624.117188 464.171875 623.488281 463.960938 C 623.3125 463.910156 619.386719 462.714844 616.667969 466.003906 Z M 645.039062 463.507812 C 640.273438 460.277344 636.015625 463.339844 635.835938 463.476562 C 635.296875 463.867188 634.542969 463.761719 634.136719 463.222656 C 633.742188 462.6875 633.847656 461.933594 634.378906 461.53125 C 636.359375 460.046875 641.417969 458.117188 646.398438 461.496094 C 646.953125 461.875 647.097656 462.628906 646.722656 463.183594 C 646.488281 463.527344 646.109375 463.714844 645.71875 463.714844 C 645.484375 463.714844 645.25 463.644531 645.039062 463.507812 Z M 587.578125 279.191406 L 689.433594 279.191406 C 690.105469 279.191406 690.648438 278.652344 690.648438 277.980469 L 690.648438 233.871094 C 690.648438 216.148438 676.234375 201.726562 658.511719 201.726562 L 652.34375 201.726562 L 652.34375 201.460938 C 664.117188 196.328125 671.679688 184.832031 671.679688 171.945312 C 671.679688 154.183594 657.238281 139.734375 639.484375 139.734375 C 621.730469 139.734375 607.289062 154.183594 607.289062 171.945312 C 607.289062 184.058594 613.925781 194.929688 624.664062 200.507812 L 624.664062 201.726562 L 618.496094 201.726562 C 600.777344 201.726562 586.363281 216.148438 586.363281 233.871094 L 586.363281 277.980469 C 586.363281 278.652344 586.90625 279.191406 587.578125 279.191406 Z M 588.789062 233.871094 C 588.789062 217.484375 602.117188 204.152344 618.496094 204.152344 L 625.878906 204.152344 C 626.546875 204.152344 627.089844 203.613281 627.089844 202.941406 L 627.089844 199.761719 C 627.089844 199.296875 626.828125 198.875 626.410156 198.671875 C 616.109375 193.617188 609.714844 183.375 609.714844 171.949219 C 609.714844 155.523438 623.070312 142.164062 639.484375 142.164062 C 655.898438 142.164062 669.253906 155.523438 669.253906 171.949219 C 669.253906 184.117188 661.960938 194.945312 650.675781 199.535156 C 650.21875 199.71875 649.917969 200.164062 649.917969 200.65625 L 649.917969 202.941406 C 649.917969 203.613281 650.460938 204.15625 651.132812 204.15625 L 658.511719 204.15625 C 674.894531 204.15625 688.21875 217.488281 688.21875 233.875 L 688.21875 276.769531 L 588.789062 276.769531 Z M 325.96875 392.453125 L 427.828125 392.453125 C 428.5 392.453125 429.042969 391.910156 429.042969 391.242188 L 429.042969 347.132812 C 429.042969 329.40625 414.625 314.988281 396.90625 314.988281 L 390.738281 314.988281 L 390.738281 314.71875 C 402.511719 309.589844 410.078125 298.09375 410.078125 285.203125 C 410.078125 267.441406 395.632812 252.996094 377.878906 252.996094 C 360.125 252.996094 345.683594 267.445312 345.683594 285.203125 C 345.683594 297.316406 352.320312 308.1875 363.058594 313.765625 L 363.058594 314.988281 L 356.890625 314.988281 C 339.171875 314.988281 324.753906 329.40625 324.753906 347.132812 L 324.753906 391.242188 C 324.757812 391.910156 325.300781 392.453125 325.96875 392.453125 Z M 327.183594 347.132812 C 327.183594 330.746094 340.511719 317.414062 356.890625 317.414062 L 364.273438 317.414062 C 364.945312 317.414062 365.484375 316.871094 365.484375 316.203125 L 365.484375 313.019531 C 365.484375 312.558594 365.222656 312.136719 364.808594 311.929688 C 354.507812 306.878906 348.109375 296.636719 348.109375 285.207031 C 348.109375 268.785156 361.464844 255.425781 377.878906 255.425781 C 394.296875 255.425781 407.652344 268.785156 407.652344 285.207031 C 407.652344 297.378906 400.359375 308.207031 389.070312 312.792969 C 388.613281 312.980469 388.316406 313.425781 388.316406 313.917969 L 388.316406 316.203125 C 388.316406 316.875 388.855469 317.417969 389.527344 317.417969 L 396.910156 317.417969 C 413.289062 317.417969 426.617188 330.75 426.617188 347.136719 L 426.617188 390.03125 L 327.183594 390.03125 Z M 134.484375 430.292969 L 128.316406 430.292969 L 128.316406 430.027344 C 140.089844 424.894531 147.652344 413.398438 147.652344 400.511719 C 147.652344 382.75 133.210938 368.300781 115.457031 368.300781 C 97.703125 368.300781 83.261719 382.75 83.261719 400.511719 C 83.261719 412.621094 89.898438 423.496094 100.636719 429.070312 L 100.636719 430.292969 L 94.46875 430.292969 C 76.75 430.292969 62.332031 444.710938 62.332031 462.4375 L 62.332031 506.546875 C 62.332031 507.21875 62.875 507.761719 63.546875 507.761719 L 165.402344 507.761719 C 166.074219 507.761719 166.617188 507.21875 166.617188 506.546875 L 166.617188 462.4375 C 166.617188 444.710938 152.203125 430.292969 134.484375 430.292969 Z M 164.191406 505.332031 L 64.761719 505.332031 L 64.761719 462.4375 C 64.761719 446.050781 78.085938 432.71875 94.46875 432.71875 L 101.851562 432.71875 C 102.519531 432.71875 103.0625 432.175781 103.0625 431.503906 L 103.0625 428.324219 C 103.0625 427.863281 102.800781 427.4375 102.382812 427.234375 C 92.085938 422.183594 85.6875 411.941406 85.6875 400.511719 C 85.6875 384.085938 99.042969 370.726562 115.457031 370.726562 C 131.875 370.726562 145.230469 384.085938 145.230469 400.511719 C 145.230469 412.679688 137.9375 423.507812 126.648438 428.097656 C 126.191406 428.28125 125.890625 428.726562 125.890625 429.21875 L 125.890625 431.503906 C 125.890625 432.175781 126.433594 432.71875 127.105469 432.71875 L 134.484375 432.71875 C 150.867188 432.71875 164.191406 446.050781 164.191406 462.4375 Z M 458.035156 425 C 457.882812 424.558594 457.992188 424.074219 458.324219 423.742188 C 458.652344 423.414062 459.136719 423.300781 459.578125 423.453125 L 509.878906 440.875 C 510.371094 441.046875 510.699219 441.507812 510.695312 442.027344 C 510.691406 442.550781 510.359375 443.007812 509.867188 443.171875 L 485.734375 451.269531 C 485.097656 451.496094 484.410156 451.140625 484.199219 450.503906 C 484.101562 450.214844 484.128906 449.921875 484.238281 449.660156 C 484.285156 449.542969 484.355469 449.445312 484.433594 449.351562 C 484.464844 449.316406 484.484375 449.273438 484.519531 449.242188 C 484.644531 449.121094 484.789062 449.027344 484.960938 448.96875 L 505.722656 442.003906 L 461.144531 426.566406 L 477.742188 474.519531 C 477.839844 474.808594 477.816406 475.101562 477.710938 475.363281 C 477.632812 475.5625 477.503906 475.734375 477.328125 475.871094 C 477.292969 475.898438 477.253906 475.914062 477.214844 475.9375 C 477.140625 475.980469 477.078125 476.039062 476.992188 476.066406 C 476.863281 476.113281 476.726562 476.132812 476.597656 476.132812 C 476.34375 476.132812 476.097656 476.054688 475.898438 475.910156 C 475.695312 475.769531 475.535156 475.566406 475.449219 475.320312 Z M 533.609375 513.90625 C 542.664062 545.417969 530.9375 576.550781 530.820312 576.859375 C 530.636719 577.34375 530.175781 577.636719 529.6875 577.636719 C 529.542969 577.636719 529.398438 577.609375 529.25 577.558594 C 528.625 577.316406 528.316406 576.613281 528.554688 575.988281 C 528.671875 575.6875 540.101562 545.285156 531.277344 514.574219 C 522.457031 483.882812 502.410156 468.613281 502.207031 468.460938 C 501.671875 468.058594 501.5625 467.300781 501.960938 466.761719 C 502.363281 466.226562 503.125 466.113281 503.660156 466.515625 C 503.867188 466.671875 524.550781 482.390625 533.609375 513.90625 Z M 769.765625 452.035156 C 771.980469 446.542969 773.132812 439.898438 772.6875 432 C 770.707031 397.179688 742.339844 375.140625 734.320312 369.582031 L 741.628906 367.132812 L 748.863281 364.703125 L 756.105469 362.277344 C 756.597656 362.109375 756.929688 361.652344 756.929688 361.132812 C 756.933594 360.613281 756.605469 360.148438 756.117188 359.976562 L 705.816406 342.554688 C 705.375 342.40625 704.890625 342.519531 704.558594 342.847656 C 704.230469 343.175781 704.117188 343.660156 704.269531 344.101562 L 711.402344 364.703125 L 712.242188 367.132812 L 721.6875 394.417969 C 721.855469 394.90625 722.3125 395.234375 722.828125 395.234375 C 722.832031 395.234375 722.832031 395.234375 722.832031 395.234375 C 723.347656 395.234375 723.804688 394.910156 723.976562 394.425781 L 732.214844 371.078125 C 738.679688 375.421875 768.277344 397.164062 770.265625 432.136719 C 770.699219 439.839844 769.617188 446.011719 767.6875 450.941406 C 766 450.089844 764.296875 449.320312 762.585938 448.632812 C 747.136719 442.472656 735.511719 447.191406 730.246094 453.105469 C 726.167969 457.679688 725.203125 463.414062 727.714844 468.066406 C 730.273438 472.816406 738.917969 474.488281 747.8125 471.972656 C 755.859375 469.695312 764.070312 464.003906 768.78125 454.257812 C 787.65625 464.652344 803.585938 485.121094 800.042969 503.640625 C 798.875 509.746094 795.554688 514.527344 790.175781 517.863281 C 768.71875 531.152344 721.300781 518.113281 720.828125 517.980469 C 720.175781 517.796875 719.511719 518.179688 719.332031 518.820312 C 719.152344 519.464844 719.527344 520.136719 720.171875 520.316406 C 721.46875 520.679688 741.949219 526.316406 762.230469 526.316406 C 772.992188 526.316406 783.695312 524.726562 791.449219 519.925781 C 797.429688 516.21875 801.125 510.894531 802.425781 504.097656 C 806.183594 484.457031 789.5 462.863281 769.765625 452.035156 Z M 747.148438 469.636719 C 739.445312 471.8125 731.847656 470.621094 729.847656 466.914062 C 727.835938 463.183594 728.683594 458.511719 732.058594 454.71875 C 735.195312 451.195312 740.894531 448.164062 748.527344 448.164062 C 752.433594 448.164062 756.851562 448.960938 761.6875 450.890625 C 763.375 451.5625 765.058594 452.324219 766.71875 453.167969 C 761.253906 464.59375 751.140625 468.507812 747.148438 469.636719 Z M 747.148438 469.636719 " fill-opacity="1" fill-rule="nonzero"></path></g></svg>