<svg xmlns="http://www.w3.org/2000/svg" xmlns:xlink="http://www.w3.org/1999/xlink" width="1080" viewBox="0 0 810 809.999993" height="1080" preserveAspectRatio="xMidYMid meet"><defs><clipPath id="83b81dab3d"><path d="M 1 436 L 237 436 L 237 804.730469 L 1 804.730469 Z M 1 436 " clip-rule="nonzero"></path></clipPath><clipPath id="dbc021d017"><path d="M 339 5.230469 L 401 5.230469 L 401 66 L 339 66 Z M 339 5.230469 " clip-rule="nonzero"></path></clipPath></defs><rect x="-81" width="972" fill="#ffffff" y="-80.999999" height="971.999992" fill-opacity="1"></rect><rect x="-81" width="972" fill="#ffffff" y="-80.999999" height="971.999992" fill-opacity="1"></rect><path stroke-linecap="butt" transform="matrix(2.402449, 0, 0, 2.402344, -195.011749, -195.60454)" fill="none" stroke-linejoin="miter" d="M 415.38988 166.700435 C 415.38988 167.302061 415.375247 167.902061 415.34598 168.503687 C 415.316713 169.105313 415.271186 169.703687 415.212652 170.303687 C 415.154118 170.902061 415.080951 171.498809 414.991524 172.093931 C 414.903723 172.689053 414.801288 173.280923 414.68422 173.871167 C 414.565526 174.461411 414.433825 175.048403 414.289116 175.632143 C 414.142781 176.215883 413.981812 176.794745 413.807836 177.370354 C 413.632234 177.945964 413.443625 178.518322 413.240381 179.084176 C 413.038764 179.650029 412.822514 180.211005 412.591629 180.767103 C 412.360745 181.3232 412.11848 181.872794 411.859954 182.417509 C 411.603055 182.960599 411.333148 183.497184 411.048608 184.028891 C 410.765693 184.558973 410.469772 185.08255 410.159216 185.597997 C 409.850287 186.11507 409.52835 186.622387 409.195031 187.1232 C 408.860086 187.622387 408.51376 188.11507 408.156052 188.597997 C 407.796718 189.080924 407.427629 189.555721 407.045532 190.020762 C 406.663435 190.485802 406.271582 190.941087 405.866722 191.386615 C 405.463488 191.832144 405.048872 192.267916 404.622874 192.693932 C 404.198503 193.118323 403.762749 193.532957 403.31724 193.937835 C 402.870106 194.341087 402.414841 194.734583 401.949821 195.115071 C 401.484801 195.497185 401.011651 195.867916 400.527119 196.22564 C 400.044214 196.58499 399.553178 196.931331 399.052387 197.264664 C 398.553222 197.599624 398.044302 197.921575 397.528877 198.230518 C 397.011827 198.539461 396.488272 198.835396 395.958214 199.119949 C 395.428156 199.402876 394.889969 199.672795 394.346903 199.931331 C 393.803838 200.188242 393.252642 200.432144 392.698195 200.661413 C 392.142122 200.892307 391.581171 201.108567 391.013716 201.311819 C 390.447888 201.513445 389.877181 201.702063 389.301596 201.877673 C 388.724386 202.051656 388.14555 202.212632 387.561836 202.358974 C 386.978121 202.503689 386.391155 202.637022 385.800937 202.754096 C 385.210719 202.871169 384.618876 202.973608 384.02378 203.061413 C 383.428684 203.150844 382.831962 203.224014 382.233615 203.282551 C 381.633641 203.342713 381.035293 203.386616 380.433694 203.415884 C 379.832094 203.445152 379.23212 203.459787 378.630521 203.459787 C 378.028921 203.459787 377.427322 203.445152 376.825722 203.415884 C 376.225749 203.386616 375.625775 203.342713 375.027427 203.282551 C 374.427454 203.224014 373.830732 203.150844 373.235636 203.061413 C 372.64054 202.973608 372.048696 202.871169 371.458478 202.754096 C 370.868261 202.637022 370.281294 202.503689 369.69758 202.358974 C 369.113866 202.212632 368.53503 202.051656 367.959445 201.877673 C 367.383861 201.702063 366.811528 201.513445 366.2457 201.311819 C 365.679871 201.108567 365.11892 200.892307 364.562847 200.661413 C 364.006774 200.432144 363.457204 200.188242 362.912513 199.931331 C 362.369447 199.672795 361.831259 199.402876 361.301201 199.119949 C 360.771143 198.835396 360.247589 198.539461 359.732165 198.230518 C 359.215114 197.921575 358.70782 197.599624 358.207029 197.264664 C 357.706238 196.931331 357.215202 196.58499 356.732297 196.22564 C 356.249391 195.867916 355.774615 195.497185 355.309595 195.115071 C 354.844575 194.734583 354.38931 194.341087 353.943801 193.937835 C 353.498292 193.532957 353.062539 193.118323 352.636542 192.693932 C 352.210544 192.267916 351.795928 191.832144 351.392694 191.386615 C 350.987834 190.941087 350.595981 190.485802 350.213884 190.020762 C 349.831787 189.555721 349.462698 189.080924 349.103364 188.597997 C 348.745656 188.11507 348.39933 187.622387 348.064385 187.1232 C 347.731066 186.622387 347.409129 186.11507 347.1002 185.597997 C 346.79127 185.08255 346.493722 184.558973 346.210808 184.028891 C 345.926268 183.497184 345.656361 182.960599 345.399462 182.417509 C 345.142562 181.872794 344.898671 181.3232 344.667786 180.767103 C 344.438528 180.211005 344.222278 179.650029 344.019034 179.084176 C 343.815791 178.518322 343.627182 177.945964 343.453206 177.370354 C 343.277604 176.794745 343.118261 176.215883 342.971926 175.632143 C 342.825591 175.048403 342.693889 174.461411 342.576821 173.871167 C 342.458127 173.280923 342.355693 172.689053 342.267892 172.093931 C 342.180091 171.498809 342.105297 170.902061 342.046763 170.303687 C 341.988229 169.703687 341.944329 169.105313 341.915062 168.503687 C 341.884169 167.902061 341.869535 167.302061 341.869535 166.700435 C 341.869535 166.098809 341.884169 165.497183 341.915062 164.895557 C 341.944329 164.295557 341.988229 163.695557 342.046763 163.097183 C 342.105297 162.498809 342.180091 161.902061 342.267892 161.306939 C 342.355693 160.711817 342.458127 160.118321 342.576821 159.528077 C 342.693889 158.937833 342.825591 158.350841 342.971926 157.768727 C 343.118261 157.184987 343.277604 156.6045 343.453206 156.02889 C 343.627182 155.45328 343.815791 154.882548 344.019034 154.316695 C 344.220652 153.749215 344.438528 153.188239 344.667786 152.632142 C 344.898671 152.076044 345.142562 151.526451 345.399462 150.983361 C 345.656361 150.438646 345.926268 149.90206 346.210808 149.371979 C 346.493722 148.840272 346.79127 148.31832 347.1002 147.801247 C 347.409129 147.2858 347.731066 146.776857 348.064385 146.27767 C 348.39933 145.776857 348.745656 145.2858 349.103364 144.802873 C 349.462698 144.31832 349.831787 143.845149 350.213884 143.380109 C 350.595981 142.915068 350.987834 142.459783 351.392694 142.014255 C 351.795928 141.5671 352.210544 141.132954 352.636542 140.706938 C 353.062539 140.280922 353.498292 139.866287 353.943801 139.463035 C 354.38931 139.058157 354.844575 138.666287 355.309595 138.284173 C 355.774615 137.90206 356.249391 137.532954 356.732297 137.173604 C 357.215202 136.815881 357.706238 136.469539 358.207029 136.13458 C 358.70782 135.801246 359.215114 135.479295 359.732165 135.170352 C 360.247589 134.859783 360.771143 134.563848 361.301201 134.280921 C 361.831259 133.996368 362.369447 133.72645 362.912513 133.469539 C 363.457204 133.212628 364.006774 132.968726 364.562847 132.737832 C 365.11892 132.508563 365.679871 132.292303 366.2457 132.089051 C 366.811528 131.885799 367.383861 131.697181 367.959445 131.523197 C 368.53503 131.347588 369.113866 131.188238 369.69758 131.041897 C 370.281294 130.895555 370.868261 130.763848 371.458478 130.646775 C 372.048696 130.529701 372.64054 130.425636 373.235636 130.337832 C 373.830732 130.250027 374.427454 130.17523 375.027427 130.116693 C 375.625775 130.058157 376.225749 130.014254 376.825722 129.984986 C 377.427322 129.954092 378.028921 129.939458 378.630521 129.939458 C 379.23212 129.939458 379.832094 129.954092 380.433694 129.984986 C 381.035293 130.014254 381.633641 130.058157 382.233615 130.116693 C 382.831962 130.17523 383.428684 130.250027 384.02378 130.337832 C 384.618876 130.425636 385.210719 130.529701 385.800937 130.646775 C 386.391155 130.763848 386.978121 130.895555 387.561836 131.041897 C 388.14555 131.188238 388.724386 131.347588 389.301596 131.523197 C 389.877181 131.697181 390.447888 131.885799 391.013716 132.089051 C 391.581171 132.292303 392.142122 132.508563 392.696569 132.737832 C 393.252642 132.968726 393.802212 133.212628 394.346903 133.469539 C 394.889969 133.72645 395.428156 133.996368 395.958214 134.280921 C 396.488272 134.563848 397.011827 134.859783 397.528877 135.170352 C 398.044302 135.479295 398.553222 135.801246 399.052387 136.13458 C 399.553178 136.469539 400.044214 136.815881 400.527119 137.173604 C 401.011651 137.532954 401.484801 137.90206 401.949821 138.284173 C 402.414841 138.666287 402.870106 139.058157 403.31724 139.463035 C 403.762749 139.866287 404.198503 140.280922 404.622874 140.706938 C 405.048872 141.132954 405.463488 141.5671 405.866722 142.014255 C 406.271582 142.459783 406.663435 142.915068 407.045532 143.380109 C 407.427629 143.845149 407.796718 144.31832 408.156052 144.802873 C 408.51376 145.2858 408.860086 145.776857 409.195031 146.27767 C 409.52835 146.776857 409.850287 147.2858 410.160842 147.801247 C 410.469772 148.31832 410.765693 148.840272 411.048608 149.371979 C 411.333148 149.90206 411.603055 150.438646 411.859954 150.983361 C 412.11848 151.526451 412.360745 152.076044 412.591629 152.632142 C 412.822514 153.188239 413.038764 153.749215 413.240381 154.316695 C 413.443625 154.882548 413.632234 155.45328 413.807836 156.02889 C 413.981812 156.6045 414.142781 157.184987 414.289116 157.768727 C 414.433825 158.350841 414.565526 158.937833 414.68422 159.528077 C 414.801288 160.118321 414.903723 160.711817 414.991524 161.306939 C 415.080951 161.902061 415.154118 162.498809 415.212652 163.097183 C 415.271186 163.695557 415.316713 164.295557 415.34598 164.895557 C 415.375247 165.497183 415.38988 166.098809 415.38988 166.700435 Z M 415.38988 166.700435 " stroke="#e8ebfc" stroke-width="2.236" stroke-opacity="1" stroke-miterlimit="10"></path><path stroke-linecap="butt" transform="matrix(2.402449, 0, 0, 2.402344, -195.011749, -195.60454)" fill="none" stroke-linejoin="miter" d="M 400.000313 166.700435 C 400.000313 167.302061 399.992183 167.902061 399.974298 168.503687 C 399.956413 169.105313 399.932023 169.703687 399.897879 170.303687 C 399.862108 170.902061 399.819833 171.498809 399.769429 172.093931 C 399.717399 172.689053 399.657239 173.280923 399.588949 173.871167 C 399.520659 174.461411 399.44424 175.048403 399.359691 175.632143 C 399.275142 176.215883 399.180837 176.794745 399.080028 177.370354 C 398.977594 177.945964 398.868656 178.518322 398.749962 179.084176 C 398.632894 179.650029 398.507696 180.211005 398.372742 180.767103 C 398.239415 181.3232 398.097958 181.872794 397.948371 182.417509 C 397.798784 182.960599 397.641067 183.497184 397.476847 184.028891 C 397.311 184.558973 397.13865 185.08255 396.959796 185.597997 C 396.779317 186.11507 396.592333 186.622387 396.398845 187.1232 C 396.203732 187.622387 396.002115 188.11507 395.793994 188.597997 C 395.585873 189.080924 395.371248 189.555721 395.148494 190.020762 C 394.927365 190.485802 394.699733 190.941087 394.463971 191.386615 C 394.229835 191.832144 393.987569 192.267916 393.740426 192.693932 C 393.493282 193.118323 393.239635 193.532957 392.98111 193.937835 C 392.722584 194.341087 392.457555 194.734583 392.187648 195.115071 C 391.916116 195.497185 391.641331 195.867916 391.360043 196.22564 C 391.078754 196.58499 390.792588 196.931331 390.50317 197.264664 C 390.212126 197.599624 389.916204 197.921575 389.61703 198.230518 C 389.31623 198.539461 389.012178 198.835396 388.703249 199.119949 C 388.395945 199.402876 388.082138 199.672795 387.766705 199.931331 C 387.451271 200.188242 387.13096 200.432144 386.807397 200.661413 C 386.48546 200.892307 386.158645 201.108567 385.828578 201.311819 C 385.500138 201.513445 385.168445 201.702063 384.8335 201.877673 C 384.498556 202.051656 384.161985 202.212632 383.822163 202.358974 C 383.483966 202.503689 383.142518 202.637022 382.799443 202.754096 C 382.456369 202.871169 382.111669 202.973608 381.765342 203.061413 C 381.419016 203.150844 381.07269 203.224014 380.724738 203.282551 C 380.376786 203.342713 380.027207 203.386616 379.679255 203.415884 C 379.329677 203.445152 378.980099 203.459787 378.630521 203.459787 C 378.280943 203.459787 377.931365 203.445152 377.581787 203.415884 C 377.232208 203.386616 376.88263 203.342713 376.534678 203.282551 C 376.186726 203.224014 375.8404 203.150844 375.494073 203.061413 C 375.147747 202.973608 374.804673 202.871169 374.461599 202.754096 C 374.118524 202.637022 373.777076 202.503689 373.437253 202.358974 C 373.097431 202.212632 372.76086 202.051656 372.425916 201.877673 C 372.092597 201.702063 371.759278 201.513445 371.430837 201.311819 C 371.100771 201.108567 370.775582 200.892307 370.452019 200.661413 C 370.128456 200.432144 369.80977 200.188242 369.492711 199.931331 C 369.177278 199.672795 368.865097 199.402876 368.556167 199.119949 C 368.247238 198.835396 367.943186 198.539461 367.644012 198.230518 C 367.343212 197.921575 367.048916 197.599624 366.757872 197.264664 C 366.466828 196.931331 366.180662 196.58499 365.899373 196.22564 C 365.619711 195.867916 365.3433 195.497185 365.073393 195.115071 C 364.801861 194.734583 364.538458 194.341087 364.278306 193.937835 C 364.019781 193.532957 363.766134 193.118323 363.51899 192.693932 C 363.271847 192.267916 363.031207 191.832144 362.795445 191.386615 C 362.561309 190.941087 362.33205 190.485802 362.110922 190.020762 C 361.888168 189.555721 361.673543 189.080924 361.465422 188.597997 C 361.257301 188.11507 361.055684 187.622387 360.862196 187.1232 C 360.667083 186.622387 360.480099 186.11507 360.299619 185.597997 C 360.120766 185.08255 359.948415 184.558973 359.782569 184.028891 C 359.618349 183.497184 359.460632 182.960599 359.311045 182.417509 C 359.161458 181.872794 359.020001 181.3232 358.886673 180.767103 C 358.753346 180.211005 358.626522 179.650029 358.509454 179.084176 C 358.39076 178.518322 358.281822 177.945964 358.179388 177.370354 C 358.078579 176.794745 357.9859 176.215883 357.899725 175.632143 C 357.815176 175.048403 357.738756 174.461411 357.670467 173.871167 C 357.602177 173.280923 357.542017 172.689053 357.491613 172.093931 C 357.439583 171.498809 357.397308 170.902061 357.363163 170.303687 C 357.329018 169.703687 357.303003 169.105313 357.285118 168.503687 C 357.268858 167.902061 357.260729 167.302061 357.260729 166.700435 C 357.260729 166.098809 357.268858 165.497183 357.285118 164.895557 C 357.303003 164.295557 357.329018 163.695557 357.363163 163.097183 C 357.397308 162.498809 357.439583 161.902061 357.491613 161.306939 C 357.542017 160.711817 357.602177 160.118321 357.670467 159.528077 C 357.738756 158.937833 357.815176 158.350841 357.899725 157.768727 C 357.9859 157.184987 358.078579 156.6045 358.179388 156.02889 C 358.281822 155.45328 358.39076 154.882548 358.509454 154.316695 C 358.626522 153.749215 358.753346 153.188239 358.886673 152.632142 C 359.020001 152.076044 359.161458 151.526451 359.311045 150.983361 C 359.460632 150.438646 359.618349 149.90206 359.782569 149.371979 C 359.948415 148.840272 360.120766 148.31832 360.299619 147.801247 C 360.480099 147.2858 360.667083 146.776857 360.862196 146.27767 C 361.055684 145.776857 361.257301 145.2858 361.465422 144.802873 C 361.673543 144.31832 361.888168 143.845149 362.110922 143.380109 C 362.33205 142.915068 362.561309 142.459783 362.795445 142.014255 C 363.031207 141.5671 363.271847 141.132954 363.51899 140.706938 C 363.766134 140.280922 364.019781 139.866287 364.278306 139.463035 C 364.538458 139.058157 364.801861 138.666287 365.073393 138.284173 C 365.3433 137.90206 365.619711 137.532954 365.899373 137.173604 C 366.180662 136.815881 366.466828 136.469539 366.757872 136.13458 C 367.048916 135.801246 367.343212 135.479295 367.644012 135.170352 C 367.943186 134.859783 368.247238 134.563848 368.556167 134.280921 C 368.865097 133.996368 369.177278 133.72645 369.492711 133.469539 C 369.80977 133.212628 370.128456 132.968726 370.452019 132.737832 C 370.775582 132.508563 371.100771 132.292303 371.430837 132.089051 C 371.759278 131.885799 372.092597 131.697181 372.425916 131.523197 C 372.76086 131.347588 373.097431 131.188238 373.437253 131.041897 C 373.777076 130.895555 374.118524 130.763848 374.461599 130.646775 C 374.804673 130.529701 375.147747 130.425636 375.494073 130.337832 C 375.8404 130.250027 376.186726 130.17523 376.534678 130.116693 C 376.884256 130.058157 377.232208 130.014254 377.581787 129.984986 C 377.931365 129.954092 378.280943 129.939458 378.630521 129.939458 C 378.980099 129.939458 379.329677 129.954092 379.679255 129.984986 C 380.027207 130.014254 380.376786 130.058157 380.724738 130.116693 C 381.07269 130.17523 381.419016 130.250027 381.765342 130.337832 C 382.111669 130.425636 382.456369 130.529701 382.799443 130.646775 C 383.142518 130.763848 383.483966 130.895555 383.822163 131.041897 C 384.161985 131.188238 384.498556 131.347588 384.8335 131.523197 C 385.168445 131.697181 385.500138 131.885799 385.828578 132.089051 C 386.158645 132.292303 386.48546 132.508563 386.807397 132.737832 C 387.13096 132.968726 387.451271 133.212628 387.766705 133.469539 C 388.082138 133.72645 388.395945 133.996368 388.703249 134.280921 C 389.012178 134.563848 389.31623 134.859783 389.61703 135.170352 C 389.916204 135.479295 390.212126 135.801246 390.50317 136.13458 C 390.792588 136.469539 391.078754 136.815881 391.360043 137.173604 C 391.641331 137.532954 391.916116 137.90206 392.187648 138.284173 C 392.457555 138.666287 392.722584 139.058157 392.98111 139.463035 C 393.239635 139.866287 393.493282 140.280922 393.740426 140.706938 C 393.987569 141.132954 394.229835 141.5671 394.463971 142.014255 C 394.699733 142.459783 394.927365 142.915068 395.148494 143.380109 C 395.371248 143.845149 395.585873 144.31832 395.793994 144.802873 C 396.002115 145.2858 396.203732 145.776857 396.398845 146.27767 C 396.592333 146.776857 396.779317 147.2858 396.959796 147.801247 C 397.13865 148.31832 397.311 148.840272 397.476847 149.371979 C 397.641067 149.90206 397.798784 150.438646 397.948371 150.983361 C 398.097958 151.526451 398.239415 152.076044 398.372742 152.632142 C 398.507696 153.188239 398.632894 153.749215 398.749962 154.316695 C 398.868656 154.882548 398.977594 155.45328 399.080028 156.02889 C 399.180837 156.6045 399.275142 157.184987 399.359691 157.768727 C 399.44424 158.350841 399.520659 158.937833 399.588949 159.528077 C 399.657239 160.118321 399.717399 160.711817 399.769429 161.306939 C 399.819833 161.902061 399.862108 162.498809 399.897879 163.097183 C 399.932023 163.695557 399.956413 164.295557 399.974298 164.895557 C 399.992183 165.497183 400.000313 166.098809 400.000313 166.700435 Z M 400.000313 166.700435 " stroke="#e8ebfc" stroke-width="2.236" stroke-opacity="1" stroke-miterlimit="10"></path><path stroke-linecap="butt" transform="matrix(2.402449, 0, 0, 2.402344, -195.011749, -195.60454)" fill="none" stroke-linejoin="miter" d="M 378.630521 129.939458 L 378.630521 203.469543 " stroke="#e8ebfc" stroke-width="2.236" stroke-opacity="1" stroke-miterlimit="10"></path><path stroke-linecap="butt" transform="matrix(2.402449, 0, 0, 2.402344, -195.011749, -195.60454)" fill="none" stroke-linejoin="miter" d="M 346.669324 147.479296 C 346.669324 147.479296 380.069482 147.479296 410.100682 147.479296 " stroke="#e8ebfc" stroke-width="2.236" stroke-opacity="1" stroke-miterlimit="10"></path><path stroke-linecap="butt" transform="matrix(2.402449, 0, 0, 2.402344, -195.011749, -195.60454)" fill="none" stroke-linejoin="miter" d="M 346.669324 185.45003 C 346.669324 185.45003 380.069482 185.45003 410.100682 185.45003 " stroke="#e8ebfc" stroke-width="2.236" stroke-opacity="1" stroke-miterlimit="10"></path><path stroke-linecap="butt" transform="matrix(2.402449, 0, 0, 2.402344, -195.011749, -195.60454)" fill="none" stroke-linejoin="miter" d="M 341.85978 166.700435 L 415.38988 166.700435 " stroke="#e8ebfc" stroke-width="2.236" stroke-opacity="1" stroke-miterlimit="10"></path><path fill="#e8ebfc" d="M 218.546875 332.140625 L 14.816406 332.140625 C 9.386719 332.140625 5.015625 336.515625 5.015625 341.945312 L 5.015625 626.238281 C 5.015625 631.640625 9.386719 636.039062 14.816406 636.039062 L 218.523438 636.039062 C 223.925781 636.039062 228.324219 631.640625 228.324219 626.238281 L 228.324219 341.945312 C 228.324219 336.515625 223.925781 332.140625 218.546875 332.140625 Z M 226.640625 626.238281 C 226.640625 630.679688 222.992188 634.332031 218.546875 634.332031 L 14.816406 634.332031 C 10.351562 634.332031 6.699219 630.679688 6.699219 626.238281 L 6.699219 341.945312 C 6.699219 337.476562 10.351562 333.847656 14.816406 333.847656 L 218.523438 333.847656 C 222.992188 333.847656 226.617188 337.476562 226.617188 341.945312 L 226.617188 626.238281 Z M 226.640625 626.238281 " fill-opacity="1" fill-rule="nonzero"></path><path fill="#e8ebfc" d="M 218.546875 332.140625 L 14.816406 332.140625 C 9.386719 332.140625 5.015625 336.515625 5.015625 341.945312 L 5.015625 369.980469 L 228.300781 369.980469 L 228.300781 341.945312 C 228.324219 336.515625 223.925781 332.140625 218.546875 332.140625 Z M 152.550781 355.734375 C 149.980469 355.734375 147.890625 353.644531 147.890625 351.074219 C 147.890625 348.476562 149.980469 346.386719 152.550781 346.386719 C 155.144531 346.386719 157.234375 348.476562 157.234375 351.074219 C 157.234375 353.644531 155.144531 355.734375 152.550781 355.734375 Z M 177.558594 355.734375 C 174.988281 355.734375 172.898438 353.644531 172.898438 351.074219 C 172.898438 348.476562 174.988281 346.386719 177.558594 346.386719 C 180.15625 346.386719 182.246094 348.476562 182.246094 351.074219 C 182.246094 353.644531 180.15625 355.734375 177.558594 355.734375 Z M 202.570312 355.734375 C 199.976562 355.734375 197.886719 353.644531 197.886719 351.074219 C 197.886719 348.476562 199.976562 346.386719 202.570312 346.386719 C 205.140625 346.386719 207.230469 348.476562 207.230469 351.074219 C 207.253906 353.644531 205.140625 355.734375 202.570312 355.734375 Z M 202.570312 355.734375 " fill-opacity="1" fill-rule="nonzero"></path><path fill="#e8ebfc" d="M 48.09375 407.816406 L 185.246094 407.816406 L 185.246094 414.949219 L 48.09375 414.949219 Z M 48.09375 407.816406 " fill-opacity="1" fill-rule="nonzero"></path><path fill="#e8ebfc" d="M 48.09375 437.871094 L 185.246094 437.871094 L 185.246094 445.003906 L 48.09375 445.003906 Z M 48.09375 437.871094 " fill-opacity="1" fill-rule="nonzero"></path><path fill="#e8ebfc" d="M 48.09375 467.921875 L 185.246094 467.921875 L 185.246094 475.058594 L 48.09375 475.058594 Z M 48.09375 467.921875 " fill-opacity="1" fill-rule="nonzero"></path><path stroke-linecap="butt" transform="matrix(2.402449, 0, 0, 2.402344, -195.011749, -195.60454)" fill-opacity="1" fill="#ffffff" fill-rule="nonzero" stroke-linejoin="miter" d="M 387.909788 369.719958 L 200.509897 369.719958 C 195.539383 369.719958 191.500537 365.69069 191.500537 360.710201 L 191.500537 179.910192 C 191.500537 174.93946 195.529628 170.900435 200.509897 170.900435 L 387.909788 170.900435 C 392.880301 170.900435 396.920774 174.929704 396.920774 179.910192 L 396.920774 360.710201 C 396.920774 365.69069 392.890057 369.719958 387.909788 369.719958 Z M 387.909788 369.719958 " stroke="#263156" stroke-width="1.966" stroke-opacity="1" stroke-miterlimit="10"></path><path fill="#e8ebfc" d="M 710.519531 672.480469 L 313.128906 672.480469 C 302.390625 672.480469 293.695312 663.785156 293.695312 653.046875 L 293.695312 487.839844 C 293.695312 477.101562 302.390625 468.402344 313.128906 468.402344 L 710.519531 468.402344 C 721.257812 468.402344 729.957031 477.101562 729.957031 487.839844 L 729.957031 653.046875 C 729.957031 663.761719 721.257812 672.480469 710.519531 672.480469 Z M 710.519531 672.480469 " fill-opacity="1" fill-rule="nonzero"></path><path fill="#263156" d="M 758.570312 298.605469 L 265.082031 298.605469 L 265.082031 236.625 C 265.082031 224.683594 274.761719 214.980469 286.726562 214.980469 L 736.945312 214.980469 C 748.886719 214.980469 758.59375 224.660156 758.59375 236.625 L 758.59375 298.605469 Z M 758.570312 298.605469 " fill-opacity="1" fill-rule="nonzero"></path><path fill="#ffffff" d="M 656.730469 256.78125 C 656.730469 257.460938 656.664062 258.128906 656.53125 258.796875 C 656.398438 259.460938 656.203125 260.105469 655.941406 260.734375 C 655.683594 261.359375 655.363281 261.957031 654.988281 262.519531 C 654.609375 263.082031 654.183594 263.605469 653.703125 264.085938 C 653.222656 264.566406 652.703125 264.992188 652.136719 265.371094 C 651.574219 265.746094 650.976562 266.066406 650.351562 266.324219 C 649.726562 266.585938 649.078125 266.78125 648.414062 266.914062 C 647.75 267.042969 647.078125 267.109375 646.398438 267.109375 C 645.71875 267.109375 645.046875 267.042969 644.382812 266.914062 C 643.71875 266.78125 643.070312 266.585938 642.445312 266.324219 C 641.816406 266.066406 641.222656 265.746094 640.660156 265.371094 C 640.09375 264.992188 639.574219 264.566406 639.09375 264.085938 C 638.613281 263.605469 638.183594 263.082031 637.808594 262.519531 C 637.433594 261.957031 637.113281 261.359375 636.855469 260.734375 C 636.59375 260.105469 636.398438 259.460938 636.265625 258.796875 C 636.132812 258.128906 636.066406 257.460938 636.066406 256.78125 C 636.066406 256.101562 636.132812 255.429688 636.265625 254.765625 C 636.398438 254.101562 636.59375 253.453125 636.855469 252.828125 C 637.113281 252.199219 637.433594 251.605469 637.808594 251.042969 C 638.183594 250.476562 638.613281 249.957031 639.09375 249.476562 C 639.574219 248.996094 640.09375 248.570312 640.660156 248.191406 C 641.222656 247.816406 641.816406 247.496094 642.445312 247.238281 C 643.070312 246.976562 643.71875 246.78125 644.382812 246.648438 C 645.046875 246.515625 645.71875 246.449219 646.398438 246.449219 C 647.078125 246.449219 647.75 246.515625 648.414062 246.648438 C 649.078125 246.78125 649.726562 246.976562 650.351562 247.238281 C 650.976562 247.496094 651.574219 247.816406 652.136719 248.191406 C 652.703125 248.570312 653.222656 248.996094 653.703125 249.476562 C 654.183594 249.957031 654.609375 250.476562 654.988281 251.042969 C 655.363281 251.605469 655.683594 252.199219 655.941406 252.828125 C 656.203125 253.453125 656.398438 254.101562 656.53125 254.765625 C 656.664062 255.429688 656.730469 256.101562 656.730469 256.78125 Z M 656.730469 256.78125 " fill-opacity="1" fill-rule="nonzero"></path><path fill="#ffffff" d="M 601.449219 256.78125 C 601.449219 257.460938 601.382812 258.128906 601.25 258.796875 C 601.117188 259.460938 600.921875 260.105469 600.660156 260.734375 C 600.402344 261.359375 600.082031 261.957031 599.707031 262.519531 C 599.332031 263.082031 598.902344 263.605469 598.421875 264.085938 C 597.941406 264.566406 597.421875 264.992188 596.855469 265.371094 C 596.292969 265.746094 595.699219 266.066406 595.070312 266.324219 C 594.445312 266.585938 593.796875 266.78125 593.132812 266.914062 C 592.46875 267.042969 591.796875 267.109375 591.117188 267.109375 C 590.441406 267.109375 589.769531 267.042969 589.101562 266.914062 C 588.4375 266.78125 587.792969 266.585938 587.164062 266.324219 C 586.539062 266.066406 585.941406 265.746094 585.378906 265.371094 C 584.8125 264.992188 584.292969 264.566406 583.8125 264.085938 C 583.332031 263.605469 582.90625 263.082031 582.527344 262.519531 C 582.152344 261.957031 581.832031 261.359375 581.574219 260.734375 C 581.3125 260.105469 581.117188 259.460938 580.984375 258.796875 C 580.851562 258.128906 580.789062 257.460938 580.789062 256.78125 C 580.789062 256.101562 580.851562 255.429688 580.984375 254.765625 C 581.117188 254.101562 581.3125 253.453125 581.574219 252.828125 C 581.832031 252.199219 582.152344 251.605469 582.527344 251.042969 C 582.90625 250.476562 583.332031 249.957031 583.8125 249.476562 C 584.292969 248.996094 584.8125 248.570312 585.378906 248.191406 C 585.941406 247.816406 586.539062 247.496094 587.164062 247.238281 C 587.792969 246.976562 588.4375 246.78125 589.101562 246.648438 C 589.769531 246.515625 590.441406 246.449219 591.117188 246.449219 C 591.796875 246.449219 592.46875 246.515625 593.132812 246.648438 C 593.796875 246.78125 594.445312 246.976562 595.070312 247.238281 C 595.699219 247.496094 596.292969 247.816406 596.855469 248.191406 C 597.421875 248.570312 597.941406 248.996094 598.421875 249.476562 C 598.902344 249.957031 599.332031 250.476562 599.707031 251.042969 C 600.082031 251.605469 600.402344 252.199219 600.660156 252.828125 C 600.921875 253.453125 601.117188 254.101562 601.25 254.765625 C 601.382812 255.429688 601.449219 256.101562 601.449219 256.78125 Z M 601.449219 256.78125 " fill-opacity="1" fill-rule="nonzero"></path><path fill="#ffffff" d="M 711.984375 256.78125 C 711.984375 257.460938 711.917969 258.128906 711.785156 258.796875 C 711.652344 259.460938 711.457031 260.105469 711.199219 260.734375 C 710.9375 261.359375 710.621094 261.957031 710.242188 262.519531 C 709.867188 263.082031 709.4375 263.605469 708.960938 264.085938 C 708.480469 264.566406 707.957031 264.992188 707.394531 265.371094 C 706.828125 265.746094 706.234375 266.066406 705.609375 266.324219 C 704.980469 266.585938 704.335938 266.78125 703.667969 266.914062 C 703.003906 267.042969 702.332031 267.109375 701.65625 267.109375 C 700.976562 267.109375 700.304688 267.042969 699.640625 266.914062 C 698.972656 266.78125 698.328125 266.585938 697.699219 266.324219 C 697.074219 266.066406 696.480469 265.746094 695.914062 265.371094 C 695.351562 264.992188 694.828125 264.566406 694.351562 264.085938 C 693.871094 263.605469 693.441406 263.082031 693.066406 262.519531 C 692.6875 261.957031 692.371094 261.359375 692.109375 260.734375 C 691.851562 260.105469 691.65625 259.460938 691.523438 258.796875 C 691.390625 258.128906 691.324219 257.460938 691.324219 256.78125 C 691.324219 256.101562 691.390625 255.429688 691.523438 254.765625 C 691.65625 254.101562 691.851562 253.453125 692.109375 252.828125 C 692.371094 252.199219 692.6875 251.605469 693.066406 251.042969 C 693.441406 250.476562 693.871094 249.957031 694.351562 249.476562 C 694.828125 248.996094 695.351562 248.570312 695.914062 248.191406 C 696.480469 247.816406 697.074219 247.496094 697.699219 247.238281 C 698.328125 246.976562 698.972656 246.78125 699.640625 246.648438 C 700.304688 246.515625 700.976562 246.449219 701.65625 246.449219 C 702.332031 246.449219 703.003906 246.515625 703.667969 246.648438 C 704.335938 246.78125 704.980469 246.976562 705.609375 247.238281 C 706.234375 247.496094 706.828125 247.816406 707.394531 248.191406 C 707.957031 248.570312 708.480469 248.996094 708.960938 249.476562 C 709.4375 249.957031 709.867188 250.476562 710.242188 251.042969 C 710.621094 251.605469 710.9375 252.199219 711.199219 252.828125 C 711.457031 253.453125 711.652344 254.101562 711.785156 254.765625 C 711.917969 255.429688 711.984375 256.101562 711.984375 256.78125 Z M 711.984375 256.78125 " fill-opacity="1" fill-rule="nonzero"></path><path fill="#6066f1" d="M 376.097656 588.519531 L 433.132812 588.519531 L 433.132812 647.808594 L 376.097656 647.808594 Z M 376.097656 588.519531 " fill-opacity="1" fill-rule="nonzero"></path><path fill="#d05b71" d="M 483.296875 539.535156 L 540.328125 539.535156 L 540.328125 647.785156 L 483.296875 647.785156 Z M 483.296875 539.535156 " fill-opacity="1" fill-rule="nonzero"></path><path fill="#263156" d="M 590.515625 491.730469 L 647.550781 491.730469 L 647.550781 647.785156 L 590.515625 647.785156 Z M 590.515625 491.730469 " fill-opacity="1" fill-rule="nonzero"></path><path fill="#8b92f7" d="M 323.675781 610.359375 C 492.28125 516.160156 572.164062 365.992188 572.164062 365.992188 L 614.132812 407.960938 C 614.132812 407.960938 508.664062 548.234375 325.71875 609.683594 Z M 323.675781 610.359375 " fill-opacity="1" fill-rule="nonzero"></path><path fill="#8b92f7" d="M 645.246094 319.195312 L 631.695312 434.675781 L 538.457031 365.199219 Z M 645.246094 319.195312 " fill-opacity="1" fill-rule="nonzero"></path><path fill="#e4b8af" d="M 78.554688 457.230469 L 158.894531 466.144531 L 152.550781 420.09375 C 152.550781 420.09375 179.53125 427.613281 186.976562 417.976562 C 191.015625 412.765625 191.253906 401.785156 190.726562 392.730469 C 190.652344 391.527344 190.582031 390.328125 190.484375 389.222656 C 190.003906 383.3125 189.378906 378.84375 189.644531 378.460938 C 190.269531 377.402344 197.042969 380.789062 198.628906 379.132812 C 200.238281 377.472656 189.910156 354.460938 187.339844 341.847656 C 184.742188 329.210938 186.6875 290.292969 145.511719 292.769531 C 104.359375 295.242188 69.210938 299.902344 66.0625 326.714844 C 62.890625 353.5 80.40625 377.332031 81.796875 394.988281 C 83.214844 412.667969 78.554688 457.230469 78.554688 457.230469 Z M 78.554688 457.230469 " fill-opacity="1" fill-rule="nonzero"></path><path fill="#263156" d="M 80.742188 398.375 C 80.140625 404.1875 120.359375 394.507812 120.332031 384.992188 C 120.308594 375.480469 113.535156 354.820312 122.761719 344.539062 C 125.957031 340.984375 133.882812 340.816406 135.445312 349.65625 C 137.007812 358.496094 140.152344 369.980469 140.152344 369.980469 L 148.921875 368.96875 C 148.921875 368.96875 143.132812 357.726562 151.085938 349.296875 C 169.320312 329.980469 161.800781 317.054688 165.453125 314.484375 C 169.078125 311.914062 180.441406 311.722656 180.441406 311.722656 C 180.441406 311.722656 204.898438 291.78125 194.882812 274.148438 C 181.355469 250.367188 148.5625 254.617188 118.867188 263.292969 C 84.296875 273.40625 66.183594 287.867188 65.246094 309.464844 C 65.246094 309.464844 56.1875 329.285156 63.179688 349.917969 C 70.121094 370.554688 82.734375 378.941406 80.742188 398.375 Z M 80.742188 398.375 " fill-opacity="1" fill-rule="nonzero"></path><path fill="#263156" d="M 186.28125 337.355469 C 186.28125 337.355469 176.144531 332.597656 167.375 339.085938 Z M 186.28125 337.355469 " fill-opacity="1" fill-rule="nonzero"></path><path fill="#263156" d="M 183.054688 347.796875 C 183.101562 348.078125 183.128906 348.359375 183.132812 348.640625 C 183.136719 348.921875 183.121094 349.199219 183.078125 349.476562 C 183.035156 349.75 182.972656 350.015625 182.882812 350.269531 C 182.796875 350.523438 182.691406 350.765625 182.5625 350.992188 C 182.433594 351.21875 182.289062 351.429688 182.121094 351.617188 C 181.957031 351.808594 181.777344 351.976562 181.585938 352.121094 C 181.390625 352.265625 181.183594 352.386719 180.96875 352.480469 C 180.75 352.578125 180.527344 352.644531 180.292969 352.6875 C 180.0625 352.730469 179.828125 352.742188 179.59375 352.730469 C 179.355469 352.714844 179.121094 352.675781 178.886719 352.605469 C 178.65625 352.535156 178.429688 352.441406 178.207031 352.320312 C 177.988281 352.199219 177.777344 352.054688 177.578125 351.886719 C 177.378906 351.71875 177.195312 351.53125 177.023438 351.320312 C 176.855469 351.113281 176.703125 350.886719 176.566406 350.644531 C 176.433594 350.402344 176.316406 350.148438 176.222656 349.882812 C 176.128906 349.617188 176.058594 349.34375 176.007812 349.0625 C 175.957031 348.785156 175.929688 348.503906 175.925781 348.222656 C 175.921875 347.9375 175.941406 347.660156 175.980469 347.386719 C 176.023438 347.113281 176.089844 346.847656 176.175781 346.59375 C 176.261719 346.335938 176.371094 346.097656 176.496094 345.867188 C 176.625 345.640625 176.773438 345.433594 176.9375 345.242188 C 177.101562 345.054688 177.28125 344.886719 177.476562 344.742188 C 177.667969 344.597656 177.875 344.476562 178.09375 344.378906 C 178.308594 344.285156 178.535156 344.214844 178.765625 344.175781 C 178.996094 344.132812 179.230469 344.121094 179.46875 344.132812 C 179.703125 344.148438 179.9375 344.1875 180.171875 344.257812 C 180.40625 344.324219 180.632812 344.417969 180.851562 344.539062 C 181.070312 344.660156 181.28125 344.804688 181.480469 344.972656 C 181.679688 345.140625 181.863281 345.332031 182.035156 345.539062 C 182.203125 345.75 182.355469 345.976562 182.492188 346.21875 C 182.628906 346.460938 182.742188 346.714844 182.835938 346.980469 C 182.929688 347.246094 183.003906 347.519531 183.054688 347.796875 Z M 183.054688 347.796875 " fill-opacity="1" fill-rule="nonzero"></path><path fill="#ffffff" d="M 179.792969 387.492188 C 183.78125 391.601562 187.625 392.777344 190.726562 392.777344 C 190.652344 391.578125 190.582031 390.375 190.484375 389.269531 Z M 179.792969 387.492188 " fill-opacity="1" fill-rule="nonzero"></path><path fill="#263156" d="M 131.097656 351.167969 C 131.097656 351.167969 121.703125 347.542969 122.59375 352.921875 C 123.503906 358.28125 134.050781 365.078125 134.050781 365.078125 " fill-opacity="1" fill-rule="nonzero"></path><path stroke-linecap="round" transform="matrix(2.402449, 0, 0, 2.402344, -195.011749, -195.60454)" fill="none" stroke-linejoin="round" d="M 144.660319 256.30044 C 144.660319 256.30044 138.62969 254.929708 133.010425 252.290684 " stroke="#263156" stroke-width="0.579" stroke-opacity="1" stroke-miterlimit="10"></path><g clip-path="url(#83b81dab3d)"><path fill="#6066f1" d="M 236.179688 804.753906 L 5.90625 804.753906 C 5.90625 802.882812 5.90625 800.527344 5.882812 797.835938 C 5.808594 781.910156 5.617188 754.691406 5.375 749.429688 C 5.160156 744.457031 4.894531 738.1875 4.582031 730.789062 C 4.367188 725.8125 4.152344 720.335938 3.933594 714.425781 C 3.742188 708.46875 3.527344 702.128906 3.238281 695.519531 L 3.238281 695.449219 C 3.09375 690.117188 2.972656 684.734375 2.757812 679.113281 C 1.027344 622.65625 0.113281 554.3125 4.679688 533.316406 C 6.195312 526.300781 8.859375 519.164062 12.296875 512.101562 C 12.320312 512.054688 12.34375 512.003906 12.367188 511.933594 C 19 498.382812 28.585938 485.195312 38.675781 474.097656 C 38.699219 474.074219 38.699219 474.074219 38.699219 474.074219 C 51.503906 459.972656 65.125 449.207031 74.566406 445.363281 C 74.589844 445.339844 74.613281 445.339844 74.613281 445.316406 L 74.640625 445.316406 L 80.382812 437.101562 L 80.980469 436.210938 C 80.980469 436.210938 127.902344 438.925781 148.875 444.257812 L 156.128906 446.132812 L 161.414062 447.527344 L 161.464844 447.527344 L 162.402344 447.933594 C 162.425781 447.933594 162.425781 447.933594 162.425781 447.933594 L 180.15625 455.695312 L 185.871094 458.191406 L 188.613281 459.417969 L 195.675781 462.542969 C 195.675781 462.542969 195.554688 462.710938 195.339844 463.023438 C 193.921875 465.183594 187.890625 474.578125 181.859375 488.199219 C 165.476562 525.003906 154.882812 587.101562 222.148438 631.859375 C 222.75 632.265625 223.421875 632.554688 224.144531 632.914062 L 224.71875 641.277344 L 224.71875 641.324219 L 225.273438 649.132812 L 226.472656 665.636719 L 227.628906 682.402344 L 228.828125 699.050781 L 230.054688 716.398438 L 235.699219 797.789062 Z M 236.179688 804.753906 " fill-opacity="1" fill-rule="nonzero"></path></g><path fill="#e4b8af" d="M 395.484375 556.882812 C 395.484375 556.882812 359.664062 561.589844 349.214844 568.773438 C 336.242188 577.6875 364.230469 615.425781 364.230469 615.425781 L 416.097656 585.734375 Z M 395.484375 556.882812 " fill-opacity="1" fill-rule="nonzero"></path><path fill="#e8ebfc" d="M 374.320312 558.660156 L 386.597656 558.082031 C 386.597656 558.082031 400.074219 581.503906 399.234375 601.804688 L 378.308594 612.59375 Z M 374.320312 558.660156 " fill-opacity="1" fill-rule="nonzero"></path><path fill="#e4b8af" d="M 453.3125 582.777344 C 449.589844 579.894531 444.519531 579.75 428.90625 584.84375 C 419.488281 587.917969 412.617188 585.011719 409.300781 586.816406 L 395.484375 556.859375 C 401.421875 554.144531 407.257812 544.507812 414.152344 539.609375 C 421.816406 534.179688 429.121094 525.316406 443.535156 526.707031 C 457.949219 528.148438 475.296875 534.15625 474.140625 539.5625 C 472.964844 544.964844 456.195312 542.753906 456.195312 542.753906 C 456.195312 542.753906 465.132812 545.832031 465.0625 551.476562 C 464.964844 557.121094 458.09375 560.148438 458.09375 560.148438 C 462.945312 565.144531 456.867188 571.632812 456.867188 571.632812 C 461 576.195312 456.988281 585.660156 453.3125 582.777344 Z M 453.3125 582.777344 " fill-opacity="1" fill-rule="nonzero"></path><path stroke-linecap="round" transform="matrix(2.402449, 0, 0, 2.402344, -195.011749, -195.60454)" fill="none" stroke-linejoin="round" d="M 271.339303 319.370362 C 271.339303 319.370362 268.570319 317.770362 264.770486 318.180118 " stroke="#263156" stroke-width="0.579" stroke-opacity="1" stroke-miterlimit="10"></path><path stroke-linecap="round" transform="matrix(2.402449, 0, 0, 2.402344, -195.011749, -195.60454)" fill="none" stroke-linejoin="round" d="M 271.84985 314.589874 C 271.84985 314.589874 268.319923 312.409386 264.659922 312.450036 " stroke="#263156" stroke-width="0.579" stroke-opacity="1" stroke-miterlimit="10"></path><path stroke-linecap="round" transform="matrix(2.402449, 0, 0, 2.402344, -195.011749, -195.60454)" fill="none" stroke-linejoin="round" d="M 271.05964 307.360605 C 271.05964 307.360605 267.669546 306.160605 263.929873 306.820768 " stroke="#263156" stroke-width="0.579" stroke-opacity="1" stroke-miterlimit="10"></path><path fill="#6066f1" d="M 195.675781 462.589844 C 195.675781 462.589844 227.507812 486.230469 241.730469 511.523438 C 251.605469 529.085938 276.15625 571.101562 276.230469 570.550781 C 276.300781 570 374.320312 558.636719 374.320312 558.636719 C 374.320312 558.636719 391.59375 589.9375 387.367188 620.953125 C 387.367188 620.953125 273.347656 661.960938 252.347656 657.324219 C 220.300781 650.261719 187.722656 605.625 187.722656 605.625 L 160.191406 641.109375 L 126.722656 636.902344 C 126.722656 636.902344 108.464844 549.171875 109.1875 547.871094 C 109.90625 546.574219 155.722656 480.535156 156.464844 478.683594 C 157.210938 476.835938 195.675781 462.589844 195.675781 462.589844 Z M 195.675781 462.589844 " fill-opacity="1" fill-rule="nonzero"></path><path stroke-linecap="butt" transform="matrix(2.402449, 0, 0, 2.402344, -195.011749, -195.60454)" fill="none" stroke-linejoin="miter" d="M 174.709405 348.399632 L 154.240386 326.069549 " stroke="#263156" stroke-width="1.503" stroke-opacity="1" stroke-miterlimit="10"></path><path fill="#263156" d="M 148.898438 739.265625 C 148.898438 739.265625 211.195312 728.722656 214.460938 729.394531 C 217.703125 730.066406 222.726562 746.953125 220.683594 749.835938 C 218.640625 752.71875 159.710938 762.761719 154.953125 761.367188 C 150.195312 759.976562 148.898438 739.265625 148.898438 739.265625 Z M 148.898438 739.265625 " fill-opacity="1" fill-rule="nonzero"></path><path fill="#263156" d="M 74.613281 445.363281 C 74.613281 445.363281 78.242188 427.082031 81.175781 425.714844 C 84.105469 424.34375 143.203125 429.003906 154.90625 437.339844 C 159.734375 440.777344 162.402344 447.984375 162.402344 447.984375 C 162.402344 447.984375 118.578125 452.597656 74.613281 445.363281 Z M 74.613281 445.363281 " fill-opacity="1" fill-rule="nonzero"></path><path fill="#e9bf6b" d="M 383.859375 136.136719 C 383.859375 137.628906 383.785156 139.121094 383.640625 140.605469 C 383.492188 142.09375 383.273438 143.570312 382.980469 145.035156 C 382.691406 146.5 382.328125 147.949219 381.894531 149.378906 C 381.460938 150.808594 380.957031 152.210938 380.386719 153.59375 C 379.8125 154.972656 379.175781 156.324219 378.472656 157.640625 C 377.765625 158.957031 377 160.238281 376.167969 161.480469 C 375.339844 162.722656 374.449219 163.921875 373.503906 165.078125 C 372.554688 166.230469 371.550781 167.335938 370.496094 168.394531 C 369.4375 169.449219 368.332031 170.453125 367.179688 171.398438 C 366.023438 172.347656 364.824219 173.238281 363.582031 174.066406 C 362.339844 174.898438 361.058594 175.664062 359.742188 176.367188 C 358.425781 177.074219 357.074219 177.710938 355.695312 178.28125 C 354.3125 178.855469 352.910156 179.359375 351.480469 179.792969 C 350.050781 180.226562 348.601562 180.585938 347.136719 180.878906 C 345.671875 181.171875 344.195312 181.390625 342.707031 181.535156 C 341.21875 181.683594 339.730469 181.753906 338.234375 181.753906 C 336.742188 181.753906 335.25 181.683594 333.765625 181.535156 C 332.277344 181.390625 330.800781 181.171875 329.335938 180.878906 C 327.871094 180.585938 326.421875 180.226562 324.992188 179.792969 C 323.5625 179.359375 322.15625 178.855469 320.777344 178.28125 C 319.394531 177.710938 318.046875 177.074219 316.730469 176.367188 C 315.410156 175.664062 314.132812 174.898438 312.890625 174.066406 C 311.648438 173.238281 310.449219 172.347656 309.292969 171.398438 C 308.136719 170.453125 307.03125 169.449219 305.976562 168.394531 C 304.917969 167.335938 303.917969 166.230469 302.96875 165.078125 C 302.019531 163.921875 301.132812 162.722656 300.300781 161.480469 C 299.472656 160.238281 298.703125 158.957031 298 157.640625 C 297.296875 156.324219 296.65625 154.972656 296.085938 153.59375 C 295.515625 152.210938 295.011719 150.808594 294.578125 149.378906 C 294.144531 147.949219 293.78125 146.5 293.488281 145.035156 C 293.199219 143.570312 292.980469 142.09375 292.832031 140.605469 C 292.6875 139.121094 292.613281 137.628906 292.613281 136.136719 C 292.613281 134.640625 292.6875 133.152344 292.832031 131.664062 C 292.980469 130.175781 293.199219 128.699219 293.488281 127.234375 C 293.78125 125.769531 294.144531 124.320312 294.578125 122.890625 C 295.011719 121.460938 295.515625 120.058594 296.085938 118.675781 C 296.65625 117.296875 297.296875 115.949219 298 114.628906 C 298.703125 113.3125 299.472656 112.03125 300.300781 110.789062 C 301.132812 109.546875 302.019531 108.347656 302.96875 107.195312 C 303.917969 106.039062 304.917969 104.933594 305.976562 103.875 C 307.03125 102.820312 308.136719 101.816406 309.292969 100.871094 C 310.449219 99.921875 311.648438 99.03125 312.890625 98.203125 C 314.132812 97.371094 315.410156 96.605469 316.730469 95.902344 C 318.046875 95.195312 319.394531 94.558594 320.777344 93.988281 C 322.15625 93.414062 323.5625 92.914062 324.992188 92.480469 C 326.421875 92.046875 327.871094 91.683594 329.335938 91.390625 C 330.800781 91.101562 332.277344 90.878906 333.765625 90.734375 C 335.25 90.585938 336.742188 90.515625 338.234375 90.515625 C 339.730469 90.515625 341.222656 90.585938 342.707031 90.734375 C 344.195312 90.878906 345.671875 91.101562 347.136719 91.390625 C 348.601562 91.683594 350.050781 92.046875 351.480469 92.480469 C 352.910156 92.914062 354.3125 93.414062 355.695312 93.988281 C 357.074219 94.558594 358.425781 95.195312 359.742188 95.902344 C 361.058594 96.605469 362.339844 97.371094 363.582031 98.203125 C 364.824219 99.03125 366.023438 99.921875 367.179688 100.871094 C 368.332031 101.816406 369.4375 102.820312 370.496094 103.875 C 371.550781 104.933594 372.554688 106.039062 373.503906 107.195312 C 374.449219 108.347656 375.339844 109.546875 376.167969 110.789062 C 377 112.03125 377.765625 113.3125 378.472656 114.628906 C 379.175781 115.949219 379.8125 117.296875 380.386719 118.675781 C 380.957031 120.058594 381.460938 121.460938 381.894531 122.890625 C 382.328125 124.320312 382.691406 125.769531 382.980469 127.234375 C 383.273438 128.699219 383.492188 130.175781 383.640625 131.664062 C 383.785156 133.152344 383.859375 134.640625 383.859375 136.136719 Z M 383.859375 136.136719 " fill-opacity="1" fill-rule="nonzero"></path><path fill="#ffffff" d="M 348.832031 124.171875 C 348.832031 124.867188 348.761719 125.554688 348.628906 126.238281 C 348.492188 126.921875 348.289062 127.582031 348.023438 128.226562 C 347.757812 128.867188 347.429688 129.480469 347.046875 130.058594 C 346.660156 130.636719 346.21875 131.171875 345.726562 131.664062 C 345.234375 132.15625 344.699219 132.59375 344.121094 132.980469 C 343.542969 133.367188 342.933594 133.691406 342.289062 133.960938 C 341.648438 134.226562 340.984375 134.425781 340.304688 134.5625 C 339.621094 134.699219 338.929688 134.765625 338.234375 134.765625 C 337.539062 134.765625 336.851562 134.699219 336.167969 134.5625 C 335.488281 134.425781 334.824219 134.226562 334.179688 133.960938 C 333.539062 133.691406 332.929688 133.367188 332.351562 132.980469 C 331.769531 132.59375 331.234375 132.15625 330.746094 131.664062 C 330.253906 131.171875 329.8125 130.636719 329.425781 130.058594 C 329.039062 129.480469 328.714844 128.867188 328.449219 128.226562 C 328.179688 127.582031 327.980469 126.921875 327.84375 126.238281 C 327.707031 125.554688 327.640625 124.867188 327.640625 124.171875 C 327.640625 123.476562 327.707031 122.785156 327.84375 122.105469 C 327.980469 121.421875 328.179688 120.761719 328.449219 120.117188 C 328.714844 119.472656 329.039062 118.863281 329.425781 118.285156 C 329.8125 117.707031 330.253906 117.171875 330.746094 116.679688 C 331.234375 116.1875 331.769531 115.75 332.351562 115.363281 C 332.929688 114.976562 333.539062 114.648438 334.179688 114.382812 C 334.824219 114.117188 335.488281 113.917969 336.167969 113.78125 C 336.851562 113.644531 337.539062 113.578125 338.234375 113.578125 C 338.929688 113.578125 339.621094 113.644531 340.304688 113.78125 C 340.984375 113.917969 341.648438 114.117188 342.289062 114.382812 C 342.933594 114.648438 343.542969 114.976562 344.121094 115.363281 C 344.699219 115.75 345.234375 116.1875 345.726562 116.679688 C 346.21875 117.171875 346.660156 117.707031 347.046875 118.285156 C 347.429688 118.863281 347.757812 119.472656 348.023438 120.117188 C 348.289062 120.761719 348.492188 121.421875 348.628906 122.105469 C 348.761719 122.785156 348.832031 123.476562 348.832031 124.171875 Z M 348.832031 124.171875 " fill-opacity="1" fill-rule="nonzero"></path><path fill="#ffffff" d="M 354.285156 158.691406 L 322.210938 158.691406 L 322.210938 142.621094 C 322.210938 140.027344 324.324219 137.914062 326.921875 137.914062 L 349.574219 137.914062 C 352.171875 137.914062 354.285156 140.027344 354.285156 142.621094 Z M 354.285156 158.691406 " fill-opacity="1" fill-rule="nonzero"></path><path fill="#d05b71" d="M 541.722656 106.082031 C 541.722656 107.222656 541.667969 108.363281 541.554688 109.5 C 541.445312 110.632812 541.277344 111.761719 541.054688 112.882812 C 540.832031 114 540.554688 115.109375 540.222656 116.199219 C 539.890625 117.292969 539.507812 118.367188 539.070312 119.421875 C 538.632812 120.476562 538.144531 121.507812 537.605469 122.515625 C 537.070312 123.519531 536.484375 124.5 535.847656 125.449219 C 535.214844 126.398438 534.535156 127.3125 533.808594 128.195312 C 533.085938 129.078125 532.320312 129.921875 531.511719 130.730469 C 530.707031 131.539062 529.859375 132.304688 528.976562 133.027344 C 528.097656 133.75 527.179688 134.429688 526.230469 135.066406 C 525.28125 135.699219 524.304688 136.285156 523.296875 136.824219 C 522.289062 137.363281 521.257812 137.847656 520.203125 138.285156 C 519.148438 138.722656 518.074219 139.105469 516.984375 139.4375 C 515.890625 139.769531 514.785156 140.046875 513.664062 140.269531 C 512.542969 140.492188 511.417969 140.660156 510.28125 140.773438 C 509.144531 140.882812 508.003906 140.941406 506.863281 140.941406 C 505.722656 140.941406 504.582031 140.882812 503.445312 140.773438 C 502.3125 140.660156 501.183594 140.492188 500.0625 140.269531 C 498.941406 140.046875 497.835938 139.769531 496.746094 139.4375 C 495.652344 139.105469 494.578125 138.722656 493.523438 138.285156 C 492.46875 137.847656 491.4375 137.363281 490.429688 136.824219 C 489.425781 136.285156 488.445312 135.699219 487.496094 135.066406 C 486.546875 134.429688 485.632812 133.75 484.75 133.027344 C 483.867188 132.304688 483.023438 131.539062 482.214844 130.730469 C 481.40625 129.921875 480.640625 129.078125 479.917969 128.195312 C 479.191406 127.3125 478.511719 126.398438 477.878906 125.449219 C 477.246094 124.5 476.660156 123.519531 476.121094 122.515625 C 475.582031 121.507812 475.09375 120.476562 474.65625 119.421875 C 474.222656 118.367188 473.835938 117.292969 473.503906 116.199219 C 473.175781 115.109375 472.898438 114 472.675781 112.882812 C 472.453125 111.761719 472.285156 110.632812 472.171875 109.5 C 472.058594 108.363281 472.003906 107.222656 472.003906 106.082031 C 472.003906 104.941406 472.058594 103.800781 472.171875 102.664062 C 472.285156 101.527344 472.453125 100.402344 472.675781 99.28125 C 472.898438 98.160156 473.175781 97.054688 473.503906 95.964844 C 473.835938 94.871094 474.222656 93.796875 474.65625 92.742188 C 475.09375 91.6875 475.582031 90.65625 476.121094 89.648438 C 476.660156 88.644531 477.246094 87.664062 477.878906 86.714844 C 478.511719 85.765625 479.191406 84.851562 479.917969 83.96875 C 480.640625 83.085938 481.40625 82.242188 482.214844 81.433594 C 483.023438 80.625 483.867188 79.859375 484.75 79.136719 C 485.632812 78.410156 486.546875 77.734375 487.496094 77.097656 C 488.445312 76.464844 489.425781 75.878906 490.429688 75.339844 C 491.4375 74.800781 492.46875 74.3125 493.523438 73.878906 C 494.578125 73.441406 495.652344 73.054688 496.746094 72.726562 C 497.835938 72.394531 498.941406 72.117188 500.0625 71.894531 C 501.183594 71.671875 502.3125 71.503906 503.445312 71.390625 C 504.582031 71.28125 505.722656 71.222656 506.863281 71.222656 C 508.003906 71.222656 509.144531 71.28125 510.28125 71.390625 C 511.417969 71.503906 512.542969 71.671875 513.664062 71.894531 C 514.785156 72.117188 515.890625 72.394531 516.984375 72.726562 C 518.074219 73.054688 519.148438 73.441406 520.203125 73.878906 C 521.257812 74.3125 522.289062 74.800781 523.296875 75.339844 C 524.304688 75.878906 525.28125 76.464844 526.230469 77.097656 C 527.179688 77.734375 528.097656 78.410156 528.976562 79.136719 C 529.859375 79.859375 530.707031 80.625 531.511719 81.433594 C 532.320312 82.242188 533.085938 83.085938 533.8125 83.96875 C 534.535156 84.851562 535.214844 85.765625 535.847656 86.714844 C 536.484375 87.664062 537.070312 88.644531 537.605469 89.648438 C 538.144531 90.65625 538.632812 91.6875 539.070312 92.742188 C 539.507812 93.796875 539.890625 94.871094 540.222656 95.964844 C 540.554688 97.054688 540.832031 98.160156 541.054688 99.28125 C 541.277344 100.402344 541.445312 101.527344 541.554688 102.664062 C 541.667969 103.800781 541.722656 104.941406 541.722656 106.082031 Z M 541.722656 106.082031 " fill-opacity="1" fill-rule="nonzero"></path><path fill="#ffffff" d="M 514.960938 96.929688 C 514.960938 97.460938 514.90625 97.988281 514.804688 98.507812 C 514.699219 99.03125 514.546875 99.535156 514.34375 100.027344 C 514.140625 100.519531 513.890625 100.984375 513.59375 101.425781 C 513.300781 101.867188 512.964844 102.277344 512.589844 102.652344 C 512.210938 103.03125 511.804688 103.363281 511.363281 103.660156 C 510.917969 103.957031 510.453125 104.203125 509.960938 104.410156 C 509.472656 104.613281 508.964844 104.765625 508.441406 104.867188 C 507.921875 104.972656 507.394531 105.023438 506.863281 105.023438 C 506.332031 105.023438 505.804688 104.972656 505.285156 104.867188 C 504.761719 104.765625 504.257812 104.613281 503.765625 104.410156 C 503.273438 104.203125 502.808594 103.957031 502.367188 103.660156 C 501.921875 103.363281 501.515625 103.03125 501.140625 102.652344 C 500.761719 102.277344 500.425781 101.867188 500.132812 101.425781 C 499.835938 100.984375 499.585938 100.519531 499.382812 100.027344 C 499.179688 99.535156 499.027344 99.03125 498.921875 98.507812 C 498.820312 97.988281 498.765625 97.460938 498.769531 96.929688 C 498.765625 96.398438 498.820312 95.871094 498.921875 95.347656 C 499.027344 94.828125 499.179688 94.320312 499.382812 93.832031 C 499.585938 93.339844 499.835938 92.871094 500.132812 92.429688 C 500.425781 91.988281 500.761719 91.578125 501.140625 91.203125 C 501.515625 90.828125 501.921875 90.492188 502.367188 90.199219 C 502.808594 89.902344 503.273438 89.652344 503.765625 89.449219 C 504.257812 89.246094 504.761719 89.09375 505.285156 88.988281 C 505.804688 88.886719 506.332031 88.832031 506.863281 88.832031 C 507.394531 88.832031 507.921875 88.886719 508.441406 88.988281 C 508.964844 89.09375 509.472656 89.246094 509.960938 89.449219 C 510.453125 89.652344 510.917969 89.902344 511.363281 90.199219 C 511.804688 90.492188 512.210938 90.828125 512.589844 91.203125 C 512.964844 91.578125 513.300781 91.988281 513.59375 92.429688 C 513.890625 92.871094 514.140625 93.339844 514.34375 93.832031 C 514.546875 94.320312 514.699219 94.828125 514.804688 95.347656 C 514.90625 95.871094 514.960938 96.398438 514.960938 96.929688 Z M 514.960938 96.929688 " fill-opacity="1" fill-rule="nonzero"></path><path fill="#ffffff" d="M 519.117188 123.304688 L 494.609375 123.304688 L 494.609375 111.03125 C 494.609375 109.035156 496.222656 107.425781 498.214844 107.425781 L 515.511719 107.425781 C 517.507812 107.425781 519.117188 109.035156 519.117188 111.03125 Z M 519.117188 123.304688 " fill-opacity="1" fill-rule="nonzero"></path><path fill="#6066f1" d="M 452.425781 107.402344 C 452.425781 108.398438 452.375 109.390625 452.277344 110.378906 C 452.179688 111.371094 452.035156 112.351562 451.839844 113.328125 C 451.648438 114.300781 451.40625 115.265625 451.117188 116.21875 C 450.828125 117.167969 450.492188 118.105469 450.113281 119.023438 C 449.730469 119.941406 449.308594 120.839844 448.839844 121.71875 C 448.371094 122.59375 447.859375 123.445312 447.304688 124.273438 C 446.753906 125.101562 446.164062 125.898438 445.53125 126.667969 C 444.902344 127.4375 444.234375 128.171875 443.53125 128.875 C 442.828125 129.578125 442.089844 130.246094 441.320312 130.875 C 440.554688 131.507812 439.753906 132.097656 438.929688 132.652344 C 438.101562 133.203125 437.25 133.714844 436.371094 134.183594 C 435.496094 134.652344 434.597656 135.078125 433.679688 135.457031 C 432.757812 135.835938 431.824219 136.171875 430.871094 136.460938 C 429.921875 136.75 428.957031 136.992188 427.980469 137.183594 C 427.007812 137.378906 426.023438 137.523438 425.035156 137.621094 C 424.042969 137.71875 423.050781 137.769531 422.058594 137.769531 C 421.0625 137.769531 420.070312 137.71875 419.082031 137.621094 C 418.089844 137.523438 417.109375 137.378906 416.132812 137.183594 C 415.15625 136.992188 414.195312 136.75 413.242188 136.460938 C 412.289062 136.171875 411.355469 135.835938 410.4375 135.457031 C 409.515625 135.078125 408.621094 134.652344 407.742188 134.183594 C 406.867188 133.714844 406.011719 133.203125 405.1875 132.652344 C 404.359375 132.097656 403.5625 131.507812 402.792969 130.875 C 402.023438 130.246094 401.289062 129.578125 400.585938 128.875 C 399.882812 128.171875 399.214844 127.4375 398.582031 126.667969 C 397.953125 125.898438 397.359375 125.101562 396.808594 124.273438 C 396.253906 123.445312 395.746094 122.59375 395.277344 121.71875 C 394.808594 120.839844 394.382812 119.941406 394 119.023438 C 393.621094 118.105469 393.285156 117.167969 392.996094 116.21875 C 392.710938 115.265625 392.46875 114.300781 392.273438 113.328125 C 392.078125 112.351562 391.933594 111.371094 391.835938 110.378906 C 391.738281 109.390625 391.691406 108.398438 391.691406 107.402344 C 391.691406 106.410156 391.738281 105.417969 391.835938 104.425781 C 391.933594 103.4375 392.078125 102.453125 392.273438 101.480469 C 392.46875 100.503906 392.710938 99.539062 392.996094 98.589844 C 393.285156 97.636719 393.621094 96.703125 394 95.78125 C 394.382812 94.863281 394.808594 93.964844 395.277344 93.089844 C 395.746094 92.210938 396.253906 91.359375 396.808594 90.53125 C 397.359375 89.707031 397.953125 88.90625 398.582031 88.140625 C 399.214844 87.371094 399.882812 86.632812 400.585938 85.929688 C 401.289062 85.226562 402.023438 84.5625 402.792969 83.929688 C 403.5625 83.300781 404.359375 82.707031 405.1875 82.15625 C 406.011719 81.601562 406.867188 81.089844 407.742188 80.621094 C 408.621094 80.152344 409.515625 79.730469 410.4375 79.347656 C 411.355469 78.96875 412.289062 78.632812 413.242188 78.34375 C 414.195312 78.054688 415.15625 77.816406 416.132812 77.621094 C 417.109375 77.425781 418.089844 77.28125 419.082031 77.183594 C 420.070312 77.085938 421.0625 77.039062 422.058594 77.039062 C 423.050781 77.039062 424.042969 77.085938 425.035156 77.183594 C 426.023438 77.28125 427.007812 77.425781 427.980469 77.621094 C 428.957031 77.816406 429.921875 78.054688 430.871094 78.34375 C 431.824219 78.632812 432.757812 78.96875 433.679688 79.347656 C 434.597656 79.730469 435.496094 80.152344 436.371094 80.621094 C 437.25 81.089844 438.101562 81.601562 438.929688 82.15625 C 439.753906 82.707031 440.554688 83.300781 441.320312 83.929688 C 442.089844 84.5625 442.828125 85.226562 443.53125 85.929688 C 444.234375 86.632812 444.902344 87.371094 445.53125 88.140625 C 446.164062 88.90625 446.753906 89.707031 447.304688 90.53125 C 447.859375 91.359375 448.371094 92.210938 448.839844 93.089844 C 449.308594 93.964844 449.730469 94.863281 450.113281 95.78125 C 450.492188 96.703125 450.828125 97.636719 451.117188 98.589844 C 451.40625 99.539062 451.648438 100.503906 451.839844 101.480469 C 452.035156 102.453125 452.179688 103.4375 452.277344 104.425781 C 452.375 105.417969 452.425781 106.410156 452.425781 107.402344 Z M 452.425781 107.402344 " fill-opacity="1" fill-rule="nonzero"></path><path fill="#ffffff" d="M 429.097656 99.425781 C 429.097656 99.890625 429.050781 100.347656 428.960938 100.800781 C 428.871094 101.253906 428.738281 101.695312 428.5625 102.121094 C 428.382812 102.546875 428.167969 102.953125 427.910156 103.335938 C 427.652344 103.722656 427.363281 104.078125 427.035156 104.40625 C 426.707031 104.730469 426.351562 105.023438 425.96875 105.28125 C 425.582031 105.535156 425.179688 105.753906 424.75 105.929688 C 424.324219 106.105469 423.882812 106.242188 423.429688 106.332031 C 422.976562 106.421875 422.519531 106.464844 422.058594 106.464844 C 421.59375 106.464844 421.136719 106.421875 420.683594 106.332031 C 420.230469 106.242188 419.789062 106.105469 419.363281 105.929688 C 418.9375 105.753906 418.53125 105.535156 418.148438 105.28125 C 417.761719 105.023438 417.40625 104.730469 417.078125 104.40625 C 416.753906 104.078125 416.460938 103.722656 416.203125 103.335938 C 415.949219 102.953125 415.730469 102.546875 415.554688 102.121094 C 415.378906 101.695312 415.242188 101.253906 415.152344 100.800781 C 415.0625 100.347656 415.019531 99.890625 415.019531 99.425781 C 415.019531 98.964844 415.0625 98.507812 415.152344 98.054688 C 415.242188 97.601562 415.378906 97.160156 415.554688 96.734375 C 415.730469 96.304688 415.949219 95.902344 416.203125 95.515625 C 416.460938 95.132812 416.753906 94.777344 417.078125 94.449219 C 417.40625 94.125 417.761719 93.832031 418.148438 93.574219 C 418.53125 93.316406 418.9375 93.101562 419.363281 92.925781 C 419.789062 92.746094 420.230469 92.613281 420.683594 92.523438 C 421.136719 92.433594 421.59375 92.386719 422.058594 92.386719 C 422.519531 92.386719 422.976562 92.433594 423.429688 92.523438 C 423.882812 92.613281 424.324219 92.746094 424.75 92.925781 C 425.179688 93.101562 425.582031 93.316406 425.96875 93.574219 C 426.351562 93.832031 426.707031 94.125 427.035156 94.449219 C 427.363281 94.777344 427.652344 95.132812 427.910156 95.515625 C 428.167969 95.902344 428.382812 96.304688 428.5625 96.734375 C 428.738281 97.160156 428.871094 97.601562 428.960938 98.054688 C 429.050781 98.507812 429.097656 98.964844 429.097656 99.425781 Z M 429.097656 99.425781 " fill-opacity="1" fill-rule="nonzero"></path><path fill="#ffffff" d="M 432.722656 122.417969 L 411.367188 122.417969 L 411.367188 111.726562 C 411.367188 109.996094 412.761719 108.582031 414.515625 108.582031 L 429.601562 108.582031 C 431.332031 108.582031 432.75 109.972656 432.75 111.726562 L 432.75 122.417969 Z M 432.722656 122.417969 " fill-opacity="1" fill-rule="nonzero"></path><g clip-path="url(#dbc021d017)"><path fill="#e8ebfc" d="M 400.242188 35.574219 C 400.242188 36.566406 400.195312 37.558594 400.097656 38.550781 C 400 39.539062 399.855469 40.523438 399.660156 41.496094 C 399.464844 42.472656 399.222656 43.4375 398.933594 44.386719 C 398.648438 45.339844 398.3125 46.273438 397.929688 47.195312 C 397.550781 48.113281 397.125 49.011719 396.65625 49.886719 C 396.1875 50.765625 395.679688 51.617188 395.125 52.441406 C 394.574219 53.269531 393.980469 54.066406 393.351562 54.835938 C 392.71875 55.605469 392.050781 56.339844 391.347656 57.042969 C 390.644531 57.746094 389.910156 58.414062 389.140625 59.046875 C 388.371094 59.675781 387.574219 60.269531 386.746094 60.820312 C 385.921875 61.375 385.066406 61.882812 384.191406 62.351562 C 383.3125 62.820312 382.414062 63.246094 381.496094 63.628906 C 380.578125 64.007812 379.644531 64.34375 378.691406 64.632812 C 377.738281 64.917969 376.777344 65.160156 375.800781 65.355469 C 374.824219 65.550781 373.84375 65.695312 372.851562 65.792969 C 371.863281 65.890625 370.871094 65.9375 369.875 65.9375 C 368.882812 65.9375 367.890625 65.890625 366.898438 65.792969 C 365.910156 65.695312 364.925781 65.550781 363.953125 65.355469 C 362.976562 65.160156 362.011719 64.917969 361.0625 64.632812 C 360.109375 64.34375 359.175781 64.007812 358.253906 63.628906 C 357.335938 63.246094 356.4375 62.820312 355.5625 62.351562 C 354.683594 61.882812 353.832031 61.375 353.003906 60.820312 C 352.179688 60.269531 351.378906 59.675781 350.613281 59.046875 C 349.84375 58.414062 349.105469 57.746094 348.402344 57.042969 C 347.699219 56.339844 347.03125 55.605469 346.402344 54.835938 C 345.769531 54.066406 345.179688 53.269531 344.625 52.441406 C 344.074219 51.617188 343.5625 50.765625 343.09375 49.886719 C 342.625 49.011719 342.203125 48.113281 341.820312 47.195312 C 341.441406 46.273438 341.105469 45.339844 340.816406 44.386719 C 340.527344 43.4375 340.285156 42.472656 340.09375 41.496094 C 339.898438 40.523438 339.753906 39.539062 339.65625 38.550781 C 339.558594 37.558594 339.507812 36.566406 339.507812 35.574219 C 339.507812 34.578125 339.558594 33.585938 339.65625 32.597656 C 339.753906 31.605469 339.898438 30.625 340.09375 29.648438 C 340.285156 28.671875 340.527344 27.710938 340.816406 26.757812 C 341.105469 25.804688 341.441406 24.871094 341.820312 23.953125 C 342.203125 23.035156 342.625 22.136719 343.09375 21.257812 C 343.5625 20.382812 344.074219 19.53125 344.625 18.703125 C 345.179688 17.875 345.769531 17.078125 346.402344 16.308594 C 347.03125 15.539062 347.699219 14.804688 348.402344 14.101562 C 349.105469 13.398438 349.84375 12.730469 350.613281 12.101562 C 351.378906 11.46875 352.179688 10.878906 353.003906 10.324219 C 353.832031 9.773438 354.683594 9.261719 355.5625 8.792969 C 356.4375 8.324219 357.335938 7.898438 358.253906 7.519531 C 359.175781 7.136719 360.109375 6.804688 361.0625 6.515625 C 362.011719 6.226562 362.976562 5.984375 363.953125 5.789062 C 364.925781 5.597656 365.910156 5.449219 366.898438 5.355469 C 367.890625 5.257812 368.882812 5.207031 369.875 5.207031 C 370.871094 5.207031 371.863281 5.257812 372.851562 5.355469 C 373.84375 5.449219 374.824219 5.597656 375.800781 5.789062 C 376.777344 5.984375 377.738281 6.226562 378.691406 6.515625 C 379.644531 6.804688 380.578125 7.136719 381.496094 7.519531 C 382.414062 7.898438 383.3125 8.324219 384.191406 8.792969 C 385.066406 9.261719 385.921875 9.773438 386.746094 10.324219 C 387.574219 10.878906 388.371094 11.46875 389.140625 12.101562 C 389.910156 12.730469 390.644531 13.398438 391.347656 14.101562 C 392.050781 14.804688 392.71875 15.539062 393.351562 16.308594 C 393.980469 17.078125 394.574219 17.875 395.125 18.703125 C 395.679688 19.53125 396.1875 20.382812 396.65625 21.257812 C 397.125 22.136719 397.550781 23.035156 397.929688 23.953125 C 398.3125 24.871094 398.648438 25.804688 398.933594 26.757812 C 399.222656 27.710938 399.464844 28.671875 399.660156 29.648438 C 399.855469 30.625 400 31.605469 400.097656 32.597656 C 400.195312 33.585938 400.242188 34.578125 400.242188 35.574219 Z M 400.242188 35.574219 " fill-opacity="1" fill-rule="nonzero"></path></g><path fill="#ffffff" d="M 376.914062 27.597656 C 376.914062 28.058594 376.871094 28.515625 376.78125 28.96875 C 376.691406 29.421875 376.554688 29.863281 376.378906 30.289062 C 376.203125 30.71875 375.984375 31.125 375.730469 31.507812 C 375.472656 31.890625 375.179688 32.246094 374.855469 32.574219 C 374.527344 32.902344 374.171875 33.191406 373.785156 33.449219 C 373.402344 33.707031 372.996094 33.921875 372.570312 34.101562 C 372.144531 34.277344 371.703125 34.410156 371.25 34.5 C 370.796875 34.589844 370.339844 34.636719 369.875 34.636719 C 369.414062 34.636719 368.957031 34.589844 368.503906 34.5 C 368.050781 34.410156 367.609375 34.277344 367.183594 34.101562 C 366.753906 33.921875 366.351562 33.707031 365.964844 33.449219 C 365.582031 33.191406 365.226562 32.902344 364.898438 32.574219 C 364.570312 32.246094 364.28125 31.890625 364.023438 31.507812 C 363.765625 31.125 363.550781 30.71875 363.371094 30.289062 C 363.195312 29.863281 363.0625 29.421875 362.972656 28.96875 C 362.882812 28.515625 362.835938 28.058594 362.835938 27.597656 C 362.835938 27.136719 362.882812 26.675781 362.972656 26.222656 C 363.0625 25.769531 363.195312 25.332031 363.371094 24.902344 C 363.550781 24.476562 363.765625 24.070312 364.023438 23.6875 C 364.28125 23.300781 364.570312 22.945312 364.898438 22.621094 C 365.226562 22.292969 365.582031 22 365.964844 21.746094 C 366.351562 21.488281 366.753906 21.269531 367.183594 21.09375 C 367.609375 20.917969 368.050781 20.785156 368.503906 20.695312 C 368.957031 20.601562 369.414062 20.558594 369.875 20.558594 C 370.339844 20.558594 370.796875 20.601562 371.25 20.695312 C 371.703125 20.785156 372.144531 20.917969 372.570312 21.09375 C 372.996094 21.269531 373.402344 21.488281 373.785156 21.746094 C 374.171875 22 374.527344 22.292969 374.855469 22.621094 C 375.179688 22.945312 375.472656 23.300781 375.730469 23.6875 C 375.984375 24.070312 376.203125 24.476562 376.378906 24.902344 C 376.554688 25.332031 376.691406 25.769531 376.78125 26.222656 C 376.871094 26.675781 376.914062 27.136719 376.914062 27.597656 Z M 376.914062 27.597656 " fill-opacity="1" fill-rule="nonzero"></path><path fill="#ffffff" d="M 380.566406 50.585938 L 359.210938 50.585938 L 359.210938 39.898438 C 359.210938 38.167969 360.601562 36.75 362.355469 36.75 L 377.445312 36.75 C 379.171875 36.75 380.589844 38.144531 380.589844 39.898438 L 380.589844 50.585938 Z M 380.566406 50.585938 " fill-opacity="1" fill-rule="nonzero"></path><path fill="#8b92f7" d="M 441.011719 281.550781 L 384.890625 281.550781 L 262.125 185.167969 L 563.753906 185.167969 Z M 441.011719 281.550781 " fill-opacity="1" fill-rule="nonzero"></path><path fill="#8b92f7" d="M 441.011719 281.550781 L 441.011719 426.578125 L 384.890625 426.867188 L 384.890625 281.550781 Z M 441.011719 281.550781 " fill-opacity="1" fill-rule="nonzero"></path><path fill="#8b92f7" d="M 557.628906 192.710938 L 268.253906 192.710938 C 260.46875 192.710938 254.125 186.390625 254.125 178.585938 C 254.125 170.800781 260.445312 164.457031 268.253906 164.457031 L 557.628906 164.457031 C 565.410156 164.457031 571.753906 170.777344 571.753906 178.585938 C 571.730469 186.390625 565.410156 192.710938 557.628906 192.710938 Z M 557.628906 192.710938 " fill-opacity="1" fill-rule="nonzero"></path><path fill="#263156" d="M 384.890625 331.589844 L 441.035156 331.589844 L 441.035156 378.460938 L 384.890625 378.460938 Z M 384.890625 331.589844 " fill-opacity="1" fill-rule="nonzero"></path><path fill="#ffffff" d="M 57.535156 210.535156 C 61.234375 207.101562 63.371094 202.34375 63.445312 197.296875 C 63.515625 192.445312 61.691406 187.859375 58.300781 184.421875 C 55.105469 181.179688 50.902344 179.328125 46.386719 179.113281 L 46.554688 168.710938 C 53.882812 168.925781 60.679688 171.859375 65.796875 177.070312 C 71.109375 182.476562 73.964844 189.636719 73.847656 197.273438 C 73.726562 205.035156 70.433594 212.503906 64.765625 217.886719 Z M 57.535156 210.535156 " fill-opacity="1" fill-rule="nonzero"></path><path fill="#e8ebfc" d="M 47.371094 169.574219 C 54.144531 169.960938 60.417969 172.792969 65.199219 177.648438 C 70.363281 182.882812 73.125 189.851562 73.003906 197.25 C 72.886719 204.53125 69.90625 211.519531 64.765625 216.6875 L 58.710938 210.535156 C 62.195312 207.003906 64.210938 202.273438 64.285156 197.296875 C 64.355469 192.207031 62.457031 187.425781 58.902344 183.820312 C 55.757812 180.625 51.671875 178.703125 47.226562 178.320312 L 47.371094 169.574219 M 45.738281 167.871094 L 45.546875 179.953125 C 55.105469 179.953125 62.769531 187.714844 62.625 197.296875 C 62.554688 202.582031 60.105469 207.316406 56.332031 210.488281 L 64.765625 219.039062 C 70.746094 213.660156 74.589844 205.898438 74.710938 197.273438 C 74.953125 181.035156 61.976562 167.871094 45.738281 167.871094 Z M 45.738281 167.871094 " fill-opacity="1" fill-rule="nonzero"></path><path fill="#6066f1" d="M 15.851562 197.296875 C 15.609375 213.539062 28.558594 226.726562 44.824219 226.726562 C 52.441406 226.726562 59.433594 223.820312 64.742188 219.0625 L 56.308594 210.511719 C 53.234375 213.105469 49.292969 214.667969 45.015625 214.667969 C 35.429688 214.667969 27.792969 206.90625 27.933594 197.324219 L 15.851562 197.324219 Z M 15.851562 197.296875 " fill-opacity="1" fill-rule="nonzero"></path><path fill="#8b92f7" d="M 15.851562 197.296875 L 27.910156 197.296875 C 28.054688 187.714844 35.9375 179.953125 45.519531 179.953125 L 45.714844 167.894531 C 29.472656 167.871094 16.117188 181.035156 15.851562 197.296875 Z M 15.851562 197.296875 " fill-opacity="1" fill-rule="nonzero"></path><path fill="#e8ebfc" d="M 99.359375 184.085938 L 228.324219 184.085938 L 228.324219 191.75 L 99.359375 191.75 Z M 99.359375 184.085938 " fill-opacity="1" fill-rule="nonzero"></path><path fill="#e8ebfc" d="M 99.359375 202.824219 L 195.625 202.824219 L 195.625 210.488281 L 99.359375 210.488281 Z M 99.359375 202.824219 " fill-opacity="1" fill-rule="nonzero"></path><path fill="#e9bf6b" d="M 808.78125 376.175781 C 807.050781 366.878906 803.183594 358.375 797.703125 351.097656 C 792.492188 344.152344 785.8125 338.386719 778.125 334.207031 C 769.597656 329.546875 759.84375 326.90625 749.4375 326.855469 C 715.925781 326.714844 688.632812 353.714844 688.488281 387.253906 C 688.488281 388.308594 688.511719 389.34375 688.5625 390.375 C 688.777344 394.964844 689.472656 399.382812 690.652344 403.636719 C 691.421875 406.496094 692.429688 409.28125 693.605469 411.972656 C 694.304688 413.558594 695.070312 415.121094 695.914062 416.632812 C 706.125 435.371094 726.015625 448.101562 748.886719 448.222656 C 780.3125 448.367188 806.304688 424.558594 809.5 393.929688 C 809.714844 391.914062 809.835938 389.917969 809.835938 387.851562 C 809.886719 383.816406 809.5 379.949219 808.78125 376.175781 Z M 808.78125 376.175781 " fill-opacity="1" fill-rule="nonzero"></path><path fill="#ffffff" d="M 749.414062 337.234375 C 777.1875 337.355469 799.601562 359.984375 799.480469 387.757812 C 799.363281 415.527344 776.730469 437.941406 748.957031 437.820312 C 721.1875 437.703125 698.769531 415.070312 698.890625 387.300781 C 699.011719 359.527344 721.644531 337.113281 749.414062 337.234375 Z M 792.875 387.734375 C 792.996094 363.613281 773.535156 343.960938 749.390625 343.839844 C 725.269531 343.722656 705.617188 363.179688 705.5 387.324219 C 705.378906 411.46875 724.839844 431.09375 748.984375 431.214844 C 773.101562 431.3125 792.753906 411.851562 792.875 387.734375 Z M 792.875 387.734375 " fill-opacity="1" fill-rule="nonzero"></path><path fill="#ffffff" d="M 756.335938 368.175781 C 761.28125 370.074219 763.636719 374.328125 763.613281 380.332031 L 763.613281 381.246094 L 757.4375 381.222656 C 757.464844 377.882812 756.621094 375.457031 754.941406 374.015625 L 752.226562 385.089844 C 759.960938 386.339844 764.023438 389.390625 763.972656 395.804688 L 763.972656 396.285156 C 763.949219 403.613281 758.640625 408.054688 749.4375 408.03125 C 748.476562 408.03125 747.566406 407.960938 746.652344 407.886719 L 744.996094 414.78125 L 739.972656 414.757812 L 741.945312 406.710938 C 736.921875 404.621094 734.351562 400.367188 734.375 394.746094 L 734.375 394.386719 L 740.550781 394.410156 C 740.527344 397.316406 741.488281 399.550781 743.3125 400.96875 L 746.148438 389.292969 C 738.171875 387.925781 734.855469 384.585938 734.878906 378.890625 L 734.878906 378.410156 C 734.90625 371.277344 740.695312 367 749.296875 367.023438 C 750.085938 367.023438 750.855469 367.097656 751.601562 367.167969 L 753.257812 360.320312 L 758.28125 360.347656 Z M 747.347656 384.320312 L 750.257812 372.359375 C 749.945312 372.285156 749.582031 372.285156 749.296875 372.285156 L 749.054688 372.285156 C 744.632812 372.261719 741.175781 374.375 741.152344 378.050781 L 741.152344 378.363281 C 741.125 381.4375 742.6875 383.382812 747.347656 384.320312 Z M 757.582031 396.523438 L 757.582031 396.210938 C 757.609375 392.753906 755.542969 390.925781 750.953125 390.015625 L 747.878906 402.722656 C 748.359375 402.796875 748.839844 402.796875 749.320312 402.796875 L 749.558594 402.796875 C 754.292969 402.820312 757.558594 400.535156 757.582031 396.523438 Z M 757.582031 396.523438 " fill-opacity="1" fill-rule="nonzero"></path></svg>