<svg xmlns="http://www.w3.org/2000/svg" xmlns:xlink="http://www.w3.org/1999/xlink" width="1080" viewBox="0 0 810 809.999993" height="1080" preserveAspectRatio="xMidYMid meet"><defs><clipPath id="1f7405a88a"><path d="M 424 436 L 803 436 L 803 768.019531 L 424 768.019531 Z M 424 436 " clip-rule="nonzero"></path></clipPath><clipPath id="3ab75dca7c"><path d="M 4 465 L 546 465 L 546 768.019531 L 4 768.019531 Z M 4 465 " clip-rule="nonzero"></path></clipPath><clipPath id="fb861a5501"><path d="M 4 386 L 741 386 L 741 768.019531 L 4 768.019531 Z M 4 386 " clip-rule="nonzero"></path></clipPath></defs><rect x="-81" width="972" fill="#ffffff" y="-80.999999" height="971.999992" fill-opacity="1"></rect><rect x="-81" width="972" fill="#ffffff" y="-80.999999" height="971.999992" fill-opacity="1"></rect><path fill="#1976d2" d="M 736.273438 455.886719 L 713.042969 380.367188 C 712.398438 378.242188 711.667969 376.144531 710.851562 374.074219 C 710.039062 372.003906 709.144531 369.972656 708.167969 367.976562 C 707.1875 365.980469 706.132812 364.023438 705 362.113281 C 703.867188 360.199219 702.660156 358.335938 701.378906 356.519531 C 700.097656 354.703125 698.742188 352.941406 697.320312 351.234375 C 695.894531 349.527344 694.40625 347.878906 692.851562 346.289062 C 691.296875 344.699219 689.679688 343.175781 688.003906 341.71875 C 686.328125 340.257812 684.59375 338.867188 682.804688 337.546875 C 681.019531 336.226562 679.179688 334.980469 677.292969 333.808594 C 675.402344 332.632812 673.472656 331.539062 671.496094 330.519531 C 669.519531 329.5 667.507812 328.5625 665.457031 327.703125 C 663.40625 326.84375 661.324219 326.070312 659.210938 325.378906 C 657.097656 324.6875 654.960938 324.082031 652.800781 323.5625 C 650.636719 323.042969 648.460938 322.609375 646.265625 322.265625 C 644.066406 321.917969 641.863281 321.660156 639.644531 321.492188 C 637.429688 321.320312 635.210938 321.242188 632.988281 321.25 L 174.222656 321.25 C 172 321.242188 169.777344 321.320312 167.5625 321.492188 C 165.34375 321.660156 163.136719 321.917969 160.941406 322.265625 C 158.746094 322.613281 156.566406 323.042969 154.40625 323.566406 C 152.242188 324.085938 150.105469 324.691406 147.992188 325.382812 C 145.878906 326.074219 143.796875 326.847656 141.746094 327.707031 C 139.695312 328.566406 137.683594 329.503906 135.707031 330.523438 C 133.730469 331.542969 131.796875 332.636719 129.910156 333.8125 C 128.019531 334.984375 126.183594 336.234375 124.394531 337.554688 C 122.605469 338.875 120.875 340.265625 119.195312 341.726562 C 117.519531 343.183594 115.902344 344.707031 114.347656 346.296875 C 112.792969 347.886719 111.300781 349.535156 109.878906 351.242188 C 108.457031 352.949219 107.101562 354.710938 105.820312 356.527344 C 104.535156 358.34375 103.328125 360.210938 102.195312 362.121094 C 101.0625 364.035156 100.007812 365.992188 99.03125 367.988281 C 98.054688 369.984375 97.15625 372.019531 96.34375 374.085938 C 95.527344 376.15625 94.800781 378.253906 94.152344 380.382812 L 81.867188 420.34375 C 81.410156 421.835938 81.082031 423.351562 80.878906 424.898438 C 80.675781 426.445312 80.601562 428 80.660156 429.558594 C 80.714844 431.117188 80.902344 432.660156 81.214844 434.1875 C 81.53125 435.714844 81.972656 437.203125 82.535156 438.65625 C 83.101562 440.113281 83.785156 441.507812 84.582031 442.847656 C 85.382812 444.1875 86.285156 445.449219 87.296875 446.640625 C 88.308594 447.828125 89.410156 448.921875 90.605469 449.925781 C 91.796875 450.929688 93.066406 451.824219 94.410156 452.617188 L 503.824219 693.464844 C 505.183594 694.265625 506.597656 694.945312 508.070312 695.503906 C 509.542969 696.066406 511.054688 696.496094 512.601562 696.800781 C 514.148438 697.105469 515.707031 697.277344 517.285156 697.316406 C 518.859375 697.355469 520.425781 697.261719 521.984375 697.035156 C 523.546875 696.808594 525.074219 696.453125 526.574219 695.96875 C 528.074219 695.480469 529.523438 694.871094 530.917969 694.140625 C 532.3125 693.410156 533.640625 692.566406 534.894531 691.613281 C 536.144531 690.65625 537.308594 689.601562 538.382812 688.449219 L 729.988281 483.144531 C 730.824219 482.25 731.59375 481.304688 732.304688 480.308594 C 733.015625 479.316406 733.65625 478.277344 734.230469 477.199219 C 734.804688 476.121094 735.304688 475.007812 735.734375 473.863281 C 736.160156 472.71875 736.511719 471.550781 736.785156 470.359375 C 737.0625 469.167969 737.257812 467.964844 737.375 466.746094 C 737.488281 465.53125 737.527344 464.3125 737.484375 463.089844 C 737.441406 461.867188 737.316406 460.65625 737.113281 459.449219 C 736.914062 458.242188 736.632812 457.058594 736.273438 455.886719 Z M 736.273438 455.886719 " fill-opacity="1" fill-rule="nonzero"></path><path fill="#689f38" d="M 232.257812 468.9375 L 122.726562 404.488281 C 121.824219 403.957031 120.890625 403.476562 119.929688 403.046875 C 118.96875 402.621094 117.988281 402.246094 116.988281 401.929688 C 115.988281 401.613281 114.96875 401.355469 113.9375 401.152344 C 112.90625 400.949219 111.867188 400.808594 110.820312 400.722656 C 109.773438 400.636719 108.726562 400.613281 107.675781 400.644531 C 106.625 400.679688 105.582031 400.769531 104.542969 400.921875 C 103.5 401.074219 102.472656 401.285156 101.457031 401.550781 C 100.441406 401.820312 99.445312 402.144531 98.464844 402.523438 C 97.484375 402.902344 96.53125 403.335938 95.601562 403.824219 C 94.667969 404.3125 93.769531 404.851562 92.898438 405.441406 C 92.03125 406.03125 91.195312 406.667969 90.398438 407.351562 C 89.601562 408.035156 88.84375 408.761719 88.128906 409.53125 C 87.414062 410.300781 86.742188 411.109375 86.117188 411.953125 C 85.492188 412.796875 84.917969 413.675781 84.394531 414.585938 C 83.867188 415.492188 83.394531 416.429688 82.976562 417.394531 C 82.554688 418.355469 82.191406 419.339844 81.882812 420.34375 L 26.542969 600.207031 C 26.117188 601.589844 25.804688 602.996094 25.597656 604.425781 C 25.390625 605.855469 25.292969 607.292969 25.308594 608.738281 C 25.328125 610.183594 25.453125 611.621094 25.695312 613.046875 C 25.933594 614.472656 26.28125 615.871094 26.738281 617.242188 C 27.195312 618.613281 27.753906 619.941406 28.417969 621.222656 C 29.078125 622.507812 29.835938 623.734375 30.691406 624.902344 C 31.542969 626.066406 32.480469 627.160156 33.503906 628.183594 C 34.527344 629.203125 35.621094 630.140625 36.792969 630.988281 C 37.960938 631.839844 39.1875 632.597656 40.472656 633.257812 C 41.757812 633.917969 43.085938 634.472656 44.457031 634.929688 C 45.832031 635.382812 47.230469 635.726562 48.65625 635.964844 C 50.082031 636.199219 51.515625 636.324219 52.960938 636.339844 C 54.40625 636.351562 55.84375 636.253906 57.273438 636.042969 C 58.703125 635.835938 60.109375 635.515625 61.488281 635.089844 C 62.871094 634.660156 64.210938 634.128906 65.507812 633.492188 C 66.804688 632.855469 68.046875 632.125 69.230469 631.296875 L 234.097656 515.878906 C 234.574219 515.546875 235.042969 515.199219 235.496094 514.835938 C 235.949219 514.472656 236.394531 514.097656 236.824219 513.707031 C 237.253906 513.316406 237.675781 512.910156 238.082031 512.496094 C 238.484375 512.078125 238.878906 511.648438 239.257812 511.210938 C 239.636719 510.769531 240.003906 510.316406 240.351562 509.851562 C 240.703125 509.386719 241.039062 508.914062 241.359375 508.429688 C 241.683594 507.945312 241.988281 507.449219 242.277344 506.945312 C 242.570312 506.441406 242.84375 505.929688 243.101562 505.410156 C 243.359375 504.886719 243.601562 504.359375 243.828125 503.824219 C 244.050781 503.285156 244.261719 502.746094 244.453125 502.195312 C 244.644531 501.644531 244.816406 501.089844 244.976562 500.53125 C 245.132812 499.972656 245.269531 499.40625 245.390625 498.839844 C 245.515625 498.269531 245.617188 497.699219 245.703125 497.121094 C 245.789062 496.546875 245.855469 495.96875 245.90625 495.390625 C 245.957031 494.8125 245.988281 494.230469 246.003906 493.648438 C 246.015625 493.066406 246.011719 492.488281 245.988281 491.90625 C 245.964844 491.324219 245.925781 490.746094 245.867188 490.164062 C 245.804688 489.585938 245.730469 489.011719 245.632812 488.4375 C 245.539062 487.863281 245.425781 487.292969 245.296875 486.726562 C 245.164062 486.160156 245.015625 485.597656 244.851562 485.039062 C 244.6875 484.484375 244.503906 483.929688 244.300781 483.386719 C 244.101562 482.839844 243.886719 482.300781 243.652344 481.765625 C 243.417969 481.234375 243.167969 480.710938 242.902344 480.195312 C 242.632812 479.675781 242.351562 479.167969 242.054688 478.667969 C 241.753906 478.171875 241.441406 477.679688 241.113281 477.203125 C 240.785156 476.722656 240.441406 476.253906 240.082031 475.792969 C 239.722656 475.335938 239.351562 474.890625 238.964844 474.457031 C 238.578125 474.019531 238.179688 473.597656 237.765625 473.1875 C 237.355469 472.777344 236.929688 472.382812 236.492188 471.996094 C 236.054688 471.613281 235.605469 471.246094 235.144531 470.890625 C 234.6875 470.535156 234.214844 470.195312 233.734375 469.867188 C 233.25 469.542969 232.761719 469.230469 232.257812 468.9375 Z M 232.257812 468.9375 " fill-opacity="1" fill-rule="nonzero"></path><g clip-path="url(#1f7405a88a)"><path fill="#689f38" d="M 798.945312 659.613281 L 736.257812 455.886719 C 736.082031 455.304688 735.882812 454.730469 735.667969 454.160156 C 735.449219 453.59375 735.214844 453.03125 734.964844 452.476562 C 734.710938 451.925781 734.4375 451.378906 734.148438 450.84375 C 733.863281 450.308594 733.554688 449.78125 733.234375 449.265625 C 732.910156 448.75 732.570312 448.246094 732.214844 447.75 C 731.855469 447.257812 731.484375 446.777344 731.097656 446.308594 C 730.710938 445.835938 730.308594 445.382812 729.890625 444.9375 C 729.472656 444.496094 729.039062 444.066406 728.59375 443.652344 C 728.148438 443.238281 727.691406 442.835938 727.21875 442.453125 C 726.746094 442.066406 726.265625 441.699219 725.769531 441.34375 C 725.273438 440.992188 724.765625 440.65625 724.246094 440.335938 C 723.730469 440.015625 723.203125 439.714844 722.664062 439.429688 C 722.125 439.144531 721.578125 438.875 721.023438 438.625 C 720.46875 438.375 719.90625 438.144531 719.335938 437.933594 C 718.765625 437.71875 718.1875 437.527344 717.605469 437.351562 C 717.023438 437.175781 716.433594 437.019531 715.839844 436.882812 C 715.25 436.746094 714.652344 436.628906 714.050781 436.53125 C 713.449219 436.433594 712.847656 436.355469 712.238281 436.296875 C 711.632812 436.242188 711.027344 436.203125 710.417969 436.183594 C 709.808594 436.167969 709.203125 436.167969 708.59375 436.191406 C 707.984375 436.210938 707.378906 436.253906 706.773438 436.3125 C 706.167969 436.375 705.5625 436.457031 704.964844 436.558594 C 704.363281 436.65625 703.765625 436.777344 703.175781 436.917969 C 702.582031 437.058594 701.996094 437.214844 701.414062 437.394531 C 700.832031 437.574219 700.253906 437.769531 699.6875 437.984375 C 699.117188 438.203125 698.554688 438.4375 698 438.6875 C 697.445312 438.941406 696.902344 439.210938 696.367188 439.5 C 695.828125 439.789062 695.304688 440.09375 694.789062 440.417969 C 694.269531 440.738281 693.765625 441.078125 693.273438 441.433594 C 692.777344 441.789062 692.296875 442.160156 691.828125 442.546875 C 691.355469 442.9375 690.902344 443.339844 690.457031 443.753906 C 690.015625 444.171875 689.585938 444.605469 689.167969 445.050781 L 431.59375 721.046875 C 430.671875 722.039062 429.824219 723.089844 429.054688 724.199219 C 428.285156 725.3125 427.597656 726.472656 426.996094 727.6875 C 426.398438 728.898438 425.886719 730.148438 425.464844 731.433594 C 425.046875 732.71875 424.722656 734.027344 424.492188 735.363281 C 424.265625 736.695312 424.132812 738.039062 424.097656 739.390625 C 424.0625 740.742188 424.128906 742.089844 424.289062 743.433594 C 424.449219 744.773438 424.707031 746.097656 425.0625 747.40625 C 425.417969 748.710938 425.863281 749.984375 426.402344 751.222656 C 426.941406 752.464844 427.566406 753.660156 428.28125 754.808594 C 428.992188 755.960938 429.785156 757.050781 430.65625 758.085938 C 431.527344 759.121094 432.46875 760.085938 433.480469 760.984375 C 434.492188 761.882812 435.5625 762.703125 436.695312 763.445312 C 437.828125 764.183594 439.003906 764.84375 440.230469 765.414062 C 441.457031 765.984375 442.71875 766.460938 444.015625 766.847656 C 445.3125 767.238281 446.628906 767.527344 447.964844 767.722656 C 449.304688 767.921875 450.648438 768.019531 452.003906 768.019531 L 718.890625 768.019531 C 720.523438 768.019531 722.152344 767.972656 723.78125 767.875 C 725.410156 767.78125 727.035156 767.636719 728.65625 767.449219 C 730.277344 767.257812 731.890625 767.019531 733.496094 766.734375 C 735.101562 766.453125 736.699219 766.121094 738.285156 765.742188 C 739.875 765.363281 741.449219 764.941406 743.011719 764.472656 C 744.574219 764 746.121094 763.484375 747.652344 762.925781 C 749.183594 762.367188 750.699219 761.761719 752.195312 761.113281 C 753.695312 760.464844 755.171875 759.773438 756.625 759.035156 C 758.082031 758.300781 759.515625 757.523438 760.929688 756.707031 C 762.339844 755.886719 763.726562 755.027344 765.085938 754.128906 C 766.449219 753.226562 767.78125 752.289062 769.085938 751.3125 C 770.394531 750.332031 771.667969 749.320312 772.917969 748.265625 C 774.164062 747.214844 775.378906 746.125 776.5625 745.003906 C 777.746094 743.878906 778.894531 742.722656 780.011719 741.53125 C 781.125 740.339844 782.207031 739.117188 783.25 737.867188 C 784.292969 736.613281 785.300781 735.328125 786.269531 734.015625 C 787.238281 732.703125 788.167969 731.363281 789.058594 729.996094 C 789.949219 728.628906 790.800781 727.238281 791.609375 725.820312 C 792.421875 724.40625 793.1875 722.964844 793.914062 721.503906 C 794.640625 720.042969 795.320312 718.5625 795.960938 717.0625 C 796.601562 715.558594 797.195312 714.042969 797.746094 712.503906 C 798.296875 710.96875 798.800781 709.417969 799.257812 707.851562 C 799.71875 706.289062 800.132812 704.710938 800.5 703.121094 C 800.867188 701.53125 801.1875 699.929688 801.460938 698.324219 C 801.738281 696.714844 801.964844 695.097656 802.144531 693.476562 C 802.324219 691.855469 802.453125 690.230469 802.539062 688.601562 C 802.625 686.972656 802.660156 685.339844 802.652344 683.710938 C 802.640625 682.078125 802.582031 680.449219 802.476562 678.820312 C 802.371094 677.191406 802.21875 675.566406 802.015625 673.949219 C 801.816406 672.328125 801.566406 670.71875 801.273438 669.113281 C 800.976562 667.507812 800.636719 665.914062 800.25 664.328125 C 799.859375 662.742188 799.425781 661.171875 798.945312 659.613281 Z M 798.945312 659.613281 " fill-opacity="1" fill-rule="nonzero"></path></g><g clip-path="url(#3ab75dca7c)"><path fill="#1976d2" d="M 532.125 645.335938 L 232.246094 468.9375 C 231.097656 468.261719 229.910156 467.671875 228.675781 467.167969 C 227.445312 466.660156 226.183594 466.246094 224.894531 465.921875 C 223.605469 465.597656 222.296875 465.367188 220.972656 465.230469 C 219.648438 465.089844 218.324219 465.050781 216.992188 465.101562 C 215.664062 465.152344 214.34375 465.300781 213.035156 465.542969 C 211.726562 465.78125 210.441406 466.117188 209.179688 466.539062 C 207.917969 466.964844 206.695312 467.476562 205.503906 468.078125 C 204.316406 468.679688 203.179688 469.359375 202.089844 470.121094 L 37.21875 585.535156 C 34.671875 587.320312 32.484375 589.46875 30.65625 591.980469 C 28.828125 594.492188 27.457031 597.234375 26.542969 600.207031 L 8.261719 659.601562 C 7.78125 661.160156 7.347656 662.730469 6.960938 664.316406 C 6.570312 665.902344 6.230469 667.496094 5.933594 669.101562 C 5.640625 670.707031 5.390625 672.316406 5.191406 673.9375 C 4.988281 675.558594 4.835938 677.179688 4.730469 678.808594 C 4.625 680.4375 4.566406 682.066406 4.554688 683.699219 C 4.542969 685.332031 4.582031 686.960938 4.664062 688.589844 C 4.75 690.21875 4.882812 691.847656 5.0625 693.46875 C 5.242188 695.089844 5.46875 696.703125 5.742188 698.3125 C 6.015625 699.921875 6.335938 701.519531 6.703125 703.113281 C 7.070312 704.703125 7.484375 706.277344 7.945312 707.84375 C 8.402344 709.410156 8.910156 710.960938 9.460938 712.496094 C 10.007812 714.035156 10.605469 715.550781 11.242188 717.054688 C 11.882812 718.554688 12.5625 720.035156 13.289062 721.5 C 14.015625 722.960938 14.78125 724.398438 15.59375 725.816406 C 16.402344 727.234375 17.253906 728.625 18.144531 729.992188 C 19.035156 731.359375 19.964844 732.699219 20.933594 734.011719 C 21.902344 735.324219 22.910156 736.605469 23.953125 737.859375 C 25 739.113281 26.078125 740.335938 27.195312 741.527344 C 28.308594 742.71875 29.457031 743.875 30.640625 745 C 31.824219 746.121094 33.039062 747.210938 34.289062 748.261719 C 35.535156 749.316406 36.8125 750.332031 38.117188 751.308594 C 39.421875 752.285156 40.757812 753.226562 42.117188 754.125 C 43.480469 755.027344 44.863281 755.886719 46.277344 756.703125 C 47.6875 757.523438 49.121094 758.300781 50.578125 759.035156 C 52.035156 759.769531 53.511719 760.460938 55.007812 761.109375 C 56.507812 761.761719 58.019531 762.363281 59.554688 762.925781 C 61.085938 763.484375 62.632812 764 64.195312 764.46875 C 65.757812 764.941406 67.332031 765.363281 68.921875 765.742188 C 70.507812 766.121094 72.105469 766.449219 73.710938 766.734375 C 75.316406 767.019531 76.929688 767.257812 78.550781 767.449219 C 80.171875 767.636719 81.796875 767.78125 83.425781 767.875 C 85.054688 767.972656 86.683594 768.019531 88.316406 768.019531 L 452.003906 768.019531 C 453.917969 768.019531 455.8125 767.824219 457.6875 767.433594 C 459.558594 767.042969 461.375 766.46875 463.132812 765.703125 C 464.886719 764.941406 466.546875 764.007812 468.109375 762.902344 C 469.671875 761.796875 471.109375 760.542969 472.414062 759.144531 L 538.386719 688.449219 C 539.097656 687.6875 539.765625 686.886719 540.386719 686.050781 C 541.007812 685.214844 541.582031 684.347656 542.105469 683.445312 C 542.628906 682.546875 543.105469 681.617188 543.523438 680.664062 C 543.945312 679.710938 544.3125 678.738281 544.625 677.742188 C 544.933594 676.746094 545.191406 675.738281 545.390625 674.714844 C 545.585938 673.691406 545.726562 672.660156 545.8125 671.621094 C 545.894531 670.582031 545.917969 669.542969 545.886719 668.5 C 545.851562 667.457031 545.761719 666.421875 545.609375 665.390625 C 545.460938 664.359375 545.253906 663.339844 544.988281 662.328125 C 544.726562 661.320312 544.40625 660.332031 544.03125 659.359375 C 543.65625 658.386719 543.226562 657.4375 542.746094 656.511719 C 542.265625 655.589844 541.734375 654.691406 541.152344 653.828125 C 540.570312 652.964844 539.941406 652.132812 539.269531 651.339844 C 538.59375 650.542969 537.875 649.789062 537.117188 649.074219 C 536.359375 648.359375 535.5625 647.691406 534.726562 647.066406 C 533.894531 646.441406 533.027344 645.863281 532.128906 645.335938 Z M 532.125 645.335938 " fill-opacity="1" fill-rule="nonzero"></path></g><g clip-path="url(#fb861a5501)"><path fill="#ffb300" d="M 740.894531 471.195312 L 463.914062 768.019531 L 387.6875 768.019531 L 473.6875 675.871094 L 219.324219 526.203125 L 4.609375 676.429688 C 5.148438 670.703125 6.359375 665.117188 8.238281 659.675781 L 29.457031 590.988281 L 166.550781 494.929688 L 75.527344 441.320312 L 92.28125 386.589844 L 512.777344 633.988281 L 718.277344 413.953125 C 719.378906 412.605469 720.683594 411.488281 722.1875 410.601562 Z M 740.894531 471.195312 " fill-opacity="1" fill-rule="nonzero"></path></g><path fill="#f44336" d="M 539.898438 100.375 C 535.246094 95.800781 530.375 91.476562 525.285156 87.398438 C 520.195312 83.320312 514.914062 79.511719 509.4375 75.96875 C 503.964844 72.425781 498.324219 69.167969 492.519531 66.195312 C 486.714844 63.222656 480.773438 60.554688 474.695312 58.183594 C 468.621094 55.8125 462.441406 53.757812 456.15625 52.011719 C 449.871094 50.269531 443.515625 48.847656 437.089844 47.746094 C 430.660156 46.648438 424.191406 45.875 417.6875 45.429688 C 411.179688 44.984375 404.667969 44.871094 398.152344 45.085938 C 395.042969 45.199219 391.941406 45.386719 388.84375 45.644531 C 385.746094 45.90625 382.65625 46.238281 379.574219 46.644531 C 376.492188 47.050781 373.421875 47.53125 370.363281 48.082031 C 367.304688 48.632812 364.261719 49.257812 361.230469 49.953125 C 358.199219 50.648438 355.191406 51.414062 352.195312 52.253906 C 349.203125 53.089844 346.230469 54 343.28125 54.976562 C 340.328125 55.957031 337.402344 57.003906 334.503906 58.121094 C 331.601562 59.238281 328.730469 60.421875 325.882812 61.671875 C 323.039062 62.925781 320.226562 64.246094 317.441406 65.632812 C 314.660156 67.015625 311.910156 68.46875 309.199219 69.984375 C 306.484375 71.5 303.808594 73.078125 301.167969 74.71875 C 298.527344 76.363281 295.929688 78.066406 293.371094 79.832031 C 290.8125 81.597656 288.296875 83.421875 285.824219 85.304688 C 283.351562 87.1875 280.925781 89.128906 278.542969 91.128906 C 276.164062 93.128906 273.832031 95.183594 271.546875 97.292969 C 269.265625 99.398438 267.03125 101.5625 264.851562 103.777344 C 262.667969 105.992188 260.539062 108.257812 258.464844 110.570312 C 256.390625 112.886719 254.375 115.25 252.410156 117.660156 C 250.449219 120.070312 248.542969 122.527344 246.699219 125.027344 C 244.851562 127.53125 243.066406 130.074219 241.339844 132.65625 C 239.613281 135.242188 237.949219 137.867188 236.347656 140.53125 C 234.746094 143.195312 233.207031 145.894531 231.730469 148.632812 C 230.257812 151.371094 228.847656 154.140625 227.503906 156.941406 C 226.164062 159.746094 224.886719 162.582031 223.675781 165.445312 C 222.46875 168.308594 221.324219 171.199219 220.253906 174.117188 C 219.179688 177.035156 218.175781 179.976562 217.242188 182.941406 C 216.308594 185.90625 215.445312 188.890625 214.65625 191.898438 C 213.863281 194.902344 213.140625 197.925781 212.492188 200.964844 C 211.84375 204.007812 211.265625 207.058594 210.757812 210.128906 C 210.253906 213.195312 209.820312 216.273438 209.460938 219.359375 C 209.101562 222.449219 208.816406 225.542969 208.601562 228.644531 C 208.390625 231.746094 208.25 234.847656 208.183594 237.957031 C 208.09375 243.246094 208.222656 248.53125 208.570312 253.808594 C 208.917969 259.089844 209.484375 264.34375 210.265625 269.574219 C 211.046875 274.808594 212.042969 280 213.253906 285.148438 C 214.464844 290.296875 215.886719 295.390625 217.515625 300.421875 C 219.148438 305.453125 220.984375 310.410156 223.023438 315.289062 C 225.066406 320.171875 227.304688 324.957031 229.738281 329.65625 C 232.175781 334.351562 234.800781 338.9375 237.617188 343.414062 C 240.433594 347.894531 243.425781 352.25 246.601562 356.480469 C 250.121094 361.757812 338.136719 484.152344 366.261719 523.132812 C 366.777344 523.84375 367.308594 524.539062 367.863281 525.214844 C 368.414062 525.894531 368.988281 526.554688 369.582031 527.203125 C 370.171875 527.847656 370.785156 528.472656 371.414062 529.082031 C 372.042969 529.691406 372.6875 530.28125 373.351562 530.851562 C 374.015625 531.421875 374.695312 531.972656 375.390625 532.503906 C 376.089844 533.035156 376.800781 533.546875 377.527344 534.035156 C 378.253906 534.523438 378.992188 534.992188 379.746094 535.4375 C 380.5 535.882812 381.265625 536.304688 382.042969 536.707031 C 382.824219 537.105469 383.613281 537.484375 384.414062 537.839844 C 385.214844 538.191406 386.023438 538.523438 386.84375 538.828125 C 387.664062 539.136719 388.496094 539.417969 389.332031 539.675781 C 390.167969 539.933594 391.011719 540.164062 391.863281 540.371094 C 392.714844 540.582031 393.570312 540.761719 394.429688 540.921875 C 395.292969 541.078125 396.15625 541.210938 397.027344 541.316406 C 397.894531 541.421875 398.765625 541.503906 399.640625 541.558594 C 400.515625 541.613281 401.390625 541.644531 402.265625 541.648438 C 403.140625 541.652344 404.015625 541.628906 404.890625 541.582031 C 405.761719 541.535156 406.636719 541.460938 407.507812 541.363281 C 408.375 541.261719 409.242188 541.136719 410.105469 540.988281 C 410.96875 540.839844 411.824219 540.664062 412.675781 540.460938 C 413.53125 540.261719 414.375 540.035156 415.214844 539.785156 C 416.054688 539.535156 416.882812 539.261719 417.707031 538.960938 C 418.53125 538.664062 419.34375 538.339844 420.148438 537.992188 C 420.953125 537.644531 421.746094 537.277344 422.527344 536.882812 C 423.308594 536.488281 424.078125 536.074219 424.835938 535.632812 C 425.59375 535.195312 426.339844 534.734375 427.070312 534.25 C 427.800781 533.769531 428.515625 533.265625 429.214844 532.738281 C 429.917969 532.214844 430.601562 531.667969 431.269531 531.105469 C 431.9375 530.539062 432.589844 529.953125 433.226562 529.351562 C 433.859375 528.746094 434.476562 528.125 435.074219 527.484375 C 435.671875 526.847656 436.25 526.1875 436.808594 525.515625 C 437.367188 524.839844 437.90625 524.152344 438.425781 523.445312 C 439.496094 522.03125 555.625 363.234375 560.144531 357.476562 C 563.257812 353.277344 566.203125 348.960938 568.972656 344.527344 C 571.746094 340.097656 574.339844 335.5625 576.75 330.921875 C 579.164062 326.285156 581.386719 321.558594 583.425781 316.746094 C 585.460938 311.929688 587.304688 307.042969 588.953125 302.082031 C 590.605469 297.121094 592.054688 292.101562 593.304688 287.027344 C 594.558594 281.953125 595.605469 276.835938 596.453125 271.675781 C 597.296875 266.515625 597.9375 261.332031 598.371094 256.121094 C 598.804688 250.914062 599.03125 245.695312 599.054688 240.464844 C 599.074219 233.949219 598.769531 227.449219 598.136719 220.960938 C 597.5 214.476562 596.542969 208.039062 595.261719 201.652344 C 593.976562 195.261719 592.378906 188.953125 590.460938 182.726562 C 588.539062 176.496094 586.3125 170.382812 583.777344 164.378906 C 581.246094 158.375 578.414062 152.515625 575.289062 146.796875 C 572.164062 141.078125 568.757812 135.535156 565.074219 130.160156 C 561.386719 124.785156 557.441406 119.609375 553.234375 114.632812 C 549.027344 109.65625 544.582031 104.902344 539.898438 100.375 Z M 539.898438 100.375 " fill-opacity="1" fill-rule="nonzero"></path><path fill="#eeeeee" d="M 487.367188 243.066406 C 487.367188 244.4375 487.335938 245.804688 487.265625 247.175781 C 487.199219 248.542969 487.097656 249.910156 486.964844 251.277344 C 486.828125 252.640625 486.664062 254 486.460938 255.355469 C 486.261719 256.710938 486.027344 258.0625 485.757812 259.40625 C 485.492188 260.753906 485.191406 262.089844 484.855469 263.417969 C 484.523438 264.75 484.160156 266.070312 483.761719 267.382812 C 483.363281 268.695312 482.933594 269.996094 482.472656 271.285156 C 482.007812 272.578125 481.515625 273.855469 480.992188 275.121094 C 480.46875 276.386719 479.910156 277.640625 479.324219 278.878906 C 478.738281 280.121094 478.125 281.34375 477.476562 282.554688 C 476.832031 283.761719 476.15625 284.953125 475.449219 286.128906 C 474.746094 287.308594 474.011719 288.464844 473.25 289.605469 C 472.488281 290.746094 471.699219 291.863281 470.882812 292.964844 C 470.066406 294.066406 469.222656 295.148438 468.355469 296.207031 C 467.484375 297.265625 466.589844 298.304688 465.667969 299.320312 C 464.75 300.335938 463.804688 301.328125 462.832031 302.296875 C 461.863281 303.269531 460.871094 304.214844 459.855469 305.132812 C 458.839844 306.054688 457.804688 306.949219 456.742188 307.820312 C 455.683594 308.6875 454.601562 309.53125 453.5 310.347656 C 452.402344 311.164062 451.28125 311.953125 450.140625 312.714844 C 449 313.476562 447.84375 314.210938 446.667969 314.917969 C 445.492188 315.621094 444.300781 316.296875 443.089844 316.941406 C 441.882812 317.589844 440.65625 318.207031 439.417969 318.792969 C 438.179688 319.378906 436.925781 319.933594 435.660156 320.457031 C 434.390625 320.980469 433.113281 321.476562 431.824219 321.9375 C 430.53125 322.398438 429.230469 322.828125 427.917969 323.226562 C 426.609375 323.625 425.285156 323.992188 423.957031 324.324219 C 422.628906 324.65625 421.289062 324.957031 419.945312 325.222656 C 418.601562 325.492188 417.25 325.726562 415.894531 325.925781 C 414.539062 326.128906 413.179688 326.296875 411.8125 326.429688 C 410.449219 326.566406 409.082031 326.664062 407.714844 326.734375 C 406.34375 326.800781 404.976562 326.835938 403.605469 326.835938 C 402.234375 326.835938 400.863281 326.800781 399.492188 326.734375 C 398.125 326.664062 396.757812 326.566406 395.394531 326.429688 C 394.03125 326.296875 392.667969 326.128906 391.3125 325.925781 C 389.957031 325.726562 388.605469 325.492188 387.261719 325.222656 C 385.917969 324.957031 384.582031 324.65625 383.25 324.324219 C 381.921875 323.992188 380.601562 323.625 379.289062 323.226562 C 377.976562 322.828125 376.675781 322.398438 375.382812 321.9375 C 374.09375 321.476562 372.816406 320.980469 371.550781 320.457031 C 370.28125 319.933594 369.03125 319.378906 367.789062 318.792969 C 366.550781 318.207031 365.328125 317.589844 364.117188 316.941406 C 362.910156 316.296875 361.714844 315.621094 360.539062 314.917969 C 359.363281 314.210938 358.207031 313.476562 357.066406 312.714844 C 355.925781 311.953125 354.808594 311.164062 353.707031 310.347656 C 352.605469 309.53125 351.523438 308.6875 350.464844 307.820312 C 349.40625 306.949219 348.367188 306.054688 347.351562 305.132812 C 346.335938 304.214844 345.34375 303.269531 344.375 302.296875 C 343.40625 301.328125 342.460938 300.335938 341.539062 299.320312 C 340.617188 298.304688 339.722656 297.265625 338.855469 296.207031 C 337.984375 295.148438 337.140625 294.066406 336.324219 292.964844 C 335.507812 291.863281 334.71875 290.746094 333.957031 289.605469 C 333.195312 288.464844 332.460938 287.308594 331.757812 286.128906 C 331.050781 284.953125 330.378906 283.761719 329.730469 282.554688 C 329.085938 281.34375 328.46875 280.121094 327.882812 278.878906 C 327.296875 277.640625 326.742188 276.386719 326.214844 275.121094 C 325.691406 273.855469 325.199219 272.578125 324.738281 271.285156 C 324.273438 269.996094 323.84375 268.695312 323.445312 267.382812 C 323.050781 266.070312 322.683594 264.75 322.351562 263.417969 C 322.015625 262.089844 321.71875 260.753906 321.449219 259.40625 C 321.183594 258.0625 320.949219 256.710938 320.746094 255.355469 C 320.546875 254 320.378906 252.640625 320.242188 251.277344 C 320.109375 249.910156 320.007812 248.542969 319.941406 247.175781 C 319.875 245.804688 319.839844 244.4375 319.839844 243.066406 C 319.839844 241.695312 319.875 240.324219 319.941406 238.953125 C 320.007812 237.585938 320.109375 236.21875 320.242188 234.855469 C 320.378906 233.488281 320.546875 232.128906 320.746094 230.773438 C 320.949219 229.417969 321.183594 228.066406 321.449219 226.722656 C 321.71875 225.378906 322.015625 224.039062 322.351562 222.710938 C 322.683594 221.378906 323.050781 220.058594 323.445312 218.746094 C 323.84375 217.4375 324.273438 216.132812 324.738281 214.84375 C 325.199219 213.554688 325.691406 212.273438 326.214844 211.007812 C 326.742188 209.742188 327.296875 208.488281 327.882812 207.25 C 328.46875 206.007812 329.085938 204.785156 329.730469 203.578125 C 330.378906 202.367188 331.050781 201.175781 331.757812 200 C 332.460938 198.824219 333.195312 197.664062 333.957031 196.523438 C 334.71875 195.386719 335.507812 194.265625 336.324219 193.164062 C 337.140625 192.0625 337.984375 190.980469 338.855469 189.921875 C 339.722656 188.863281 340.617188 187.824219 341.539062 186.808594 C 342.460938 185.792969 343.40625 184.800781 344.375 183.832031 C 345.34375 182.863281 346.335938 181.917969 347.351562 180.996094 C 348.367188 180.074219 349.40625 179.179688 350.464844 178.308594 C 351.523438 177.441406 352.605469 176.597656 353.707031 175.78125 C 354.808594 174.964844 355.925781 174.175781 357.066406 173.414062 C 358.207031 172.652344 359.363281 171.917969 360.539062 171.214844 C 361.714844 170.507812 362.910156 169.832031 364.117188 169.1875 C 365.328125 168.539062 366.550781 167.925781 367.789062 167.339844 C 369.03125 166.753906 370.28125 166.195312 371.550781 165.671875 C 372.816406 165.148438 374.09375 164.65625 375.382812 164.191406 C 376.675781 163.730469 377.976562 163.300781 379.289062 162.902344 C 380.601562 162.503906 381.921875 162.140625 383.25 161.804688 C 384.582031 161.472656 385.917969 161.171875 387.261719 160.90625 C 388.605469 160.636719 389.957031 160.402344 391.3125 160.203125 C 392.667969 160 394.03125 159.832031 395.394531 159.699219 C 396.757812 159.566406 398.125 159.464844 399.492188 159.398438 C 400.863281 159.328125 402.234375 159.296875 403.605469 159.296875 C 404.976562 159.296875 406.34375 159.328125 407.714844 159.398438 C 409.082031 159.464844 410.449219 159.566406 411.8125 159.699219 C 413.179688 159.832031 414.539062 160 415.894531 160.203125 C 417.25 160.402344 418.601562 160.636719 419.945312 160.90625 C 421.289062 161.171875 422.628906 161.472656 423.957031 161.804688 C 425.285156 162.140625 426.609375 162.503906 427.917969 162.902344 C 429.230469 163.300781 430.53125 163.730469 431.824219 164.191406 C 433.113281 164.65625 434.390625 165.148438 435.660156 165.671875 C 436.925781 166.195312 438.179688 166.753906 439.417969 167.339844 C 440.65625 167.925781 441.882812 168.539062 443.089844 169.1875 C 444.300781 169.832031 445.492188 170.507812 446.667969 171.214844 C 447.84375 171.917969 449 172.652344 450.140625 173.414062 C 451.28125 174.175781 452.402344 174.964844 453.503906 175.78125 C 454.601562 176.597656 455.683594 177.441406 456.742188 178.308594 C 457.804688 179.179688 458.839844 180.074219 459.855469 180.996094 C 460.871094 181.917969 461.863281 182.863281 462.832031 183.832031 C 463.804688 184.800781 464.75 185.792969 465.667969 186.808594 C 466.589844 187.824219 467.484375 188.863281 468.355469 189.921875 C 469.222656 190.980469 470.066406 192.0625 470.882812 193.164062 C 471.699219 194.265625 472.488281 195.386719 473.25 196.523438 C 474.011719 197.664062 474.746094 198.824219 475.449219 200 C 476.15625 201.175781 476.832031 202.367188 477.476562 203.578125 C 478.125 204.785156 478.738281 206.007812 479.324219 207.25 C 479.910156 208.488281 480.46875 209.742188 480.992188 211.007812 C 481.515625 212.273438 482.007812 213.554688 482.472656 214.84375 C 482.933594 216.132812 483.363281 217.4375 483.761719 218.746094 C 484.160156 220.058594 484.523438 221.378906 484.855469 222.710938 C 485.191406 224.039062 485.492188 225.378906 485.757812 226.722656 C 486.027344 228.066406 486.261719 229.417969 486.460938 230.773438 C 486.664062 232.128906 486.828125 233.488281 486.964844 234.855469 C 487.097656 236.21875 487.199219 237.585938 487.265625 238.953125 C 487.335938 240.324219 487.367188 241.695312 487.367188 243.066406 Z M 487.367188 243.066406 " fill-opacity="1" fill-rule="nonzero"></path></svg>