<svg xmlns="http://www.w3.org/2000/svg" xmlns:xlink="http://www.w3.org/1999/xlink" width="1080" viewBox="0 0 810 809.999993" height="1080" preserveAspectRatio="xMidYMid meet"><defs><clipPath id="e7d942baa1"><path d="M 480 316 L 810 316 L 810 695.90625 L 480 695.90625 Z M 480 316 " clip-rule="nonzero"></path></clipPath><clipPath id="0deeba6fee"><path d="M 0 316 L 443 316 L 443 695.90625 L 0 695.90625 Z M 0 316 " clip-rule="nonzero"></path></clipPath><clipPath id="4701d04cc8"><path d="M 278 113.90625 L 557 113.90625 L 557 393 L 278 393 Z M 278 113.90625 " clip-rule="nonzero"></path></clipPath></defs><g clip-path="url(#e7d942baa1)"><path fill="#d0b444" d="M 697.421875 476.699219 C 719.601562 460.578125 734.0625 434.457031 734.0625 405 C 734.0625 356.148438 694.320312 316.40625 645.46875 316.40625 C 596.617188 316.40625 556.875 356.148438 556.875 405 C 556.875 434.457031 571.335938 460.578125 593.515625 476.699219 C 528.175781 498.5 480.9375 560.246094 480.9375 632.8125 L 480.9375 658.125 C 480.9375 679.054688 497.976562 696.09375 518.90625 696.09375 L 772.03125 696.09375 C 792.960938 696.09375 810 679.054688 810 658.125 L 810 632.8125 C 810 560.246094 762.761719 498.5 697.421875 476.699219 Z M 582.1875 405 C 582.1875 370.101562 610.570312 341.71875 645.46875 341.71875 C 680.367188 341.71875 708.75 370.101562 708.75 405 C 708.75 439.898438 680.367188 468.28125 645.46875 468.28125 C 610.570312 468.28125 582.1875 439.898438 582.1875 405 Z M 784.6875 658.125 C 784.6875 665.101562 779.007812 670.78125 772.03125 670.78125 L 746.71875 670.78125 L 746.71875 607.5 C 746.71875 600.507812 741.054688 594.84375 734.0625 594.84375 C 727.070312 594.84375 721.40625 600.507812 721.40625 607.5 L 721.40625 670.78125 L 569.53125 670.78125 L 569.53125 607.5 C 569.53125 600.507812 563.867188 594.84375 556.875 594.84375 C 549.882812 594.84375 544.21875 600.507812 544.21875 607.5 L 544.21875 670.78125 L 518.90625 670.78125 C 511.929688 670.78125 506.25 665.101562 506.25 658.125 L 506.25 632.8125 C 506.25 560.308594 561.953125 500.585938 632.8125 494.179688 L 632.8125 556.875 C 632.8125 563.867188 638.476562 569.53125 645.46875 569.53125 C 652.460938 569.53125 658.125 563.867188 658.125 556.875 L 658.125 494.179688 C 728.984375 500.601562 784.6875 560.324219 784.6875 632.8125 Z M 784.6875 658.125 " fill-opacity="1" fill-rule="nonzero"></path></g><g clip-path="url(#0deeba6fee)"><path fill="#d0b444" d="M 438.664062 501.441406 C 433.683594 491.472656 424.695312 483.894531 414.019531 480.667969 C 403.59375 477.519531 392.21875 478.691406 382.675781 483.910156 L 305.457031 517.070312 C 292.34375 507.738281 259.785156 486.757812 217.988281 475.605469 C 239.3125 459.40625 253.125 433.792969 253.125 405.015625 C 253.125 356.164062 213.382812 316.421875 164.53125 316.421875 C 115.679688 316.421875 75.9375 356.164062 75.9375 405.015625 C 75.9375 433.128906 89.117188 458.21875 109.601562 474.449219 C 85.667969 480.320312 65.335938 490.367188 48.867188 504.589844 C 16.4375 532.574219 0 575.71875 0 632.8125 L 0 658.125 C 0 679.054688 17.039062 696.09375 37.96875 696.09375 L 215.15625 696.09375 C 236.085938 696.09375 253.125 679.054688 253.125 658.125 L 253.125 591.601562 C 267.539062 599.132812 287.25 607.5 303.75 607.5 C 336.863281 607.5 412.5625 561.164062 422.292969 555.117188 C 441.195312 544.410156 448.394531 520.898438 438.648438 501.441406 Z M 101.25 405 C 101.25 370.101562 129.632812 341.71875 164.53125 341.71875 C 199.429688 341.71875 227.8125 370.101562 227.8125 405 C 227.8125 439.898438 199.429688 468.28125 164.53125 468.28125 C 129.632812 468.28125 101.25 439.898438 101.25 405 Z M 409.714844 533.160156 C 409.523438 533.253906 409.351562 533.367188 409.175781 533.476562 C 378.894531 552.320312 323.507812 582.1875 303.75 582.1875 C 286.207031 582.1875 257.175781 565.449219 247.492188 558.996094 C 243.601562 556.402344 238.617188 556.164062 234.503906 558.363281 C 230.390625 560.5625 227.8125 564.847656 227.8125 569.515625 L 227.8125 658.109375 C 227.8125 665.085938 222.132812 670.765625 215.15625 670.765625 L 88.59375 670.765625 L 88.59375 607.484375 C 88.59375 600.492188 82.929688 594.828125 75.9375 594.828125 C 68.945312 594.828125 63.28125 600.492188 63.28125 607.484375 L 63.28125 670.765625 L 37.96875 670.765625 C 30.992188 670.765625 25.3125 665.085938 25.3125 658.109375 L 25.3125 632.796875 C 25.3125 544.742188 67.902344 498.101562 151.875 493.925781 L 151.875 556.859375 C 151.875 563.851562 157.539062 569.515625 164.53125 569.515625 C 171.523438 569.515625 177.1875 563.851562 177.1875 556.859375 L 177.1875 494.085938 C 242.019531 499.148438 295.285156 540.992188 295.839844 541.433594 C 299.496094 544.359375 304.445312 545.027344 308.734375 543.175781 L 393.261719 506.882812 C 393.703125 506.691406 394.132812 506.488281 394.542969 506.234375 C 398.261719 504.113281 402.5625 503.625 406.675781 504.859375 C 410.773438 506.109375 414.097656 508.890625 416.011719 512.738281 C 419.710938 520.15625 416.945312 529.109375 409.699219 533.144531 Z M 409.714844 533.160156 " fill-opacity="1" fill-rule="nonzero"></path></g><g clip-path="url(#4701d04cc8)"><path fill="#d0b444" d="M 279.464844 374.703125 C 277.425781 379.464844 278.484375 384.988281 282.15625 388.640625 C 284.574219 391.0625 287.820312 392.34375 291.109375 392.34375 C 292.785156 392.34375 294.480469 392.011719 296.09375 391.316406 L 343.539062 370.988281 C 365.71875 384.988281 391.203125 392.34375 417.671875 392.34375 C 494.433594 392.34375 556.890625 329.886719 556.890625 253.125 C 556.890625 176.363281 494.433594 113.90625 417.671875 113.90625 C 340.910156 113.90625 278.453125 176.363281 278.453125 253.125 C 278.453125 279.59375 285.808594 305.0625 299.8125 327.257812 L 279.480469 374.703125 Z M 417.65625 139.21875 C 480.460938 139.21875 531.5625 190.320312 531.5625 253.125 C 531.5625 315.933594 480.460938 367.03125 417.65625 367.03125 C 394.035156 367.03125 371.382812 359.863281 352.128906 346.304688 C 349.960938 344.789062 347.414062 343.996094 344.835938 343.996094 C 343.140625 343.996094 341.449219 344.328125 339.851562 345.023438 L 315.1875 355.59375 L 325.757812 330.929688 C 327.480469 326.894531 327.003906 322.242188 324.476562 318.652344 C 310.917969 299.414062 303.75 276.761719 303.75 253.125 C 303.75 190.316406 354.847656 139.21875 417.65625 139.21875 Z M 417.65625 139.21875 " fill-opacity="1" fill-rule="nonzero"></path></g><path fill="#d0b444" d="M 396.046875 300.046875 C 398.417969 302.421875 401.644531 303.75 405 303.75 C 405.238281 303.75 405.457031 303.75 405.695312 303.734375 C 409.289062 303.542969 412.625 301.820312 414.871094 299.003906 L 465.496094 235.722656 C 469.863281 230.265625 468.976562 222.308594 463.519531 217.941406 C 458.0625 213.574219 450.105469 214.460938 445.738281 219.917969 L 403.941406 272.15625 L 388.625 256.84375 C 383.691406 251.90625 375.667969 251.90625 370.734375 256.84375 C 365.796875 261.777344 365.796875 269.800781 370.734375 274.734375 Z M 396.046875 300.046875 " fill-opacity="1" fill-rule="nonzero"></path></svg>