<svg xmlns="http://www.w3.org/2000/svg" xmlns:xlink="http://www.w3.org/1999/xlink" width="1080" viewBox="0 0 810 809.999993" height="1080" preserveAspectRatio="xMidYMid meet"><path fill="#d0b444" d="M 405.949219 -0.355469 C 396.59375 -0.355469 390.082031 3.265625 382.832031 7.222656 C 375.585938 11.179688 368.152344 16.058594 360.890625 21.007812 C 353.628906 25.957031 346.5 31.019531 340.535156 34.824219 C 334.570312 38.628906 329.128906 41.171875 328.417969 41.363281 C 327.707031 41.585938 321.738281 41.960938 314.65625 41.664062 C 307.574219 41.371094 299.003906 40.621094 290.226562 39.941406 C 281.445312 39.273438 272.449219 38.59375 264.179688 38.765625 C 255.910156 38.914062 248.425781 39.074219 240.324219 43.71875 C 232.21875 48.371094 228.382812 54.851562 224.101562 61.882812 C 219.816406 68.917969 215.890625 76.804688 212.089844 84.699219 C 208.292969 92.59375 204.671875 100.410156 201.421875 106.667969 C 198.167969 112.929688 194.773438 117.777344 194.253906 118.296875 C 193.722656 118.816406 188.707031 122.324219 182.40625 125.546875 C 176.105469 128.777344 168.246094 132.390625 160.300781 136.160156 C 152.355469 139.933594 144.425781 143.832031 137.347656 148.089844 C 130.273438 152.347656 123.886719 156.179688 119.210938 164.230469 C 114.53125 172.28125 114.402344 179.707031 114.226562 187.921875 C 114.070312 196.140625 114.546875 205.082031 115.238281 213.804688 C 115.921875 222.527344 116.652344 231.035156 116.992188 238.070312 C 117.308594 245.105469 116.886719 251.039062 116.726562 251.75 C 116.515625 252.492188 113.964844 257.886719 110.132812 263.8125 C 106.300781 269.738281 101.351562 276.789062 96.371094 284.003906 C 91.390625 291.214844 86.324219 298.46875 82.335938 305.671875 C 78.351562 312.875 74.730469 319.492188 74.730469 328.789062 C 74.730469 338.085938 78.351562 344.539062 82.335938 351.742188 C 86.324219 358.949219 91.390625 366.332031 96.371094 373.546875 C 101.355469 380.761719 106.300781 387.839844 110.132812 393.765625 C 113.964844 399.691406 116.535156 404.984375 116.726562 405.691406 C 116.9375 406.4375 117.335938 412.472656 116.992188 419.507812 C 116.671875 426.542969 115.921875 435.050781 115.238281 443.777344 C 114.554688 452.5 114.054688 461.300781 114.226562 469.519531 C 114.386719 477.738281 114.546875 485.296875 119.210938 493.347656 C 123.890625 501.402344 130.273438 505.234375 137.347656 509.488281 C 144.425781 513.746094 152.355469 517.617188 160.300781 521.390625 C 168.246094 525.164062 176.105469 528.777344 182.40625 532.003906 C 188.707031 535.234375 193.730469 538.625 194.253906 539.144531 C 194.730469 539.636719 197.800781 544.042969 200.875 549.789062 L 104.519531 715.796875 C 103.882812 716.890625 103.402344 718.050781 103.082031 719.277344 C 102.761719 720.5 102.609375 721.746094 102.625 723.011719 C 102.644531 724.277344 102.828125 725.515625 103.179688 726.734375 C 103.53125 727.949219 104.042969 729.09375 104.703125 730.171875 C 105.367188 731.25 106.164062 732.21875 107.089844 733.082031 C 108.019531 733.945312 109.042969 734.667969 110.164062 735.253906 C 111.289062 735.835938 112.46875 736.261719 113.707031 736.523438 C 114.945312 736.789062 116.195312 736.882812 117.457031 736.808594 L 198.929688 731.9375 L 235.425781 804.410156 C 235.996094 805.535156 236.703125 806.5625 237.546875 807.496094 C 238.394531 808.429688 239.347656 809.234375 240.410156 809.910156 C 241.472656 810.585938 242.605469 811.109375 243.808594 811.480469 C 245.015625 811.847656 246.246094 812.054688 247.503906 812.089844 C 248.761719 812.128906 250.003906 812 251.230469 811.703125 C 252.453125 811.40625 253.617188 810.949219 254.71875 810.339844 C 255.820312 809.730469 256.820312 808.984375 257.71875 808.101562 C 258.621094 807.222656 259.386719 806.238281 260.023438 805.148438 L 358.867188 635.035156 C 359.550781 635.503906 360.199219 635.9375 360.890625 636.40625 C 368.148438 641.355469 375.582031 646.257812 382.832031 650.21875 C 390.078125 654.179688 396.589844 657.769531 405.949219 657.769531 C 415.304688 657.769531 421.816406 654.183594 429.066406 650.21875 C 436.3125 646.261719 443.746094 641.355469 451.007812 636.40625 C 451.707031 635.929688 452.363281 635.484375 453.058594 635.007812 L 551.824219 805.148438 C 552.457031 806.242188 553.222656 807.226562 554.125 808.113281 C 555.023438 808.996094 556.027344 809.746094 557.128906 810.359375 C 558.234375 810.972656 559.398438 811.425781 560.625 811.726562 C 561.847656 812.023438 563.09375 812.152344 564.355469 812.117188 C 565.617188 812.078125 566.851562 811.875 568.054688 811.503906 C 569.261719 811.132812 570.398438 810.605469 571.460938 809.929688 C 572.523438 809.25 573.480469 808.441406 574.328125 807.507812 C 575.171875 806.570312 575.878906 805.539062 576.445312 804.410156 L 612.941406 731.9375 L 694.414062 736.808594 C 695.683594 736.894531 696.9375 736.808594 698.183594 736.550781 C 699.429688 736.296875 700.617188 735.878906 701.746094 735.296875 C 702.878906 734.71875 703.910156 733.996094 704.84375 733.136719 C 705.78125 732.273438 706.582031 731.304688 707.253906 730.222656 C 707.921875 729.144531 708.4375 727.996094 708.796875 726.777344 C 709.152344 725.554688 709.339844 724.3125 709.359375 723.039062 C 709.378906 721.769531 709.226562 720.519531 708.90625 719.289062 C 708.582031 718.058594 708.101562 716.894531 707.464844 715.796875 L 611 549.84375 C 614.085938 544.066406 617.152344 539.636719 617.648438 539.144531 C 618.175781 538.628906 623.191406 535.234375 629.492188 532.003906 C 635.792969 528.773438 643.628906 525.164062 651.570312 521.390625 C 659.515625 517.617188 667.476562 513.746094 674.550781 509.488281 C 681.628906 505.230469 688.011719 501.402344 692.691406 493.347656 C 697.371094 485.296875 697.496094 477.738281 697.671875 469.519531 C 697.832031 461.300781 697.355469 452.5 696.660156 443.777344 C 695.976562 435.050781 695.222656 426.542969 694.882812 419.507812 C 694.5625 412.476562 694.988281 406.402344 695.199219 405.691406 C 695.410156 404.949219 697.964844 399.695312 701.792969 393.765625 C 705.625 387.839844 710.546875 380.761719 715.527344 373.546875 C 720.507812 366.335938 725.601562 358.945312 729.589844 351.742188 C 733.574219 344.539062 737.03125 338.085938 737.03125 328.789062 C 737.03125 319.492188 733.574219 312.875 729.589844 305.671875 C 725.601562 298.464844 720.507812 291.21875 715.527344 284.003906 C 710.542969 276.792969 705.625 269.738281 701.792969 263.8125 C 697.960938 257.890625 695.390625 252.457031 695.199219 251.75 C 694.988281 251.003906 694.558594 245.101562 694.882812 238.070312 C 695.199219 231.035156 695.976562 222.527344 696.660156 213.804688 C 697.34375 205.078125 697.847656 196.140625 697.671875 187.921875 C 697.511719 179.707031 697.355469 172.28125 692.691406 164.230469 C 688.011719 156.179688 681.628906 152.34375 674.550781 148.089844 C 667.476562 143.832031 659.515625 139.933594 651.570312 136.160156 C 643.628906 132.386719 635.792969 128.773438 629.492188 125.546875 C 623.191406 122.316406 618.167969 118.808594 617.648438 118.296875 C 617.117188 117.777344 613.730469 112.925781 610.480469 106.667969 C 607.226562 100.410156 603.582031 92.59375 599.78125 84.699219 C 595.984375 76.804688 592.082031 68.914062 587.800781 61.882812 C 583.515625 54.851562 579.652344 48.367188 571.546875 43.71875 C 563.445312 39.066406 555.988281 38.9375 547.71875 38.765625 C 539.449219 38.617188 530.453125 39.300781 521.675781 39.941406 C 512.894531 40.613281 504.324219 41.339844 497.246094 41.664062 C 490.164062 41.960938 484.195312 41.585938 483.484375 41.363281 C 482.773438 41.140625 477.300781 38.636719 471.335938 34.824219 C 465.371094 31.023438 458.269531 25.957031 451.007812 21.007812 C 443.746094 16.058594 436.316406 11.179688 429.066406 7.21875 C 421.820312 3.261719 415.308594 -0.359375 405.949219 -0.359375 Z M 405.921875 27.628906 C 406.488281 27.890625 410.777344 28.980469 415.605469 31.625 C 421.238281 34.707031 428.152344 39.328125 435.195312 44.128906 C 442.238281 48.925781 449.351562 53.921875 456.125 58.242188 C 462.898438 62.566406 468.710938 66.269531 476.179688 68.257812 C 483.644531 70.246094 490.515625 69.949219 498.558594 69.570312 C 506.597656 69.199219 515.351562 68.34375 523.863281 67.683594 C 532.378906 67.011719 540.691406 66.535156 547.117188 66.671875 C 552.640625 66.796875 556.878906 68.007812 557.488281 68.066406 C 557.910156 68.625 560.992188 71.648438 563.804688 76.273438 C 567.136719 81.738281 570.792969 89.109375 574.476562 96.765625 C 578.160156 104.417969 581.757812 112.335938 585.445312 119.445312 C 589.136719 126.550781 592.292969 132.617188 597.757812 138.046875 C 603.222656 143.480469 609.316406 146.582031 616.46875 150.25 C 623.625 153.917969 631.746094 157.644531 639.453125 161.300781 C 647.15625 164.964844 654.578125 168.605469 660.078125 171.917969 C 664.769531 174.734375 667.8125 177.824219 668.339844 178.210938 C 668.390625 178.875 669.457031 183.0625 669.574219 188.496094 C 669.734375 194.882812 669.203125 203.15625 668.5625 211.613281 C 667.90625 220.074219 667.191406 228.769531 666.8125 236.757812 C 666.441406 244.746094 665.960938 251.578125 667.960938 258.996094 C 669.960938 266.417969 673.707031 272.183594 678.054688 278.914062 C 682.402344 285.644531 687.5625 292.707031 692.390625 299.707031 C 697.21875 306.703125 701.742188 313.589844 704.839844 319.1875 C 707.476562 323.945312 708.589844 328.144531 708.863281 328.761719 C 708.597656 329.300781 707.496094 333.429688 704.839844 338.226562 C 701.742188 343.824219 697.222656 350.707031 692.390625 357.707031 C 687.5625 364.703125 682.40625 371.90625 678.054688 378.636719 C 673.703125 385.363281 669.960938 391.132812 667.960938 398.550781 C 665.960938 405.972656 666.429688 412.804688 666.8125 420.792969 C 667.183594 428.78125 667.902344 437.476562 668.5625 445.9375 C 669.226562 454.394531 669.710938 462.53125 669.574219 468.917969 C 669.46875 474.351562 668.394531 478.539062 668.339844 479.203125 C 667.808594 479.585938 664.769531 482.671875 660.078125 485.496094 C 654.578125 488.808594 647.15625 492.589844 639.453125 496.246094 C 631.746094 499.910156 623.625 503.496094 616.46875 507.164062 C 609.316406 510.832031 603.222656 513.933594 597.757812 519.363281 C 592.292969 524.796875 589.136719 530.859375 585.445312 537.96875 C 581.757812 545.078125 578.160156 553.128906 574.476562 560.785156 C 570.792969 568.441406 567.136719 575.675781 563.804688 581.140625 C 560.984375 585.769531 557.902344 588.898438 557.488281 589.484375 C 556.882812 589.511719 552.636719 590.628906 547.117188 590.742188 C 540.691406 590.890625 532.378906 590.378906 523.863281 589.730469 C 515.351562 589.058594 506.597656 588.222656 498.558594 587.84375 C 490.515625 587.472656 483.644531 587.148438 476.179688 589.128906 C 468.710938 591.117188 462.898438 594.847656 456.125 599.167969 C 449.351562 603.492188 442.238281 608.621094 435.195312 613.421875 C 428.152344 618.222656 421.238281 622.710938 415.605469 625.789062 C 410.773438 628.429688 406.488281 629.523438 405.921875 629.78125 C 405.296875 629.511719 401.082031 628.410156 396.292969 625.789062 C 390.660156 622.707031 383.71875 618.222656 376.675781 613.421875 C 369.632812 608.621094 362.546875 603.492188 355.773438 599.167969 C 349.003906 594.84375 343.191406 591.117188 335.722656 589.128906 C 328.253906 587.140625 321.382812 587.460938 313.34375 587.84375 C 305.304688 588.210938 296.550781 589.074219 288.035156 589.730469 C 279.523438 590.398438 271.183594 590.875 264.753906 590.742188 C 259.328125 590.617188 255.160156 589.574219 254.441406 589.511719 C 254.070312 588.988281 250.953125 585.828125 248.09375 581.140625 C 244.761719 575.675781 241.082031 568.441406 237.398438 560.785156 C 233.710938 553.128906 230.117188 545.078125 226.425781 537.96875 C 222.734375 530.859375 219.609375 524.796875 214.140625 519.367188 C 208.675781 513.933594 202.417969 510.832031 195.265625 507.164062 C 188.113281 503.496094 180.152344 499.910156 172.449219 496.246094 C 164.746094 492.585938 157.320312 488.804688 151.820312 485.496094 C 147.160156 482.695312 144.117188 479.617188 143.558594 479.203125 C 143.511719 478.546875 142.414062 474.355469 142.296875 468.917969 C 142.140625 462.53125 142.667969 454.394531 143.335938 445.9375 C 143.996094 437.476562 144.707031 428.78125 145.089844 420.792969 C 145.457031 412.804688 145.914062 405.972656 143.914062 398.550781 C 141.910156 391.132812 138.167969 385.363281 133.816406 378.636719 C 129.464844 371.90625 124.3125 364.703125 119.480469 357.707031 C 114.652344 350.710938 110.160156 343.824219 107.0625 338.226562 C 104.410156 333.433594 103.304688 329.304688 103.039062 328.761719 C 103.304688 328.140625 104.425781 323.945312 107.0625 319.1875 C 110.160156 313.589844 114.652344 306.703125 119.480469 299.707031 C 124.3125 292.710938 129.46875 285.644531 133.816406 278.914062 C 138.164062 272.1875 141.914062 266.417969 143.914062 259 C 145.914062 251.578125 145.46875 244.746094 145.089844 236.757812 C 144.71875 228.769531 143.996094 220.074219 143.335938 211.613281 C 142.675781 203.15625 142.160156 194.882812 142.296875 188.496094 C 142.402344 183.054688 143.511719 178.867188 143.558594 178.210938 C 144.113281 177.800781 147.160156 174.726562 151.820312 171.917969 C 157.320312 168.605469 164.746094 164.964844 172.449219 161.300781 C 180.152344 157.640625 188.113281 153.914062 195.265625 150.25 C 202.417969 146.582031 208.675781 143.480469 214.140625 138.046875 C 219.609375 132.613281 222.734375 126.550781 226.425781 119.445312 C 230.117188 112.335938 233.714844 104.417969 237.398438 96.765625 C 241.082031 89.109375 244.765625 81.738281 248.09375 76.273438 C 250.929688 71.617188 254.027344 68.566406 254.414062 68.039062 C 255.082031 67.960938 259.285156 66.785156 264.753906 66.671875 C 271.183594 66.523438 279.523438 67.035156 288.035156 67.683594 C 296.550781 68.351562 305.304688 69.191406 313.34375 69.570312 C 321.382812 69.941406 328.253906 70.238281 335.722656 68.257812 C 343.191406 66.269531 349.003906 62.566406 355.773438 58.246094 C 362.546875 53.917969 369.632812 48.925781 376.675781 44.128906 C 383.71875 39.328125 390.660156 34.703125 396.292969 31.625 C 401.082031 29.003906 405.300781 27.902344 405.921875 27.628906 Z M 405.921875 117.527344 C 288.824219 117.527344 193.542969 212.269531 193.542969 328.789062 C 193.542969 445.304688 288.824219 539.910156 405.921875 539.910156 C 523.019531 539.910156 618.332031 445.304688 618.332031 328.789062 C 618.332031 212.269531 523.019531 117.527344 405.921875 117.527344 Z M 405.921875 145.542969 C 507.976562 145.542969 590.289062 227.5 590.289062 328.789062 C 590.289062 430.078125 507.976562 511.894531 405.921875 511.894531 C 303.867188 511.894531 221.582031 430.078125 221.582031 328.789062 C 221.582031 227.5 303.867188 145.542969 405.921875 145.542969 Z M 405.921875 254.238281 C 403.949219 254.25 402.0625 254.660156 400.261719 255.46875 C 398.460938 256.277344 396.898438 257.417969 395.582031 258.886719 L 364.777344 292.894531 L 312.058594 256.699219 C 311.484375 256.3125 310.890625 255.96875 310.269531 255.667969 C 309.644531 255.367188 309.003906 255.117188 308.347656 254.910156 C 307.6875 254.707031 307.015625 254.550781 306.335938 254.445312 C 305.652344 254.339844 304.964844 254.28125 304.277344 254.277344 C 303.585938 254.273438 302.898438 254.320312 302.214844 254.417969 C 301.53125 254.515625 300.859375 254.660156 300.199219 254.859375 C 299.535156 255.054688 298.894531 255.296875 298.269531 255.589844 C 297.640625 255.882812 297.042969 256.21875 296.464844 256.597656 C 295.890625 256.980469 295.34375 257.398438 294.832031 257.859375 C 294.316406 258.320312 293.839844 258.816406 293.398438 259.347656 C 292.960938 259.882812 292.5625 260.441406 292.203125 261.03125 C 291.847656 261.625 291.535156 262.238281 291.269531 262.875 C 291 263.511719 290.78125 264.164062 290.613281 264.832031 C 290.441406 265.5 290.324219 266.179688 290.253906 266.867188 C 290.183594 267.550781 290.164062 268.242188 290.195312 268.929688 C 290.226562 269.621094 290.3125 270.304688 290.445312 270.980469 L 314.109375 391.847656 C 314.261719 392.644531 314.480469 393.417969 314.765625 394.175781 C 315.050781 394.929688 315.398438 395.65625 315.8125 396.355469 C 316.222656 397.050781 316.691406 397.707031 317.21875 398.320312 C 317.742188 398.9375 318.316406 399.5 318.941406 400.015625 C 319.5625 400.53125 320.226562 400.988281 320.929688 401.390625 C 321.632812 401.792969 322.363281 402.128906 323.125 402.402344 C 323.886719 402.675781 324.664062 402.882812 325.460938 403.019531 C 326.257812 403.160156 327.0625 403.230469 327.871094 403.230469 L 484.003906 403.230469 C 484.8125 403.230469 485.613281 403.160156 486.410156 403.019531 C 487.207031 402.882812 487.988281 402.675781 488.746094 402.402344 C 489.507812 402.128906 490.242188 401.792969 490.945312 401.390625 C 491.644531 400.992188 492.308594 400.53125 492.933594 400.015625 C 493.554688 399.5 494.128906 398.9375 494.65625 398.320312 C 495.179688 397.707031 495.648438 397.050781 496.0625 396.355469 C 496.472656 395.65625 496.820312 394.929688 497.109375 394.175781 C 497.394531 393.417969 497.613281 392.644531 497.761719 391.847656 L 521.429688 270.980469 C 521.5625 270.304688 521.644531 269.621094 521.675781 268.929688 C 521.707031 268.242188 521.6875 267.550781 521.621094 266.867188 C 521.550781 266.179688 521.429688 265.5 521.257812 264.832031 C 521.089844 264.164062 520.871094 263.511719 520.605469 262.875 C 520.339844 262.238281 520.027344 261.625 519.667969 261.03125 C 519.3125 260.441406 518.914062 259.882812 518.472656 259.347656 C 518.03125 258.816406 517.554688 258.320312 517.042969 257.859375 C 516.527344 257.398438 515.984375 256.980469 515.40625 256.597656 C 514.832031 256.21875 514.230469 255.882812 513.605469 255.589844 C 512.980469 255.296875 512.335938 255.054688 511.675781 254.859375 C 511.011719 254.660156 510.339844 254.515625 509.65625 254.417969 C 508.972656 254.320312 508.285156 254.273438 507.597656 254.277344 C 506.90625 254.28125 506.21875 254.339844 505.539062 254.445312 C 504.855469 254.550781 504.183594 254.707031 503.527344 254.910156 C 502.867188 255.117188 502.226562 255.367188 501.605469 255.667969 C 500.984375 255.96875 500.386719 256.3125 499.816406 256.699219 L 447.179688 292.894531 L 416.265625 258.886719 C 414.945312 257.417969 413.386719 256.277344 411.585938 255.46875 C 409.785156 254.660156 407.898438 254.25 405.921875 254.238281 Z M 405.921875 289.171875 L 434.566406 320.828125 C 435.128906 321.449219 435.746094 322.019531 436.410156 322.53125 C 437.078125 323.042969 437.78125 323.492188 438.53125 323.878906 C 439.277344 324.261719 440.050781 324.578125 440.855469 324.824219 C 441.660156 325.070312 442.476562 325.242188 443.3125 325.34375 C 444.148438 325.441406 444.984375 325.464844 445.820312 325.410156 C 446.660156 325.359375 447.488281 325.234375 448.304688 325.03125 C 449.121094 324.832031 449.910156 324.558594 450.679688 324.214844 C 451.445312 323.871094 452.175781 323.460938 452.867188 322.988281 L 487.421875 299.214844 L 472.511719 375.214844 L 339.332031 375.214844 L 324.558594 299.214844 L 359.003906 322.988281 C 359.695312 323.460938 360.425781 323.867188 361.191406 324.210938 C 361.957031 324.550781 362.746094 324.824219 363.5625 325.023438 C 364.378906 325.222656 365.203125 325.347656 366.039062 325.402344 C 366.878906 325.453125 367.710938 325.429688 368.546875 325.332031 C 369.378906 325.230469 370.195312 325.058594 371 324.8125 C 371.800781 324.570312 372.574219 324.253906 373.320312 323.871094 C 374.066406 323.484375 374.769531 323.039062 375.4375 322.527344 C 376.101562 322.015625 376.714844 321.449219 377.277344 320.828125 Z M 215.675781 580.101562 C 218.359375 585.523438 221.152344 590.851562 224.101562 595.695312 C 228.382812 602.726562 232.21875 609.074219 240.324219 613.722656 C 248.425781 618.375 255.910156 618.476562 264.179688 618.648438 C 272.449219 618.796875 281.445312 618.28125 290.226562 617.636719 C 299.003906 616.964844 307.574219 616.082031 314.65625 615.746094 C 321.738281 615.449219 327.703125 615.960938 328.417969 616.1875 C 328.894531 616.339844 331.726562 617.632812 335.339844 619.632812 L 248.859375 768.761719 L 219.804688 711.148438 C 219.195312 709.921875 218.421875 708.808594 217.484375 707.808594 C 216.546875 706.808594 215.488281 705.964844 214.304688 705.277344 C 213.121094 704.589844 211.863281 704.085938 210.53125 703.765625 C 209.199219 703.449219 207.847656 703.328125 206.480469 703.402344 L 141.863281 707.34375 Z M 596.199219 580.101562 L 670.011719 707.316406 L 605.5 703.402344 C 604.128906 703.324219 602.777344 703.441406 601.445312 703.761719 C 600.109375 704.078125 598.847656 704.582031 597.660156 705.269531 C 596.476562 705.957031 595.414062 706.800781 594.472656 707.800781 C 593.535156 708.800781 592.761719 709.917969 592.148438 711.144531 L 563.09375 768.734375 L 476.507812 619.660156 C 480.148438 617.628906 482.988281 616.320312 483.484375 616.183594 C 484.191406 615.960938 490.164062 615.425781 497.246094 615.746094 C 504.324219 616.042969 512.894531 616.957031 521.675781 617.632812 C 530.453125 618.304688 539.449219 618.816406 547.71875 618.644531 C 555.988281 618.496094 563.445312 618.363281 571.546875 613.722656 C 579.652344 609.070312 583.515625 602.722656 587.800781 595.691406 C 590.75 590.847656 593.515625 585.519531 596.199219 580.097656 Z M 596.199219 580.101562 " fill-opacity="1" fill-rule="nonzero"></path></svg>