<svg xmlns="http://www.w3.org/2000/svg" xmlns:xlink="http://www.w3.org/1999/xlink" width="1080" viewBox="0 0 810 809.999993" height="1080" preserveAspectRatio="xMidYMid meet"><rect x="-81" width="972" fill="#ffffff" y="-80.999999" height="971.999992" fill-opacity="1"></rect><rect x="-81" width="972" fill="#ffffff" y="-80.999999" height="971.999992" fill-opacity="1"></rect><path fill="#f2f2f2" d="M 800.039062 741.636719 L 756.886719 501.0625 L 53.113281 501.0625 L 9.960938 741.636719 C 0 764.863281 16.597656 789.75 41.496094 789.75 L 768.503906 789.75 C 793.402344 791.410156 810 764.863281 800.039062 741.636719 Z M 800.039062 741.636719 " fill-opacity="1" fill-rule="nonzero"></path><path fill="#cdd6e0" d="M 6.640625 756.566406 C 6.640625 774.816406 21.578125 791.410156 41.496094 791.410156 L 768.503906 791.410156 C 788.421875 791.410156 803.359375 774.816406 803.359375 756.566406 Z M 6.640625 756.566406 " fill-opacity="1" fill-rule="nonzero"></path><path fill="#40596b" d="M 723.6875 18.253906 L 86.3125 18.253906 C 68.054688 18.253906 53.113281 33.183594 53.113281 51.4375 L 53.113281 501.0625 L 758.546875 501.0625 L 758.546875 51.4375 C 756.886719 33.183594 741.945312 18.253906 723.6875 18.253906 Z M 723.6875 18.253906 " fill-opacity="1" fill-rule="nonzero"></path><path fill="#84dbff" d="M 715.503906 59.847656 L 715.503906 459.699219 L 93.066406 459.699219 L 93.066406 59.847656 Z M 715.503906 59.847656 " fill-opacity="1" fill-rule="nonzero"></path><path fill="#f2f2f2" d="M 716.386719 60.726562 L 716.386719 123.773438 L 93.945312 123.773438 L 93.945312 60.726562 Z M 716.386719 60.726562 " fill-opacity="1" fill-rule="nonzero"></path><path fill="#cdd6e0" d="M 502.929688 721.726562 L 307.070312 721.726562 L 322.007812 635.449219 L 487.992188 635.449219 Z M 502.929688 721.726562 " fill-opacity="1" fill-rule="nonzero"></path><path fill="#ff7058" d="M 682.191406 92.914062 C 682.191406 93.894531 682.097656 94.867188 681.90625 95.828125 C 681.714844 96.789062 681.429688 97.722656 681.054688 98.628906 C 680.679688 99.535156 680.21875 100.394531 679.675781 101.210938 C 679.128906 102.023438 678.511719 102.78125 677.816406 103.472656 C 677.125 104.164062 676.367188 104.785156 675.554688 105.328125 C 674.738281 105.875 673.875 106.335938 672.96875 106.710938 C 672.0625 107.085938 671.128906 107.367188 670.167969 107.558594 C 669.207031 107.75 668.234375 107.847656 667.253906 107.847656 C 666.273438 107.847656 665.300781 107.75 664.339844 107.558594 C 663.378906 107.367188 662.445312 107.085938 661.539062 106.710938 C 660.632812 106.335938 659.769531 105.875 658.953125 105.328125 C 658.140625 104.785156 657.382812 104.164062 656.691406 103.472656 C 655.996094 102.78125 655.378906 102.023438 654.832031 101.210938 C 654.289062 100.394531 653.828125 99.535156 653.453125 98.628906 C 653.078125 97.722656 652.792969 96.789062 652.601562 95.828125 C 652.410156 94.867188 652.316406 93.894531 652.316406 92.914062 C 652.316406 91.933594 652.410156 90.960938 652.601562 90 C 652.792969 89.039062 653.078125 88.105469 653.453125 87.199219 C 653.828125 86.292969 654.289062 85.433594 654.832031 84.617188 C 655.378906 83.804688 655.996094 83.046875 656.691406 82.355469 C 657.382812 81.660156 658.140625 81.042969 658.953125 80.5 C 659.769531 79.953125 660.632812 79.492188 661.539062 79.117188 C 662.445312 78.742188 663.378906 78.460938 664.339844 78.269531 C 665.300781 78.078125 666.273438 77.980469 667.253906 77.980469 C 668.234375 77.980469 669.207031 78.078125 670.167969 78.269531 C 671.128906 78.460938 672.0625 78.742188 672.96875 79.117188 C 673.875 79.492188 674.738281 79.953125 675.554688 80.5 C 676.367188 81.042969 677.125 81.660156 677.816406 82.355469 C 678.511719 83.046875 679.128906 83.804688 679.675781 84.617188 C 680.21875 85.433594 680.679688 86.292969 681.054688 87.199219 C 681.429688 88.105469 681.714844 89.039062 681.90625 90 C 682.097656 90.960938 682.191406 91.933594 682.191406 92.914062 Z M 682.191406 92.914062 " fill-opacity="1" fill-rule="nonzero"></path><path fill="#ffd15c" d="M 635.71875 92.914062 C 635.71875 93.894531 635.621094 94.867188 635.429688 95.828125 C 635.238281 96.789062 634.957031 97.722656 634.578125 98.628906 C 634.203125 99.535156 633.746094 100.394531 633.199219 101.210938 C 632.65625 102.023438 632.035156 102.78125 631.339844 103.472656 C 630.648438 104.164062 629.894531 104.785156 629.078125 105.328125 C 628.261719 105.875 627.402344 106.335938 626.496094 106.710938 C 625.589844 107.085938 624.65625 107.367188 623.691406 107.558594 C 622.730469 107.75 621.757812 107.847656 620.777344 107.847656 C 619.796875 107.847656 618.828125 107.75 617.863281 107.558594 C 616.902344 107.367188 615.96875 107.085938 615.0625 106.710938 C 614.15625 106.335938 613.292969 105.875 612.480469 105.328125 C 611.664062 104.785156 610.910156 104.164062 610.214844 103.472656 C 609.523438 102.78125 608.902344 102.023438 608.359375 101.210938 C 607.8125 100.394531 607.351562 99.535156 606.976562 98.628906 C 606.601562 97.722656 606.320312 96.789062 606.128906 95.828125 C 605.9375 94.867188 605.839844 93.894531 605.839844 92.914062 C 605.839844 91.933594 605.9375 90.960938 606.128906 90 C 606.320312 89.039062 606.601562 88.105469 606.976562 87.199219 C 607.351562 86.292969 607.8125 85.433594 608.359375 84.617188 C 608.902344 83.804688 609.523438 83.046875 610.214844 82.355469 C 610.910156 81.660156 611.664062 81.042969 612.480469 80.5 C 613.292969 79.953125 614.15625 79.492188 615.0625 79.117188 C 615.96875 78.742188 616.902344 78.460938 617.863281 78.269531 C 618.828125 78.078125 619.796875 77.980469 620.777344 77.980469 C 621.757812 77.980469 622.730469 78.078125 623.691406 78.269531 C 624.65625 78.460938 625.589844 78.742188 626.496094 79.117188 C 627.402344 79.492188 628.261719 79.953125 629.078125 80.5 C 629.894531 81.042969 630.648438 81.660156 631.339844 82.355469 C 632.035156 83.046875 632.65625 83.804688 633.199219 84.617188 C 633.746094 85.433594 634.203125 86.292969 634.578125 87.199219 C 634.957031 88.105469 635.238281 89.039062 635.429688 90 C 635.621094 90.960938 635.71875 91.933594 635.71875 92.914062 Z M 635.71875 92.914062 " fill-opacity="1" fill-rule="nonzero"></path><path fill="#acb3ba" d="M 589.242188 92.914062 C 589.242188 93.894531 589.144531 94.867188 588.953125 95.828125 C 588.761719 96.789062 588.480469 97.722656 588.105469 98.628906 C 587.730469 99.535156 587.269531 100.394531 586.722656 101.210938 C 586.179688 102.023438 585.558594 102.78125 584.867188 103.472656 C 584.171875 104.164062 583.417969 104.785156 582.601562 105.328125 C 581.785156 105.875 580.925781 106.335938 580.019531 106.710938 C 579.113281 107.085938 578.179688 107.367188 577.21875 107.558594 C 576.253906 107.75 575.285156 107.847656 574.304688 107.847656 C 573.324219 107.847656 572.351562 107.75 571.390625 107.558594 C 570.425781 107.367188 569.492188 107.085938 568.585938 106.710938 C 567.679688 106.335938 566.820312 105.875 566.003906 105.328125 C 565.1875 104.785156 564.433594 104.164062 563.738281 103.472656 C 563.046875 102.78125 562.425781 102.023438 561.882812 101.210938 C 561.335938 100.394531 560.878906 99.535156 560.5 98.628906 C 560.125 97.722656 559.84375 96.789062 559.652344 95.828125 C 559.460938 94.867188 559.363281 93.894531 559.363281 92.914062 C 559.363281 91.933594 559.460938 90.960938 559.652344 90 C 559.84375 89.039062 560.125 88.105469 560.5 87.199219 C 560.878906 86.292969 561.335938 85.433594 561.882812 84.617188 C 562.425781 83.804688 563.046875 83.046875 563.738281 82.355469 C 564.433594 81.660156 565.1875 81.042969 566.003906 80.5 C 566.820312 79.953125 567.679688 79.492188 568.585938 79.117188 C 569.492188 78.742188 570.425781 78.460938 571.390625 78.269531 C 572.351562 78.078125 573.324219 77.980469 574.304688 77.980469 C 575.285156 77.980469 576.253906 78.078125 577.21875 78.269531 C 578.179688 78.460938 579.113281 78.742188 580.019531 79.117188 C 580.925781 79.492188 581.785156 79.953125 582.601562 80.5 C 583.417969 81.042969 584.171875 81.660156 584.867188 82.355469 C 585.558594 83.046875 586.179688 83.804688 586.722656 84.617188 C 587.269531 85.433594 587.730469 86.292969 588.105469 87.199219 C 588.480469 88.105469 588.761719 89.039062 588.953125 90 C 589.144531 90.960938 589.242188 91.933594 589.242188 92.914062 Z M 589.242188 92.914062 " fill-opacity="1" fill-rule="nonzero"></path><path fill="#acb3ba" d="M 136.105469 378.285156 L 579.28125 378.285156 L 579.28125 416.445312 L 136.105469 416.445312 Z M 136.105469 378.285156 " fill-opacity="1" fill-rule="nonzero"></path><path fill="#ffffff" d="M 597.539062 378.285156 L 673.894531 378.285156 L 673.894531 416.445312 L 597.539062 416.445312 Z M 597.539062 378.285156 " fill-opacity="1" fill-rule="nonzero"></path><path fill="#f2f2f2" d="M 136.105469 308.601562 L 453.136719 308.601562 L 453.136719 346.761719 L 136.105469 346.761719 Z M 136.105469 308.601562 " fill-opacity="1" fill-rule="nonzero"></path><path fill="#ffffff" d="M 473.054688 308.601562 L 673.894531 308.601562 L 673.894531 346.761719 L 473.054688 346.761719 Z M 473.054688 308.601562 " fill-opacity="1" fill-rule="nonzero"></path><path fill="#ffffff" d="M 136.105469 238.917969 L 381.761719 238.917969 L 381.761719 277.078125 L 136.105469 277.078125 Z M 136.105469 238.917969 " fill-opacity="1" fill-rule="nonzero"></path><path fill="#f2f2f2" d="M 400.019531 238.917969 L 672.234375 238.917969 L 672.234375 277.078125 L 400.019531 277.078125 Z M 400.019531 238.917969 " fill-opacity="1" fill-rule="nonzero"></path><path fill="#ffffff" d="M 136.105469 167.574219 L 496.289062 167.574219 L 496.289062 205.734375 L 136.105469 205.734375 Z M 136.105469 167.574219 " fill-opacity="1" fill-rule="nonzero"></path><path fill="#f2f2f2" d="M 514.550781 167.574219 L 672.234375 167.574219 L 672.234375 205.734375 L 514.550781 205.734375 Z M 514.550781 167.574219 " fill-opacity="1" fill-rule="nonzero"></path></svg>