<svg xmlns="http://www.w3.org/2000/svg" xmlns:xlink="http://www.w3.org/1999/xlink" width="1080" viewBox="0 0 810 809.999993" height="1080" preserveAspectRatio="xMidYMid meet"><rect x="-81" width="972" fill="#ffffff" y="-80.999999" height="971.999992" fill-opacity="1"></rect><rect x="-81" width="972" fill="#ffffff" y="-80.999999" height="971.999992" fill-opacity="1"></rect><path fill="#d0b444" d="M 0 768.214844 C 0 791.253906 18.746094 810 41.785156 810 L 140.171875 810 L 349.425781 562.703125 C 351.308594 560.476562 354.105469 559.230469 357.007812 559.289062 C 359.921875 559.355469 362.652344 560.738281 364.429688 563.046875 L 416.09375 630.214844 L 619.679688 408.125 C 621.453125 406.1875 623.949219 405.058594 626.578125 405 C 629.203125 404.941406 631.746094 405.960938 633.605469 407.820312 L 810 584.222656 L 810 192.855469 L 0 192.855469 Z M 0 768.214844 " fill-opacity="1" fill-rule="nonzero"></path><path fill="#d0b444" d="M 428.03125 645.734375 L 554.390625 810 L 768.214844 810 C 791.253906 810 810 791.253906 810 768.214844 L 810 611.492188 L 627.089844 428.582031 Z M 428.03125 645.734375 " fill-opacity="1" fill-rule="nonzero"></path><path fill="#d0b444" d="M 183.214844 115.714844 C 199.191406 115.714844 212.144531 102.761719 212.144531 86.785156 C 212.144531 70.808594 199.191406 57.855469 183.214844 57.855469 C 167.238281 57.855469 154.285156 70.808594 154.285156 86.785156 C 154.285156 102.761719 167.238281 115.714844 183.214844 115.714844 Z M 183.214844 115.714844 " fill-opacity="1" fill-rule="nonzero"></path><path fill="#d0b444" d="M 408.128906 653.179688 C 406.476562 651.664062 405.511719 649.695312 405.171875 647.644531 L 356.429688 584.28125 L 165.433594 810 L 530.058594 810 L 410.699219 654.835938 C 409.785156 654.421875 408.90625 653.894531 408.128906 653.179688 Z M 408.128906 653.179688 " fill-opacity="1" fill-rule="nonzero"></path><path fill="#d0b444" d="M 768.214844 0 L 41.785156 0 C 18.746094 0 0 18.746094 0 41.785156 L 0 173.570312 L 810 173.570312 L 810 41.785156 C 810 18.746094 791.253906 0 768.214844 0 Z M 183.214844 135 C 156.628906 135 135 113.371094 135 86.785156 C 135 60.199219 156.628906 38.570312 183.214844 38.570312 C 209.800781 38.570312 231.429688 60.199219 231.429688 86.785156 C 231.429688 113.371094 209.800781 135 183.214844 135 Z M 684.644531 115.714844 L 356.785156 115.714844 C 351.460938 115.714844 347.144531 111.394531 347.144531 106.070312 C 347.144531 100.746094 351.460938 96.429688 356.785156 96.429688 L 684.644531 96.429688 C 689.96875 96.429688 694.285156 100.746094 694.285156 106.070312 C 694.285156 111.394531 689.96875 115.714844 684.644531 115.714844 Z M 684.644531 57.855469 L 356.785156 57.855469 C 351.460938 57.855469 347.144531 53.539062 347.144531 48.214844 C 347.144531 42.890625 351.460938 38.570312 356.785156 38.570312 L 684.644531 38.570312 C 689.96875 38.570312 694.285156 42.890625 694.285156 48.214844 C 694.285156 53.539062 689.96875 57.855469 684.644531 57.855469 Z M 684.644531 57.855469 " fill-opacity="1" fill-rule="nonzero"></path></svg>