<svg xmlns="http://www.w3.org/2000/svg" xmlns:xlink="http://www.w3.org/1999/xlink" width="1080" viewBox="0 0 810 809.999993" height="1080" preserveAspectRatio="xMidYMid meet"><path fill="#d0b444" d="M 101.722656 -1.882812 L 252.417969 -1.882812 C 254.113281 -1.882812 255.808594 -1.84375 257.503906 -1.757812 C 259.195312 -1.675781 260.886719 -1.550781 262.574219 -1.386719 C 264.261719 -1.21875 265.945312 -1.011719 267.621094 -0.761719 C 269.296875 -0.511719 270.96875 -0.222656 272.628906 0.105469 C 274.292969 0.4375 275.949219 0.808594 277.59375 1.222656 C 279.238281 1.632812 280.871094 2.085938 282.492188 2.578125 C 284.117188 3.070312 285.726562 3.601562 287.320312 4.171875 C 288.917969 4.742188 290.5 5.355469 292.066406 6.003906 C 293.632812 6.652344 295.183594 7.339844 296.714844 8.0625 C 298.246094 8.789062 299.761719 9.550781 301.257812 10.351562 C 302.753906 11.148438 304.226562 11.984375 305.683594 12.855469 C 307.136719 13.726562 308.570312 14.636719 309.976562 15.578125 C 311.386719 16.519531 312.773438 17.496094 314.136719 18.503906 C 315.496094 19.515625 316.835938 20.558594 318.144531 21.632812 C 319.457031 22.710938 320.738281 23.816406 321.996094 24.953125 C 323.25 26.09375 324.480469 27.261719 325.679688 28.460938 C 326.878906 29.660156 328.046875 30.886719 329.183594 32.144531 C 330.324219 33.402344 331.429688 34.683594 332.507812 35.996094 C 333.582031 37.304688 334.625 38.640625 335.632812 40.003906 C 336.644531 41.367188 337.621094 42.75 338.5625 44.160156 C 339.503906 45.570312 340.410156 47.003906 341.285156 48.457031 C 342.15625 49.910156 342.992188 51.386719 343.789062 52.882812 C 344.589844 54.378906 345.351562 55.890625 346.074219 57.425781 C 346.800781 58.957031 347.488281 60.507812 348.136719 62.074219 C 348.785156 63.640625 349.394531 65.222656 349.96875 66.816406 C 350.539062 68.414062 351.070312 70.023438 351.5625 71.644531 C 352.054688 73.269531 352.507812 74.902344 352.917969 76.546875 C 353.332031 78.191406 353.703125 79.84375 354.03125 81.507812 C 354.363281 83.171875 354.652344 84.839844 354.902344 86.519531 C 355.152344 88.195312 355.359375 89.878906 355.523438 91.566406 C 355.691406 93.253906 355.816406 94.945312 355.898438 96.636719 C 355.980469 98.332031 356.023438 100.023438 356.023438 101.722656 L 356.023438 252.417969 C 356.023438 254.113281 355.980469 255.808594 355.898438 257.503906 C 355.816406 259.195312 355.691406 260.886719 355.523438 262.574219 C 355.359375 264.261719 355.152344 265.945312 354.902344 267.621094 C 354.652344 269.296875 354.363281 270.96875 354.03125 272.632812 C 353.703125 274.292969 353.332031 275.949219 352.917969 277.59375 C 352.507812 279.238281 352.054688 280.871094 351.5625 282.492188 C 351.070312 284.117188 350.539062 285.726562 349.96875 287.320312 C 349.394531 288.917969 348.785156 290.5 348.136719 292.066406 C 347.488281 293.632812 346.800781 295.183594 346.074219 296.714844 C 345.351562 298.246094 344.589844 299.761719 343.789062 301.257812 C 342.992188 302.753906 342.15625 304.226562 341.285156 305.683594 C 340.410156 307.136719 339.503906 308.570312 338.5625 309.976562 C 337.621094 311.386719 336.644531 312.773438 335.632812 314.136719 C 334.625 315.496094 333.582031 316.835938 332.507812 318.144531 C 331.429688 319.457031 330.324219 320.738281 329.183594 321.996094 C 328.046875 323.25 326.878906 324.480469 325.679688 325.679688 C 324.480469 326.878906 323.25 328.046875 321.996094 329.183594 C 320.738281 330.324219 319.457031 331.429688 318.144531 332.507812 C 316.835938 333.582031 315.496094 334.625 314.136719 335.632812 C 312.773438 336.644531 311.386719 337.621094 309.976562 338.5625 C 308.570312 339.503906 307.136719 340.410156 305.683594 341.285156 C 304.226562 342.15625 302.753906 342.992188 301.257812 343.789062 C 299.761719 344.589844 298.246094 345.351562 296.714844 346.074219 C 295.183594 346.800781 293.632812 347.488281 292.066406 348.136719 C 290.5 348.785156 288.917969 349.394531 287.320312 349.96875 C 285.726562 350.539062 284.117188 351.070312 282.492188 351.5625 C 280.871094 352.054688 279.238281 352.507812 277.59375 352.917969 C 275.949219 353.332031 274.292969 353.703125 272.628906 354.03125 C 270.96875 354.363281 269.296875 354.652344 267.621094 354.902344 C 265.941406 355.152344 264.261719 355.359375 262.574219 355.523438 C 260.886719 355.691406 259.195312 355.816406 257.503906 355.898438 C 255.808594 355.980469 254.113281 356.023438 252.417969 356.023438 L 101.722656 356.023438 C 100.023438 356.023438 98.332031 355.980469 96.636719 355.898438 C 94.945312 355.816406 93.253906 355.691406 91.566406 355.523438 C 89.878906 355.359375 88.195312 355.152344 86.519531 354.902344 C 84.839844 354.652344 83.171875 354.363281 81.507812 354.03125 C 79.84375 353.703125 78.191406 353.332031 76.546875 352.917969 C 74.902344 352.507812 73.269531 352.054688 71.644531 351.5625 C 70.023438 351.070312 68.414062 350.539062 66.816406 349.96875 C 65.222656 349.394531 63.640625 348.785156 62.074219 348.136719 C 60.507812 347.488281 58.957031 346.800781 57.425781 346.074219 C 55.890625 345.351562 54.378906 344.589844 52.882812 343.789062 C 51.386719 342.992188 49.910156 342.15625 48.457031 341.285156 C 47.003906 340.410156 45.570312 339.503906 44.160156 338.5625 C 42.75 337.621094 41.367188 336.644531 40.003906 335.632812 C 38.640625 334.625 37.304688 333.582031 35.996094 332.507812 C 34.683594 331.429688 33.402344 330.324219 32.144531 329.183594 C 30.886719 328.046875 29.660156 326.878906 28.460938 325.679688 C 27.261719 324.480469 26.09375 323.25 24.953125 321.996094 C 23.816406 320.738281 22.710938 319.457031 21.632812 318.144531 C 20.558594 316.835938 19.515625 315.496094 18.503906 314.136719 C 17.496094 312.773438 16.519531 311.386719 15.578125 309.976562 C 14.636719 308.570312 13.726562 307.136719 12.855469 305.683594 C 11.984375 304.226562 11.148438 302.753906 10.351562 301.257812 C 9.550781 299.761719 8.789062 298.246094 8.0625 296.714844 C 7.339844 295.183594 6.652344 293.632812 6.003906 292.066406 C 5.355469 290.5 4.742188 288.917969 4.171875 287.320312 C 3.601562 285.726562 3.070312 284.117188 2.578125 282.492188 C 2.085938 280.871094 1.632812 279.238281 1.222656 277.59375 C 0.808594 275.949219 0.4375 274.292969 0.105469 272.632812 C -0.222656 270.96875 -0.511719 269.296875 -0.761719 267.621094 C -1.011719 265.941406 -1.21875 264.261719 -1.386719 262.574219 C -1.550781 260.886719 -1.675781 259.195312 -1.757812 257.503906 C -1.84375 255.808594 -1.882812 254.113281 -1.882812 252.417969 L -1.882812 101.722656 C -1.882812 100.023438 -1.84375 98.332031 -1.757812 96.636719 C -1.675781 94.945312 -1.550781 93.253906 -1.386719 91.566406 C -1.21875 89.878906 -1.011719 88.195312 -0.761719 86.519531 C -0.511719 84.839844 -0.222656 83.171875 0.105469 81.507812 C 0.4375 79.84375 0.808594 78.191406 1.222656 76.546875 C 1.632812 74.902344 2.085938 73.269531 2.578125 71.644531 C 3.070312 70.023438 3.601562 68.414062 4.171875 66.816406 C 4.742188 65.222656 5.355469 63.640625 6.003906 62.074219 C 6.652344 60.507812 7.339844 58.957031 8.0625 57.425781 C 8.789062 55.890625 9.550781 54.378906 10.351562 52.882812 C 11.148438 51.386719 11.984375 49.910156 12.855469 48.457031 C 13.726562 47.003906 14.636719 45.570312 15.578125 44.160156 C 16.519531 42.75 17.496094 41.367188 18.503906 40.003906 C 19.515625 38.640625 20.558594 37.304688 21.632812 35.996094 C 22.710938 34.683594 23.816406 33.402344 24.953125 32.144531 C 26.09375 30.886719 27.261719 29.660156 28.460938 28.460938 C 29.660156 27.261719 30.886719 26.09375 32.144531 24.953125 C 33.402344 23.816406 34.683594 22.710938 35.996094 21.632812 C 37.304688 20.558594 38.640625 19.515625 40.003906 18.503906 C 41.367188 17.496094 42.75 16.519531 44.160156 15.578125 C 45.570312 14.636719 47.003906 13.726562 48.457031 12.855469 C 49.910156 11.984375 51.386719 11.148438 52.882812 10.351562 C 54.378906 9.550781 55.890625 8.789062 57.425781 8.0625 C 58.957031 7.339844 60.507812 6.652344 62.074219 6.003906 C 63.640625 5.355469 65.222656 4.742188 66.816406 4.171875 C 68.414062 3.601562 70.023438 3.070312 71.644531 2.578125 C 73.269531 2.085938 74.902344 1.632812 76.546875 1.222656 C 78.191406 0.808594 79.84375 0.4375 81.507812 0.105469 C 83.171875 -0.222656 84.839844 -0.511719 86.519531 -0.761719 C 88.195312 -1.011719 89.878906 -1.21875 91.566406 -1.386719 C 93.253906 -1.550781 94.945312 -1.675781 96.636719 -1.757812 C 98.332031 -1.84375 100.023438 -1.882812 101.722656 -1.882812 Z M 101.722656 -1.882812 " fill-opacity="1" fill-rule="nonzero"></path><path fill="#d0b444" d="M 553.8125 -1.882812 L 704.511719 -1.882812 C 706.207031 -1.882812 707.902344 -1.84375 709.59375 -1.757812 C 711.289062 -1.675781 712.980469 -1.550781 714.667969 -1.386719 C 716.355469 -1.21875 718.035156 -1.011719 719.714844 -0.761719 C 721.390625 -0.511719 723.0625 -0.222656 724.722656 0.105469 C 726.386719 0.4375 728.039062 0.808594 729.683594 1.222656 C 731.332031 1.632812 732.964844 2.085938 734.585938 2.578125 C 736.207031 3.070312 737.820312 3.601562 739.414062 4.171875 C 741.011719 4.742188 742.59375 5.355469 744.160156 6.003906 C 745.726562 6.652344 747.277344 7.339844 748.808594 8.0625 C 750.339844 8.789062 751.855469 9.550781 753.351562 10.351562 C 754.847656 11.148438 756.320312 11.984375 757.773438 12.855469 C 759.230469 13.726562 760.660156 14.636719 762.070312 15.578125 C 763.480469 16.519531 764.867188 17.496094 766.230469 18.503906 C 767.589844 19.515625 768.925781 20.558594 770.238281 21.632812 C 771.546875 22.710938 772.832031 23.816406 774.089844 24.953125 C 775.34375 26.09375 776.570312 27.261719 777.769531 28.460938 C 778.96875 29.660156 780.140625 30.886719 781.277344 32.144531 C 782.417969 33.402344 783.523438 34.683594 784.597656 35.996094 C 785.675781 37.304688 786.71875 38.640625 787.726562 40.003906 C 788.738281 41.367188 789.714844 42.75 790.65625 44.160156 C 791.597656 45.570312 792.503906 47.003906 793.375 48.457031 C 794.246094 49.910156 795.082031 51.386719 795.882812 52.882812 C 796.683594 54.378906 797.445312 55.890625 798.167969 57.425781 C 798.894531 58.957031 799.582031 60.507812 800.230469 62.074219 C 800.878906 63.640625 801.488281 65.222656 802.058594 66.816406 C 802.632812 68.414062 803.164062 70.023438 803.65625 71.644531 C 804.148438 73.269531 804.597656 74.902344 805.011719 76.546875 C 805.421875 78.191406 805.792969 79.84375 806.125 81.507812 C 806.457031 83.171875 806.746094 84.839844 806.996094 86.519531 C 807.242188 88.195312 807.449219 89.878906 807.617188 91.566406 C 807.785156 93.253906 807.910156 94.945312 807.992188 96.636719 C 808.074219 98.332031 808.117188 100.023438 808.117188 101.722656 L 808.117188 252.417969 C 808.117188 254.113281 808.074219 255.808594 807.992188 257.503906 C 807.910156 259.195312 807.785156 260.886719 807.617188 262.574219 C 807.449219 264.261719 807.242188 265.945312 806.996094 267.621094 C 806.746094 269.296875 806.457031 270.96875 806.125 272.632812 C 805.792969 274.292969 805.421875 275.949219 805.011719 277.59375 C 804.597656 279.238281 804.148438 280.871094 803.65625 282.492188 C 803.164062 284.117188 802.632812 285.726562 802.058594 287.320312 C 801.488281 288.917969 800.878906 290.5 800.230469 292.066406 C 799.582031 293.632812 798.894531 295.183594 798.167969 296.714844 C 797.445312 298.246094 796.683594 299.761719 795.882812 301.257812 C 795.082031 302.753906 794.246094 304.226562 793.375 305.683594 C 792.503906 307.136719 791.597656 308.570312 790.65625 309.976562 C 789.714844 311.386719 788.738281 312.773438 787.726562 314.136719 C 786.71875 315.496094 785.675781 316.835938 784.597656 318.144531 C 783.523438 319.457031 782.417969 320.738281 781.277344 321.996094 C 780.140625 323.25 778.96875 324.480469 777.769531 325.679688 C 776.570312 326.878906 775.34375 328.046875 774.089844 329.183594 C 772.832031 330.324219 771.546875 331.429688 770.238281 332.507812 C 768.925781 333.582031 767.589844 334.625 766.230469 335.632812 C 764.867188 336.644531 763.480469 337.621094 762.070312 338.5625 C 760.660156 339.503906 759.230469 340.410156 757.773438 341.285156 C 756.320312 342.15625 754.847656 342.992188 753.351562 343.789062 C 751.855469 344.589844 750.339844 345.351562 748.808594 346.074219 C 747.277344 346.800781 745.726562 347.488281 744.160156 348.136719 C 742.59375 348.785156 741.011719 349.394531 739.414062 349.96875 C 737.820312 350.539062 736.207031 351.070312 734.585938 351.5625 C 732.964844 352.054688 731.332031 352.507812 729.683594 352.917969 C 728.039062 353.332031 726.386719 353.703125 724.722656 354.03125 C 723.0625 354.363281 721.390625 354.652344 719.714844 354.902344 C 718.035156 355.152344 716.355469 355.359375 714.667969 355.523438 C 712.980469 355.691406 711.289062 355.816406 709.59375 355.898438 C 707.902344 355.980469 706.207031 356.023438 704.511719 356.023438 L 553.8125 356.023438 C 552.117188 356.023438 550.421875 355.980469 548.730469 355.898438 C 547.035156 355.816406 545.347656 355.691406 543.660156 355.523438 C 541.972656 355.359375 540.289062 355.152344 538.613281 354.902344 C 536.933594 354.652344 535.265625 354.363281 533.601562 354.03125 C 531.9375 353.703125 530.285156 353.332031 528.640625 352.917969 C 526.996094 352.507812 525.363281 352.054688 523.738281 351.5625 C 522.117188 351.070312 520.507812 350.539062 518.910156 349.96875 C 517.3125 349.394531 515.734375 348.785156 514.167969 348.136719 C 512.597656 347.488281 511.050781 346.800781 509.515625 346.074219 C 507.984375 345.351562 506.46875 344.589844 504.976562 343.789062 C 503.480469 342.992188 502.003906 342.15625 500.550781 341.285156 C 499.097656 340.410156 497.664062 339.503906 496.253906 338.5625 C 494.84375 337.621094 493.457031 336.644531 492.097656 335.632812 C 490.734375 334.625 489.398438 333.582031 488.085938 332.507812 C 486.777344 331.429688 485.492188 330.324219 484.238281 329.183594 C 482.980469 328.046875 481.753906 326.878906 480.554688 325.679688 C 479.355469 324.480469 478.1875 323.25 477.046875 321.996094 C 475.910156 320.738281 474.800781 319.457031 473.726562 318.144531 C 472.652344 316.835938 471.609375 315.496094 470.597656 314.136719 C 469.585938 312.773438 468.613281 311.386719 467.667969 309.976562 C 466.726562 308.570312 465.820312 307.136719 464.949219 305.683594 C 464.078125 304.226562 463.242188 302.753906 462.441406 301.257812 C 461.644531 299.761719 460.882812 298.246094 460.15625 296.714844 C 459.429688 295.183594 458.746094 293.632812 458.09375 292.066406 C 457.445312 290.5 456.835938 288.917969 456.265625 287.320312 C 455.695312 285.726562 455.164062 284.117188 454.671875 282.492188 C 454.179688 280.871094 453.726562 279.238281 453.3125 277.59375 C 452.902344 275.949219 452.53125 274.292969 452.199219 272.632812 C 451.871094 270.96875 451.578125 269.296875 451.332031 267.621094 C 451.082031 265.941406 450.875 264.261719 450.707031 262.574219 C 450.542969 260.886719 450.417969 259.195312 450.335938 257.503906 C 450.25 255.808594 450.210938 254.113281 450.210938 252.417969 L 450.210938 101.722656 C 450.210938 100.023438 450.25 98.332031 450.335938 96.636719 C 450.417969 94.945312 450.542969 93.253906 450.707031 91.566406 C 450.875 89.878906 451.082031 88.195312 451.332031 86.519531 C 451.578125 84.839844 451.871094 83.171875 452.199219 81.507812 C 452.53125 79.84375 452.902344 78.191406 453.3125 76.546875 C 453.726562 74.902344 454.179688 73.269531 454.671875 71.644531 C 455.164062 70.023438 455.695312 68.414062 456.265625 66.816406 C 456.835938 65.222656 457.445312 63.640625 458.09375 62.074219 C 458.746094 60.507812 459.429688 58.957031 460.15625 57.425781 C 460.882812 55.890625 461.644531 54.378906 462.441406 52.882812 C 463.242188 51.386719 464.078125 49.910156 464.949219 48.457031 C 465.820312 47.003906 466.726562 45.570312 467.667969 44.160156 C 468.613281 42.75 469.585938 41.367188 470.597656 40.003906 C 471.609375 38.640625 472.652344 37.304688 473.726562 35.996094 C 474.800781 34.683594 475.910156 33.402344 477.046875 32.144531 C 478.1875 30.886719 479.355469 29.660156 480.554688 28.460938 C 481.753906 27.261719 482.980469 26.09375 484.238281 24.953125 C 485.492188 23.816406 486.777344 22.710938 488.085938 21.632812 C 489.398438 20.558594 490.734375 19.515625 492.097656 18.503906 C 493.457031 17.496094 494.84375 16.519531 496.253906 15.578125 C 497.664062 14.636719 499.097656 13.726562 500.550781 12.855469 C 502.003906 11.984375 503.480469 11.148438 504.976562 10.351562 C 506.46875 9.550781 507.984375 8.789062 509.515625 8.0625 C 511.050781 7.339844 512.597656 6.652344 514.167969 6.003906 C 515.734375 5.355469 517.3125 4.742188 518.910156 4.171875 C 520.507812 3.601562 522.117188 3.070312 523.738281 2.578125 C 525.363281 2.085938 526.996094 1.632812 528.640625 1.222656 C 530.285156 0.808594 531.9375 0.4375 533.601562 0.105469 C 535.265625 -0.222656 536.933594 -0.511719 538.613281 -0.761719 C 540.289062 -1.011719 541.972656 -1.21875 543.660156 -1.386719 C 545.347656 -1.550781 547.035156 -1.675781 548.730469 -1.757812 C 550.421875 -1.84375 552.117188 -1.882812 553.8125 -1.882812 Z M 553.8125 -1.882812 " fill-opacity="1" fill-rule="nonzero"></path><path fill="#d0b444" d="M 101.722656 450.210938 L 252.417969 450.210938 C 254.113281 450.210938 255.808594 450.25 257.503906 450.335938 C 259.195312 450.417969 260.886719 450.542969 262.574219 450.707031 C 264.261719 450.875 265.945312 451.082031 267.621094 451.332031 C 269.296875 451.578125 270.96875 451.871094 272.628906 452.199219 C 274.292969 452.53125 275.949219 452.902344 277.59375 453.3125 C 279.238281 453.726562 280.871094 454.179688 282.492188 454.671875 C 284.117188 455.164062 285.726562 455.695312 287.320312 456.265625 C 288.917969 456.835938 290.5 457.445312 292.066406 458.097656 C 293.632812 458.746094 295.183594 459.429688 296.714844 460.15625 C 298.246094 460.882812 299.761719 461.644531 301.257812 462.441406 C 302.753906 463.242188 304.226562 464.078125 305.683594 464.949219 C 307.136719 465.820312 308.570312 466.726562 309.976562 467.667969 C 311.386719 468.613281 312.773438 469.585938 314.136719 470.597656 C 315.496094 471.609375 316.835938 472.652344 318.144531 473.726562 C 319.457031 474.800781 320.738281 475.910156 321.996094 477.046875 C 323.25 478.1875 324.480469 479.355469 325.679688 480.554688 C 326.878906 481.753906 328.046875 482.980469 329.183594 484.238281 C 330.324219 485.492188 331.429688 486.777344 332.507812 488.085938 C 333.582031 489.398438 334.625 490.734375 335.632812 492.097656 C 336.644531 493.457031 337.621094 494.84375 338.5625 496.253906 C 339.503906 497.664062 340.410156 499.097656 341.285156 500.550781 C 342.15625 502.003906 342.992188 503.480469 343.789062 504.976562 C 344.589844 506.46875 345.351562 507.984375 346.074219 509.515625 C 346.800781 511.050781 347.488281 512.597656 348.136719 514.167969 C 348.785156 515.734375 349.394531 517.3125 349.96875 518.910156 C 350.539062 520.507812 351.070312 522.117188 351.5625 523.738281 C 352.054688 525.363281 352.507812 526.996094 352.917969 528.640625 C 353.332031 530.285156 353.703125 531.9375 354.03125 533.601562 C 354.363281 535.265625 354.652344 536.933594 354.902344 538.613281 C 355.152344 540.289062 355.359375 541.972656 355.523438 543.660156 C 355.691406 545.347656 355.816406 547.035156 355.898438 548.730469 C 355.980469 550.421875 356.023438 552.117188 356.023438 553.8125 L 356.023438 704.511719 C 356.023438 706.207031 355.980469 707.902344 355.898438 709.59375 C 355.816406 711.289062 355.691406 712.980469 355.523438 714.667969 C 355.359375 716.355469 355.152344 718.035156 354.902344 719.714844 C 354.652344 721.390625 354.363281 723.0625 354.03125 724.722656 C 353.703125 726.386719 353.332031 728.039062 352.917969 729.683594 C 352.507812 731.332031 352.054688 732.964844 351.5625 734.585938 C 351.070312 736.207031 350.539062 737.820312 349.96875 739.414062 C 349.394531 741.011719 348.785156 742.59375 348.136719 744.160156 C 347.488281 745.726562 346.800781 747.277344 346.074219 748.808594 C 345.351562 750.339844 344.589844 751.855469 343.789062 753.351562 C 342.992188 754.847656 342.15625 756.320312 341.285156 757.773438 C 340.410156 759.230469 339.503906 760.660156 338.5625 762.070312 C 337.621094 763.480469 336.644531 764.867188 335.632812 766.230469 C 334.625 767.589844 333.582031 768.925781 332.507812 770.238281 C 331.429688 771.546875 330.324219 772.832031 329.183594 774.089844 C 328.046875 775.34375 326.878906 776.570312 325.679688 777.769531 C 324.480469 778.96875 323.25 780.140625 321.996094 781.277344 C 320.738281 782.417969 319.457031 783.523438 318.144531 784.597656 C 316.835938 785.675781 315.496094 786.71875 314.136719 787.726562 C 312.773438 788.738281 311.386719 789.714844 309.976562 790.65625 C 308.570312 791.597656 307.136719 792.503906 305.683594 793.375 C 304.226562 794.246094 302.753906 795.082031 301.257812 795.882812 C 299.761719 796.683594 298.246094 797.445312 296.714844 798.167969 C 295.183594 798.894531 293.632812 799.582031 292.066406 800.230469 C 290.5 800.878906 288.917969 801.488281 287.320312 802.058594 C 285.726562 802.632812 284.117188 803.164062 282.492188 803.65625 C 280.871094 804.148438 279.238281 804.597656 277.59375 805.011719 C 275.949219 805.421875 274.292969 805.792969 272.628906 806.125 C 270.96875 806.457031 269.296875 806.746094 267.621094 806.996094 C 265.941406 807.242188 264.261719 807.449219 262.574219 807.617188 C 260.886719 807.785156 259.195312 807.910156 257.503906 807.992188 C 255.808594 808.074219 254.113281 808.117188 252.417969 808.117188 L 101.722656 808.117188 C 100.023438 808.117188 98.332031 808.074219 96.636719 807.992188 C 94.945312 807.910156 93.253906 807.785156 91.566406 807.617188 C 89.878906 807.449219 88.195312 807.242188 86.519531 806.996094 C 84.839844 806.746094 83.171875 806.457031 81.507812 806.125 C 79.84375 805.792969 78.191406 805.421875 76.546875 805.011719 C 74.902344 804.597656 73.269531 804.148438 71.644531 803.65625 C 70.023438 803.164062 68.414062 802.632812 66.816406 802.058594 C 65.222656 801.488281 63.640625 800.878906 62.074219 800.230469 C 60.507812 799.582031 58.957031 798.894531 57.425781 798.167969 C 55.890625 797.445312 54.378906 796.683594 52.882812 795.882812 C 51.386719 795.082031 49.910156 794.246094 48.457031 793.375 C 47.003906 792.503906 45.570312 791.597656 44.160156 790.65625 C 42.75 789.714844 41.367188 788.738281 40.003906 787.726562 C 38.640625 786.71875 37.304688 785.675781 35.996094 784.597656 C 34.683594 783.523438 33.402344 782.417969 32.144531 781.277344 C 30.886719 780.140625 29.660156 778.96875 28.460938 777.769531 C 27.261719 776.570312 26.09375 775.34375 24.953125 774.089844 C 23.816406 772.832031 22.710938 771.546875 21.632812 770.238281 C 20.558594 768.925781 19.515625 767.589844 18.503906 766.230469 C 17.496094 764.867188 16.519531 763.480469 15.578125 762.070312 C 14.636719 760.660156 13.726562 759.230469 12.855469 757.773438 C 11.984375 756.320312 11.148438 754.847656 10.351562 753.351562 C 9.550781 751.855469 8.789062 750.339844 8.0625 748.808594 C 7.339844 747.277344 6.652344 745.726562 6.003906 744.160156 C 5.355469 742.59375 4.742188 741.011719 4.171875 739.414062 C 3.601562 737.820312 3.070312 736.207031 2.578125 734.585938 C 2.085938 732.964844 1.632812 731.332031 1.222656 729.683594 C 0.808594 728.039062 0.4375 726.386719 0.105469 724.722656 C -0.222656 723.0625 -0.511719 721.390625 -0.761719 719.714844 C -1.011719 718.035156 -1.21875 716.355469 -1.386719 714.667969 C -1.550781 712.980469 -1.675781 711.289062 -1.757812 709.59375 C -1.84375 707.902344 -1.882812 706.207031 -1.882812 704.511719 L -1.882812 553.8125 C -1.882812 552.117188 -1.84375 550.421875 -1.757812 548.730469 C -1.675781 547.035156 -1.550781 545.347656 -1.386719 543.660156 C -1.21875 541.972656 -1.011719 540.289062 -0.761719 538.613281 C -0.511719 536.933594 -0.222656 535.265625 0.105469 533.601562 C 0.4375 531.9375 0.808594 530.285156 1.222656 528.640625 C 1.632812 526.996094 2.085938 525.363281 2.578125 523.738281 C 3.070312 522.117188 3.601562 520.507812 4.171875 518.910156 C 4.742188 517.3125 5.355469 515.734375 6.003906 514.167969 C 6.652344 512.597656 7.339844 511.050781 8.0625 509.515625 C 8.789062 507.984375 9.550781 506.46875 10.351562 504.976562 C 11.148438 503.480469 11.984375 502.003906 12.855469 500.550781 C 13.726562 499.097656 14.636719 497.664062 15.578125 496.253906 C 16.519531 494.84375 17.496094 493.457031 18.503906 492.097656 C 19.515625 490.734375 20.558594 489.398438 21.632812 488.085938 C 22.710938 486.777344 23.816406 485.492188 24.953125 484.238281 C 26.09375 482.980469 27.261719 481.753906 28.460938 480.554688 C 29.660156 479.355469 30.886719 478.1875 32.144531 477.046875 C 33.402344 475.910156 34.683594 474.800781 35.996094 473.726562 C 37.304688 472.652344 38.640625 471.609375 40.003906 470.597656 C 41.367188 469.585938 42.75 468.613281 44.160156 467.667969 C 45.570312 466.726562 47.003906 465.820312 48.457031 464.949219 C 49.910156 464.078125 51.386719 463.242188 52.882812 462.441406 C 54.378906 461.644531 55.890625 460.882812 57.425781 460.15625 C 58.957031 459.429688 60.507812 458.746094 62.074219 458.09375 C 63.640625 457.445312 65.222656 456.835938 66.816406 456.265625 C 68.414062 455.695312 70.023438 455.164062 71.644531 454.671875 C 73.269531 454.179688 74.902344 453.726562 76.546875 453.3125 C 78.191406 452.902344 79.84375 452.53125 81.507812 452.199219 C 83.171875 451.871094 84.839844 451.578125 86.519531 451.332031 C 88.195312 451.082031 89.878906 450.875 91.566406 450.707031 C 93.253906 450.542969 94.945312 450.417969 96.636719 450.335938 C 98.332031 450.25 100.023438 450.210938 101.722656 450.210938 Z M 101.722656 450.210938 " fill-opacity="1" fill-rule="nonzero"></path><path fill="#d0b444" d="M 553.8125 450.210938 L 704.511719 450.210938 C 706.207031 450.210938 707.902344 450.25 709.59375 450.335938 C 711.289062 450.417969 712.980469 450.542969 714.667969 450.707031 C 716.355469 450.875 718.035156 451.082031 719.714844 451.332031 C 721.390625 451.578125 723.0625 451.871094 724.722656 452.199219 C 726.386719 452.53125 728.039062 452.902344 729.683594 453.3125 C 731.332031 453.726562 732.964844 454.179688 734.585938 454.671875 C 736.207031 455.164062 737.820312 455.695312 739.414062 456.265625 C 741.011719 456.835938 742.59375 457.445312 744.160156 458.097656 C 745.726562 458.746094 747.277344 459.429688 748.808594 460.15625 C 750.339844 460.882812 751.855469 461.644531 753.351562 462.441406 C 754.847656 463.242188 756.320312 464.078125 757.773438 464.949219 C 759.230469 465.820312 760.660156 466.726562 762.070312 467.667969 C 763.480469 468.613281 764.867188 469.585938 766.230469 470.597656 C 767.589844 471.609375 768.925781 472.652344 770.238281 473.726562 C 771.546875 474.800781 772.832031 475.910156 774.089844 477.046875 C 775.34375 478.1875 776.570312 479.355469 777.769531 480.554688 C 778.96875 481.753906 780.140625 482.980469 781.277344 484.238281 C 782.417969 485.492188 783.523438 486.777344 784.597656 488.085938 C 785.675781 489.398438 786.71875 490.734375 787.726562 492.097656 C 788.738281 493.457031 789.714844 494.84375 790.65625 496.253906 C 791.597656 497.664062 792.503906 499.097656 793.375 500.550781 C 794.246094 502.003906 795.082031 503.480469 795.882812 504.976562 C 796.683594 506.46875 797.445312 507.984375 798.167969 509.515625 C 798.894531 511.050781 799.582031 512.597656 800.230469 514.167969 C 800.878906 515.734375 801.488281 517.3125 802.058594 518.910156 C 802.632812 520.507812 803.164062 522.117188 803.65625 523.738281 C 804.148438 525.363281 804.597656 526.996094 805.011719 528.640625 C 805.421875 530.285156 805.792969 531.9375 806.125 533.601562 C 806.457031 535.265625 806.746094 536.933594 806.996094 538.613281 C 807.242188 540.289062 807.449219 541.972656 807.617188 543.660156 C 807.785156 545.347656 807.910156 547.035156 807.992188 548.730469 C 808.074219 550.421875 808.117188 552.117188 808.117188 553.8125 L 808.117188 704.511719 C 808.117188 706.207031 808.074219 707.902344 807.992188 709.59375 C 807.910156 711.289062 807.785156 712.980469 807.617188 714.667969 C 807.449219 716.355469 807.242188 718.035156 806.996094 719.714844 C 806.746094 721.390625 806.457031 723.0625 806.125 724.722656 C 805.792969 726.386719 805.421875 728.039062 805.011719 729.683594 C 804.597656 731.332031 804.148438 732.964844 803.65625 734.585938 C 803.164062 736.207031 802.632812 737.820312 802.058594 739.414062 C 801.488281 741.011719 800.878906 742.59375 800.230469 744.160156 C 799.582031 745.726562 798.894531 747.277344 798.167969 748.808594 C 797.445312 750.339844 796.683594 751.855469 795.882812 753.351562 C 795.082031 754.847656 794.246094 756.320312 793.375 757.773438 C 792.503906 759.230469 791.597656 760.660156 790.65625 762.070312 C 789.714844 763.480469 788.738281 764.867188 787.726562 766.230469 C 786.71875 767.589844 785.675781 768.925781 784.597656 770.238281 C 783.523438 771.546875 782.417969 772.832031 781.277344 774.089844 C 780.140625 775.34375 778.96875 776.570312 777.769531 777.769531 C 776.570312 778.96875 775.34375 780.140625 774.089844 781.277344 C 772.832031 782.417969 771.546875 783.523438 770.238281 784.597656 C 768.925781 785.675781 767.589844 786.71875 766.230469 787.726562 C 764.867188 788.738281 763.480469 789.714844 762.070312 790.65625 C 760.660156 791.597656 759.230469 792.503906 757.773438 793.375 C 756.320312 794.246094 754.847656 795.082031 753.351562 795.882812 C 751.855469 796.683594 750.339844 797.445312 748.808594 798.167969 C 747.277344 798.894531 745.726562 799.582031 744.160156 800.230469 C 742.59375 800.878906 741.011719 801.488281 739.414062 802.058594 C 737.820312 802.632812 736.207031 803.164062 734.585938 803.65625 C 732.964844 804.148438 731.332031 804.597656 729.683594 805.011719 C 728.039062 805.421875 726.386719 805.792969 724.722656 806.125 C 723.0625 806.457031 721.390625 806.746094 719.714844 806.996094 C 718.035156 807.242188 716.355469 807.449219 714.667969 807.617188 C 712.980469 807.785156 711.289062 807.910156 709.59375 807.992188 C 707.902344 808.074219 706.207031 808.117188 704.511719 808.117188 L 553.8125 808.117188 C 552.117188 808.117188 550.421875 808.074219 548.730469 807.992188 C 547.035156 807.910156 545.347656 807.785156 543.660156 807.617188 C 541.972656 807.449219 540.289062 807.242188 538.613281 806.996094 C 536.933594 806.746094 535.265625 806.457031 533.601562 806.125 C 531.9375 805.792969 530.285156 805.421875 528.640625 805.011719 C 526.996094 804.597656 525.363281 804.148438 523.738281 803.65625 C 522.117188 803.164062 520.507812 802.632812 518.910156 802.058594 C 517.3125 801.488281 515.734375 800.878906 514.167969 800.230469 C 512.597656 799.582031 511.050781 798.894531 509.515625 798.167969 C 507.984375 797.445312 506.46875 796.683594 504.976562 795.882812 C 503.480469 795.082031 502.003906 794.246094 500.550781 793.375 C 499.097656 792.503906 497.664062 791.597656 496.253906 790.65625 C 494.84375 789.714844 493.457031 788.738281 492.097656 787.726562 C 490.734375 786.71875 489.398438 785.675781 488.085938 784.597656 C 486.777344 783.523438 485.492188 782.417969 484.238281 781.277344 C 482.980469 780.140625 481.753906 778.96875 480.554688 777.769531 C 479.355469 776.570312 478.1875 775.34375 477.046875 774.089844 C 475.910156 772.832031 474.800781 771.546875 473.726562 770.238281 C 472.652344 768.925781 471.609375 767.589844 470.597656 766.230469 C 469.585938 764.867188 468.613281 763.480469 467.667969 762.070312 C 466.726562 760.660156 465.820312 759.230469 464.949219 757.773438 C 464.078125 756.320312 463.242188 754.847656 462.441406 753.351562 C 461.644531 751.855469 460.882812 750.339844 460.15625 748.808594 C 459.429688 747.277344 458.746094 745.726562 458.09375 744.160156 C 457.445312 742.59375 456.835938 741.011719 456.265625 739.414062 C 455.695312 737.820312 455.164062 736.207031 454.671875 734.585938 C 454.179688 732.964844 453.726562 731.332031 453.3125 729.683594 C 452.902344 728.039062 452.53125 726.386719 452.199219 724.722656 C 451.871094 723.0625 451.578125 721.390625 451.332031 719.714844 C 451.082031 718.035156 450.875 716.355469 450.707031 714.667969 C 450.542969 712.980469 450.417969 711.289062 450.335938 709.59375 C 450.25 707.902344 450.210938 706.207031 450.210938 704.511719 L 450.210938 553.8125 C 450.210938 552.117188 450.25 550.421875 450.335938 548.730469 C 450.417969 547.035156 450.542969 545.347656 450.707031 543.660156 C 450.875 541.972656 451.082031 540.289062 451.332031 538.613281 C 451.578125 536.933594 451.871094 535.265625 452.199219 533.601562 C 452.53125 531.9375 452.902344 530.285156 453.3125 528.640625 C 453.726562 526.996094 454.179688 525.363281 454.671875 523.738281 C 455.164062 522.117188 455.695312 520.507812 456.265625 518.910156 C 456.835938 517.3125 457.445312 515.734375 458.09375 514.167969 C 458.746094 512.597656 459.429688 511.050781 460.15625 509.515625 C 460.882812 507.984375 461.644531 506.46875 462.441406 504.976562 C 463.242188 503.480469 464.078125 502.003906 464.949219 500.550781 C 465.820312 499.097656 466.726562 497.664062 467.667969 496.253906 C 468.613281 494.84375 469.585938 493.457031 470.597656 492.097656 C 471.609375 490.734375 472.652344 489.398438 473.726562 488.085938 C 474.800781 486.777344 475.910156 485.492188 477.046875 484.238281 C 478.1875 482.980469 479.355469 481.753906 480.554688 480.554688 C 481.753906 479.355469 482.980469 478.1875 484.238281 477.046875 C 485.492188 475.910156 486.777344 474.800781 488.085938 473.726562 C 489.398438 472.652344 490.734375 471.609375 492.097656 470.597656 C 493.457031 469.585938 494.84375 468.613281 496.253906 467.667969 C 497.664062 466.726562 499.097656 465.820312 500.550781 464.949219 C 502.003906 464.078125 503.480469 463.242188 504.976562 462.441406 C 506.46875 461.644531 507.984375 460.882812 509.515625 460.15625 C 511.050781 459.429688 512.597656 458.746094 514.167969 458.09375 C 515.734375 457.445312 517.3125 456.835938 518.910156 456.265625 C 520.507812 455.695312 522.117188 455.164062 523.738281 454.671875 C 525.363281 454.179688 526.996094 453.726562 528.640625 453.3125 C 530.285156 452.902344 531.9375 452.53125 533.601562 452.199219 C 535.265625 451.871094 536.933594 451.578125 538.613281 451.332031 C 540.289062 451.082031 541.972656 450.875 543.660156 450.707031 C 545.347656 450.542969 547.035156 450.417969 548.730469 450.335938 C 550.421875 450.25 552.117188 450.210938 553.8125 450.210938 Z M 553.8125 450.210938 " fill-opacity="1" fill-rule="nonzero"></path></svg>