<svg xmlns="http://www.w3.org/2000/svg" xmlns:xlink="http://www.w3.org/1999/xlink" width="1080" viewBox="0 0 810 809.999993" height="1080" preserveAspectRatio="xMidYMid meet"><defs><clipPath id="c43ee1bf11"><path d="M 2.285156 1 L 807 1 L 807 810 L 2.285156 810 Z M 2.285156 1 " clip-rule="nonzero"></path></clipPath></defs><g clip-path="url(#c43ee1bf11)"><path fill="#d0b444" d="M 802.226562 255.53125 C 797.644531 228.933594 790.222656 203.167969 779.144531 178.453125 C 762.675781 141.652344 740.144531 109.242188 710.53125 81.75 C 686.089844 59.046875 658.542969 41.230469 628.042969 27.839844 C 592.128906 12.074219 554.464844 3.574219 515.417969 1.617188 C 482.949219 -0.0273438 450.675781 2.414062 418.722656 8.976562 C 370.9375 18.773438 326.363281 36.679688 284.253906 61.074219 C 275.460938 66.15625 267.234375 72.125 257.425781 75.589844 C 229.941406 85.304688 204.003906 98.292969 179.441406 114.023438 C 153.328125 130.742188 129.492188 150.199219 107.976562 172.558594 C 94.386719 186.679688 81.925781 201.695312 70.628906 217.683594 C 51.738281 244.433594 36.691406 273.246094 25.3125 303.984375 C 12.234375 339.300781 4.921875 375.777344 3.15625 413.316406 C 2.5 427.035156 2.691406 440.785156 3.597656 454.546875 C 4.59375 469.695312 6.300781 484.703125 9.21875 499.535156 C 18.660156 547.632812 36.828125 592.246094 63.785156 633.191406 C 83.625 663.300781 107.273438 690.054688 134.65625 713.554688 C 159.535156 734.886719 186.65625 752.746094 215.941406 767.378906 C 239.191406 778.988281 263.347656 788.28125 288.429688 795.148438 C 320.074219 803.804688 352.246094 808.773438 385.085938 809.644531 C 396.410156 809.953125 407.710938 809.644531 419.007812 809.378906 C 427.195312 809.1875 435.414062 808.566406 443.539062 807.570312 C 464.175781 805.019531 484.605469 801.289062 504.695312 795.851562 C 531.714844 788.519531 557.773438 778.648438 582.679688 765.945312 C 609.769531 752.117188 634.996094 735.425781 658.324219 715.839844 C 678.386719 698.992188 696.527344 680.355469 712.78125 659.898438 C 733.144531 634.242188 749.707031 606.257812 762.839844 576.242188 C 773.140625 552.675781 780.828125 528.226562 786.09375 503.109375 C 791.484375 477.433594 793.972656 451.386719 793.160156 425.089844 C 793.03125 421.214844 793.660156 417.496094 794.585938 413.765625 C 802.535156 381.65625 807.460938 349.152344 806.785156 314.183594 C 807.507812 295.648438 805.652344 275.484375 802.226562 255.53125 Z M 779.257812 479.574219 C 776.148438 501.59375 771.351562 523.246094 764.082031 544.3125 C 753.398438 575.273438 739.085938 604.429688 720.550781 631.503906 C 708.109375 649.671875 694.28125 666.609375 678.953125 682.441406 C 655.152344 707.019531 628.433594 727.820312 598.992188 745.160156 C 563.054688 766.320312 524.667969 781.28125 483.972656 790.265625 C 468.226562 793.738281 452.3125 796.097656 436.253906 797.707031 C 423.8125 798.941406 411.394531 799.160156 398.945312 799.378906 C 348.472656 800.21875 299.957031 790.503906 253.019531 772.535156 C 215.28125 758.09375 180.703125 737.921875 149.363281 712.472656 C 116.128906 685.457031 88.160156 653.703125 65.832031 617.003906 C 46.296875 584.886719 32.039062 550.683594 23.164062 514.226562 C 18.300781 494.289062 15.277344 474.054688 13.886719 453.535156 C 12.9375 439.769531 12.761719 426.003906 13.449219 412.3125 C 14.875 383.988281 19.726562 356.15625 27.871094 328.9375 C 34.652344 306.339844 43.5 284.578125 54.542969 263.75 C 67.3125 239.636719 82.492188 217.1875 100.28125 196.429688 C 124.527344 168.113281 152.269531 143.902344 183.546875 123.730469 C 196.625 115.292969 210 107.296875 224.292969 101.007812 C 224.578125 101.253906 224.84375 101.519531 225.105469 101.777344 C 215.746094 109.945312 206.105469 117.835938 197.046875 126.351562 C 167.605469 154.039062 141.722656 184.757812 119.875 218.777344 C 99.730469 250.136719 83.296875 283.308594 71.03125 318.5625 C 62.265625 343.761719 55.832031 369.519531 51.78125 395.839844 C 49.734375 409.105469 48.691406 422.492188 47.890625 435.9375 C 47.15625 448.425781 47.46875 460.847656 48.109375 473.285156 C 49.453125 499.800781 53.839844 525.8125 61.296875 551.304688 C 70.464844 582.683594 84.175781 611.976562 102.75 638.90625 C 129.0625 677 162.597656 707.046875 203.253906 729.238281 C 230.601562 744.144531 259.582031 754.457031 289.992188 760.660156 C 309.261719 764.582031 328.792969 766.539062 348.527344 767.113281 C 407.835938 768.859375 464.277344 756.648438 518.644531 733.507812 C 558.804688 716.414062 595.757812 693.957031 629.660156 666.582031 C 657.535156 644.070312 682.617188 618.769531 705.109375 590.828125 C 726.433594 564.339844 744.640625 535.90625 760.097656 505.667969 C 767.4375 491.292969 773.898438 476.484375 779.566406 461.359375 C 779.894531 460.472656 780.253906 459.59375 781.066406 457.511719 C 781.585938 465.800781 780.226562 472.710938 779.257812 479.574219 Z M 794.042969 358.816406 C 793.167969 365.6875 792.21875 372.550781 791.3125 379.40625 C 790.808594 379.125 790.296875 378.859375 789.792969 378.59375 C 787.527344 361.613281 783.808594 344.921875 779.046875 328.480469 C 772.347656 305.289062 763.671875 282.832031 752.3125 261.527344 C 737.96875 234.574219 721.089844 209.335938 700.933594 186.277344 C 679.179688 161.414062 654.710938 139.652344 627.511719 121.023438 C 599.449219 101.820312 569.371094 86.457031 537.335938 74.886719 C 512.511719 65.917969 487.054688 59.449219 461.023438 55.371094 C 448.601562 53.433594 436.070312 52.308594 423.503906 51.46875 C 411.15625 50.628906 398.84375 50.691406 386.53125 50.855469 C 361.714844 51.210938 337.21875 54.484375 312.933594 59.375 C 312.046875 59.246094 311.023438 59.566406 310.421875 58.5625 C 349.859375 38.277344 391.265625 24.058594 435.046875 16.570312 C 461.28125 12.082031 487.675781 10.492188 514.144531 11.902344 C 553.164062 13.964844 590.777344 22.519531 626.605469 38.570312 C 662.574219 54.683594 693.859375 77.226562 720.292969 106.328125 C 750.511719 139.605469 771.324219 178.234375 783.742188 221.394531 C 790.277344 244.015625 794.355469 267.046875 795.808594 290.582031 C 797.214844 313.398438 796.914062 336.128906 794.042969 358.816406 Z M 794.042969 358.816406 " fill-opacity="1" fill-rule="nonzero"></path></g></svg>