<svg xmlns="http://www.w3.org/2000/svg" xmlns:xlink="http://www.w3.org/1999/xlink" width="1080" viewBox="0 0 810 809.999993" height="1080" preserveAspectRatio="xMidYMid meet"><defs><clipPath id="abf9e8c140"><path d="M 12.148438 0 L 794 0 L 794 810 L 12.148438 810 Z M 12.148438 0 " clip-rule="nonzero"></path></clipPath></defs><g clip-path="url(#abf9e8c140)"><path fill="#d0b444" d="M 781.65625 745.03125 L 587.59375 558.59375 C 645.234375 496.929688 676.820312 416.949219 676.820312 332.105469 C 676.820312 247.261719 642.234375 160.019531 579.546875 97.273438 C 516.800781 34.527344 433.398438 0 344.714844 0 C 256.027344 0 172.625 34.527344 109.878906 97.273438 C 47.132812 160.019531 12.605469 243.421875 12.605469 332.105469 C 12.605469 420.792969 47.132812 504.195312 109.878906 566.941406 C 172.625 629.6875 256.027344 664.210938 344.714844 664.210938 C 411.601562 664.210938 475.429688 644.578125 529.710938 608.011719 L 729.179688 799.613281 C 736.261719 806.398438 745.570312 810.179688 755.417969 810.179688 C 765.265625 810.179688 775.652344 805.917969 782.738281 798.53125 C 797.207031 783.460938 796.726562 759.441406 781.65625 744.972656 Z M 490.621094 550.128906 C 448.890625 578.109375 398.753906 594.441406 344.714844 594.441406 C 199.824219 594.441406 82.4375 476.992188 82.4375 332.167969 C 82.4375 187.339844 199.824219 69.832031 344.714844 69.832031 C 489.601562 69.832031 606.988281 187.277344 606.988281 332.105469 C 606.988281 403.917969 578.105469 469.007812 531.332031 516.382812 C 518.960938 528.933594 505.273438 540.28125 490.5625 550.128906 Z M 490.621094 550.128906 " fill-opacity="1" fill-rule="nonzero"></path></g></svg>