<svg xmlns="http://www.w3.org/2000/svg" xmlns:xlink="http://www.w3.org/1999/xlink" width="1080" viewBox="0 0 810 809.999993" height="1080" preserveAspectRatio="xMidYMid meet"><defs><clipPath id="cd6ae230f6"><path d="M 0.015625 137.257812 L 598 137.257812 L 598 672.746094 L 0.015625 672.746094 Z M 0.015625 137.257812 " clip-rule="nonzero"></path></clipPath><clipPath id="88e360efb5"><path d="M 660 397.347656 L 809.996094 397.347656 L 809.996094 410.242188 L 660 410.242188 Z M 660 397.347656 " clip-rule="nonzero"></path></clipPath></defs><g clip-path="url(#cd6ae230f6)"><path fill="#d0b444" d="M 490.835938 660.121094 C 478.601562 660.121094 466.832031 653.386719 455.988281 641.339844 L 455.707031 640.972656 C 452.925781 637.316406 450.402344 634.125 448.003906 631.230469 L 447.558594 630.640625 C 432.015625 608.328125 418.886719 574.628906 409.824219 533.933594 L 507.75 516.472656 C 537.648438 515.425781 553.777344 458.5625 553.777344 405.003906 C 553.777344 351.3125 537.574219 294.304688 507.539062 293.519531 L 507.539062 293.511719 C 506.78125 293.4375 437.359375 286.558594 408.769531 280.949219 C 425.191406 203.457031 456.183594 149.882812 490.835938 149.882812 C 542.023438 149.882812 585.269531 266.714844 585.269531 405.003906 C 585.269531 543.289062 542.023438 660.121094 490.835938 660.121094 Z M 460.0625 405.003906 C 460.0625 446 469.515625 488.921875 487.351562 507.289062 L 407.246094 521.570312 C 400.351562 486.394531 396.402344 446.691406 396.402344 405.003906 C 396.402344 365.238281 399.992188 327.273438 406.304688 293.324219 C 426.066406 297.195312 463.097656 301.492188 486.167969 303.984375 C 469.097656 323 460.0625 364.921875 460.0625 405.003906 Z M 506.917969 503.898438 C 490.730469 503.898438 472.6875 463.285156 472.6875 405.003906 C 472.6875 346.722656 490.730469 306.105469 506.917969 306.105469 C 523.113281 306.105469 541.152344 346.722656 541.152344 405.003906 C 541.152344 463.285156 523.113281 503.898438 506.917969 503.898438 Z M 254.804688 503 L 254.832031 502.792969 L 249.765625 501.109375 C 246.808594 500.125 243.855469 499.226562 240.886719 498.320312 C 232.625 495.816406 224.390625 493.539062 216.449219 491.550781 C 203.964844 488.378906 191.070312 485.542969 178.125 483.128906 L 178.09375 483.300781 C 178.089844 483.300781 178.082031 483.296875 178.078125 483.296875 C 161.132812 480.183594 144.144531 477.808594 127.585938 476.234375 C 122.882812 475.78125 118.125 475.433594 113.382812 475.101562 C 89.855469 410.390625 107.828125 349.65625 113.273438 334.0625 C 175.066406 332.863281 310.609375 317.46875 414.660156 215.175781 C 395.480469 263.320312 383.777344 330.109375 383.777344 405.003906 C 383.777344 480.390625 395.640625 547.570312 415.050781 595.78125 C 372.089844 555.273438 318.386719 524.160156 254.804688 503 Z M 220.957031 536.214844 L 220.957031 506.15625 C 226.292969 507.585938 231.683594 509.089844 237.121094 510.738281 C 238.175781 511.0625 239.230469 511.382812 240.289062 511.707031 C 237.367188 523.335938 230.015625 532.476562 220.957031 536.214844 Z M 170.914062 660.320312 C 160.785156 660.320312 151.292969 656.382812 144.164062 649.222656 C 137.019531 642.113281 133.085938 632.617188 133.085938 622.488281 L 133.085938 489.515625 C 147.15625 491.027344 161.480469 493.082031 175.773438 495.710938 L 175.742188 495.882812 C 186.875 497.964844 197.921875 500.402344 208.746094 503.058594 L 208.746094 622.488281 C 208.746094 643.347656 191.773438 660.320312 170.914062 660.320312 Z M 81.363281 473.976562 C 80.605469 473.976562 79.910156 473.953125 79.203125 473.929688 C 56.148438 412.289062 74.039062 349.328125 79.3125 333.421875 C 79.898438 333.402344 80.46875 333.378906 81.085938 333.375 C 82.613281 333.511719 89.414062 334.023438 100.308594 334.136719 C 93.390625 355.261719 79.222656 411.945312 100.15625 474.320312 C 88.398438 473.828125 81.585938 473.964844 81.363281 473.976562 Z M 12.640625 403.65625 C 12.640625 384.824219 19.800781 367.160156 32.808594 353.914062 C 41.925781 344.605469 53.414062 338.203125 65.875 335.257812 C 59.058594 357.710938 46.167969 414.039062 65.566406 472.011719 C 35.214844 464.636719 12.640625 436.429688 12.640625 403.65625 Z M 490.835938 137.257812 C 473.550781 137.257812 457.355469 147.054688 443.039062 164.523438 L 442.609375 164.199219 C 337.566406 304.164062 174.335938 320.835938 109.019531 321.507812 C 92.183594 321.730469 82.054688 320.789062 81.953125 320.777344 L 81.363281 320.75 C 78.832031 320.75 76.535156 320.859375 74.429688 321.066406 C 55.335938 322.703125 37.351562 331.230469 23.792969 345.074219 C 8.460938 360.691406 0.015625 381.496094 0.015625 403.65625 C 0.015625 446.429688 32.703125 482.726562 74.34375 486.277344 C 76.523438 486.5 78.742188 486.480469 81.515625 486.601562 C 81.609375 486.578125 91.785156 486.371094 108.695312 487.390625 C 112.734375 487.648438 116.808594 488.011719 120.875 488.363281 L 120.875 622.488281 C 120.875 635.890625 126.085938 648.457031 135.53125 657.855469 C 144.945312 667.316406 157.511719 672.53125 170.914062 672.53125 C 198.507812 672.53125 220.957031 650.082031 220.957031 622.488281 L 220.957031 549.933594 C 236.035156 546.136719 248.113281 533.039062 252.671875 515.605469 C 330.09375 541.703125 392.246094 582.882812 437.410156 638.175781 L 438.101562 639.0625 C 438.164062 639.144531 438.226562 639.230469 438.296875 639.3125 C 440.558594 642.4375 442.871094 645.359375 445.238281 648.078125 C 445.378906 648.261719 445.523438 648.433594 445.664062 648.617188 L 445.695312 648.589844 C 459.351562 664.09375 474.609375 672.746094 490.835938 672.746094 C 550.867188 672.746094 597.894531 555.136719 597.894531 405.003906 C 597.894531 254.867188 550.867188 137.257812 490.835938 137.257812 " fill-opacity="1" fill-rule="nonzero"></path></g><g clip-path="url(#88e360efb5)"><path fill="#d0b444" d="M 803.683594 410.160156 L 666.328125 410.160156 C 662.835938 410.160156 660.011719 407.335938 660.011719 403.847656 C 660.011719 400.359375 662.835938 397.535156 666.328125 397.535156 L 803.683594 397.535156 C 807.167969 397.535156 809.996094 400.359375 809.996094 403.847656 C 809.996094 407.335938 807.167969 410.160156 803.683594 410.160156 " fill-opacity="1" fill-rule="nonzero"></path></g><path fill="#d0b444" d="M 642.886719 291.882812 C 640.386719 291.882812 638.019531 290.394531 637.027344 287.933594 C 635.722656 284.703125 637.285156 281.023438 640.519531 279.71875 L 767.878906 228.261719 C 771.113281 226.945312 774.792969 228.515625 776.09375 231.75 C 777.402344 234.980469 775.835938 238.660156 772.609375 239.964844 L 645.246094 291.421875 C 644.472656 291.738281 643.671875 291.882812 642.886719 291.882812 " fill-opacity="1" fill-rule="nonzero"></path><path fill="#d0b444" d="M 771.101562 580.0625 C 770.316406 580.0625 769.519531 579.917969 768.746094 579.605469 L 641.386719 528.144531 C 638.148438 526.839844 636.585938 523.160156 637.894531 519.929688 C 639.195312 516.699219 642.871094 515.136719 646.113281 516.441406 L 773.46875 567.898438 C 776.707031 569.207031 778.269531 572.886719 776.957031 576.113281 C 775.972656 578.574219 773.601562 580.0625 771.101562 580.0625 " fill-opacity="1" fill-rule="nonzero"></path></svg>