<svg xmlns="http://www.w3.org/2000/svg" xmlns:xlink="http://www.w3.org/1999/xlink" width="1080" viewBox="0 0 810 809.999993" height="1080" preserveAspectRatio="xMidYMid meet"><path fill="#4cc190" d="M 307.242188 0 L 544.65625 0 C 583.222656 0 614.484375 31.257812 614.484375 69.828125 L 614.484375 293.277344 C 614.484375 300.96875 608.210938 307.242188 600.515625 307.242188 L 509.90625 307.242188 C 505.433594 307.242188 503.03125 312.261719 505.703125 315.914062 C 515.03125 328.460938 519.398438 345.210938 515.03125 362.941406 C 510.285156 382.796875 494.085938 398.835938 474.28125 403.472656 C 437.566406 411.984375 405 384.324219 405 349.136719 C 405 336.699219 409.035156 325.132812 416.019531 315.914062 C 418.691406 312.261719 416.292969 307.242188 411.820312 307.242188 L 307.242188 307.242188 L 293.277344 293.277344 L 293.277344 13.964844 L 307.242188 0 " fill-opacity="1" fill-rule="nonzero"></path><path fill="#f9b928" d="M 0 307.242188 L 0 69.828125 C 0 31.257812 31.257812 0 69.828125 0 L 293.277344 0 C 300.914062 0 307.242188 6.273438 307.242188 13.964844 L 307.242188 104.578125 C 307.242188 109.050781 312.261719 111.453125 315.859375 108.777344 C 328.460938 99.449219 345.210938 95.085938 362.941406 99.449219 C 382.742188 104.195312 398.835938 120.398438 403.472656 140.199219 C 411.984375 176.914062 384.324219 209.484375 349.136719 209.484375 C 336.699219 209.484375 325.082031 205.445312 315.859375 198.464844 C 312.261719 195.789062 307.242188 198.191406 307.242188 202.664062 L 307.242188 307.242188 L 293.277344 321.207031 L 13.964844 321.207031 L 0 307.242188 " fill-opacity="1" fill-rule="nonzero"></path><path fill="#3d56af" d="M 810 516.722656 L 810 740.171875 C 810 778.742188 778.742188 810 740.171875 810 L 516.722656 810 C 509.03125 810 502.757812 803.726562 502.757812 796.035156 L 502.757812 705.367188 C 502.757812 700.894531 497.738281 698.546875 494.140625 701.167969 C 481.539062 710.605469 464.84375 714.859375 447.058594 710.605469 C 427.203125 705.859375 411.164062 689.65625 406.527344 669.746094 C 398.070312 633.085938 425.621094 600.515625 460.863281 600.515625 C 473.355469 600.515625 484.867188 604.609375 494.085938 611.535156 C 497.683594 614.210938 502.757812 611.863281 502.757812 607.390625 L 502.757812 516.722656 C 502.757812 509.03125 509.03125 502.757812 516.722656 502.757812 L 607.390625 502.757812 C 611.917969 502.757812 614.210938 507.777344 611.535156 511.378906 C 602.152344 523.980469 597.898438 540.671875 602.152344 558.457031 C 606.953125 578.3125 623.101562 594.351562 643.015625 598.988281 C 679.671875 607.445312 712.242188 579.894531 712.242188 544.65625 C 712.242188 532.164062 708.148438 520.652344 701.222656 511.433594 C 698.546875 507.832031 700.894531 502.757812 705.367188 502.757812 L 796.035156 502.757812 C 803.726562 502.757812 810 509.03125 810 516.722656 " fill-opacity="1" fill-rule="nonzero"></path><path fill="#de3850" d="M 293.277344 614.484375 L 69.828125 614.484375 C 31.257812 614.484375 0 583.222656 0 544.65625 L 0 307.242188 L 104.632812 307.242188 C 109.105469 307.242188 111.453125 302.222656 108.832031 298.621094 C 99.394531 286.019531 95.140625 269.328125 99.394531 251.542969 C 104.140625 231.6875 120.34375 215.648438 140.253906 211.011719 C 176.914062 202.554688 209.484375 230.105469 209.484375 265.34375 C 209.484375 277.835938 205.390625 289.347656 198.464844 298.566406 C 195.789062 302.167969 198.136719 307.242188 202.609375 307.242188 L 307.242188 307.242188 L 307.242188 411.875 C 307.242188 416.402344 302.222656 418.691406 298.621094 416.019531 C 286.019531 406.636719 269.328125 402.382812 251.542969 406.636719 C 231.6875 411.4375 215.648438 427.585938 211.011719 447.496094 C 202.554688 484.15625 230.105469 516.722656 265.34375 516.722656 C 277.835938 516.722656 289.347656 512.632812 298.566406 505.703125 C 302.167969 503.03125 307.242188 505.378906 307.242188 509.851562 L 307.242188 600.515625 C 307.242188 608.210938 300.96875 614.484375 293.277344 614.484375 " fill-opacity="1" fill-rule="nonzero"></path></svg>