<svg xmlns="http://www.w3.org/2000/svg" xmlns:xlink="http://www.w3.org/1999/xlink" width="1080" viewBox="0 0 810 809.999993" height="1080" preserveAspectRatio="xMidYMid meet"><defs><clipPath id="3c33518fd9"><path d="M 72 87 L 805 87 L 805 768.261719 L 72 768.261719 Z M 72 87 " clip-rule="nonzero"></path></clipPath><clipPath id="436eca4401"><path d="M 264 41.511719 L 278 41.511719 L 278 147 L 264 147 Z M 264 41.511719 " clip-rule="nonzero"></path></clipPath></defs><g clip-path="url(#3c33518fd9)"><path fill="#d0b444" d="M 800.636719 126.070312 L 789.628906 105.8125 C 785.222656 97.703125 777.933594 91.804688 769.097656 89.207031 C 760.289062 86.613281 750.988281 87.613281 742.921875 92.027344 L 438.730469 258.484375 C 402.363281 202.003906 338.800781 167.164062 271.355469 167.164062 C 189.660156 167.164062 115.101562 218.222656 85.828125 294.21875 C 72.519531 328.765625 69.230469 366.402344 76.3125 403.058594 C 83.339844 439.441406 100.226562 473.128906 125.144531 500.476562 C 137.300781 513.816406 146.195312 529.933594 150.863281 547.054688 L 169.222656 615.746094 C 162.691406 620.382812 158.40625 627.976562 158.40625 636.558594 L 158.40625 646.441406 C 158.40625 656.664062 164.476562 665.484375 173.199219 669.566406 C 170.007812 673.828125 168.097656 679.089844 168.097656 684.804688 L 168.097656 694.683594 C 168.097656 704.910156 174.164062 713.726562 182.886719 717.808594 C 179.699219 722.070312 177.785156 727.332031 177.785156 733.046875 L 177.785156 742.925781 C 177.785156 757.019531 189.285156 768.484375 203.421875 768.484375 L 339.289062 768.484375 C 353.425781 768.484375 364.925781 757.019531 364.925781 742.925781 L 364.925781 733.046875 C 364.925781 727.332031 363.011719 722.070312 359.824219 717.808594 C 368.542969 713.726562 374.613281 704.910156 374.613281 694.683594 L 374.613281 684.804688 C 374.613281 679.089844 372.699219 673.828125 369.511719 669.566406 C 378.234375 665.484375 384.300781 656.664062 384.300781 646.441406 L 384.300781 636.558594 C 384.300781 622.46875 372.800781 611 358.664062 611 L 324.988281 611 L 324.988281 519.054688 C 324.988281 505.417969 330.507812 492.066406 340.535156 481.457031 C 356.535156 464.519531 361.460938 440.0625 352.789062 420.601562 C 346.691406 406.910156 334.167969 396.363281 318.425781 391.671875 C 302.648438 386.964844 285.714844 388.871094 271.355469 396.847656 C 256.992188 388.871094 240.050781 386.964844 224.28125 391.671875 C 208.542969 396.367188 196.019531 406.910156 189.917969 420.601562 C 181.25 440.0625 186.171875 464.519531 202.175781 481.457031 C 212.199219 492.066406 217.71875 505.421875 217.71875 519.054688 L 217.71875 611 L 181.203125 611.167969 L 163.175781 543.730469 C 157.972656 524.640625 148.082031 506.714844 134.574219 491.886719 C 87.085938 439.769531 72.625 363.980469 97.730469 298.804688 C 125.125 227.695312 194.898438 179.917969 271.355469 179.917969 C 334.847656 179.917969 394.652344 212.914062 428.589844 266.320312 L 394.851562 328.859375 C 393.824219 330.761719 393.832031 333.050781 394.867188 334.945312 C 395.902344 336.839844 397.824219 338.082031 399.976562 338.246094 L 472.417969 343.800781 C 473.644531 343.816406 474.835938 343.613281 475.96875 343.035156 L 786.898438 172.890625 C 803.546875 163.777344 809.710938 142.773438 800.636719 126.070312 Z M 352.171875 742.925781 C 352.171875 749.988281 346.390625 755.730469 339.285156 755.730469 L 203.417969 755.730469 C 196.316406 755.730469 190.535156 749.988281 190.535156 742.925781 L 190.535156 733.046875 C 190.535156 725.992188 196.308594 720.25 203.402344 720.242188 L 339.300781 720.242188 C 346.398438 720.25 352.167969 725.992188 352.167969 733.046875 L 352.167969 742.925781 Z M 361.859375 694.683594 C 361.859375 701.742188 356.078125 707.488281 348.976562 707.488281 L 193.730469 707.488281 C 186.628906 707.488281 180.847656 701.742188 180.847656 694.683594 L 180.847656 684.804688 C 180.847656 677.742188 186.628906 672 193.734375 672 L 348.976562 672 C 356.078125 672 361.859375 677.742188 361.859375 684.804688 Z M 271.351562 411.632812 C 280.394531 417.410156 285.980469 426.554688 286.140625 436.15625 C 286.269531 443.90625 282.859375 452.878906 277.84375 457.976562 C 275.640625 460.214844 273.335938 461.449219 271.351562 461.449219 C 269.367188 461.449219 267.0625 460.214844 264.863281 457.976562 C 259.847656 452.878906 256.4375 443.90625 256.5625 436.15625 C 256.726562 426.554688 262.308594 417.410156 271.351562 411.632812 Z M 211.445312 472.695312 C 198.9375 459.457031 194.96875 440.609375 201.570312 425.789062 C 206.152344 415.503906 215.757812 407.523438 227.925781 403.890625 C 238.167969 400.835938 249.027344 401.316406 258.882812 405.082031 C 249.589844 413.125 244.007812 424.238281 243.8125 435.945312 C 243.625 447.183594 248.316406 459.339844 255.769531 466.917969 C 260.453125 471.683594 265.84375 474.199219 271.351562 474.199219 C 276.863281 474.199219 282.25 471.679688 286.933594 466.917969 C 294.386719 459.339844 299.082031 447.183594 298.890625 435.941406 C 298.699219 424.238281 293.117188 413.125 283.824219 405.082031 C 293.675781 401.316406 304.539062 400.835938 314.777344 403.890625 C 326.949219 407.519531 336.554688 415.5 341.136719 425.789062 C 347.738281 440.605469 343.765625 459.453125 331.261719 472.695312 C 318.992188 485.683594 312.230469 502.148438 312.230469 519.050781 L 312.230469 611 L 230.472656 611 L 230.472656 519.050781 C 230.472656 502.148438 223.714844 485.683594 211.445312 472.695312 Z M 171.160156 636.558594 C 171.160156 629.5 176.941406 623.753906 184.046875 623.753906 L 358.660156 623.753906 C 365.765625 623.753906 371.546875 629.5 371.546875 636.558594 L 371.546875 646.441406 C 371.546875 653.5 365.765625 659.246094 358.664062 659.246094 L 184.046875 659.246094 C 176.941406 659.246094 171.160156 653.5 171.160156 646.441406 Z M 677 142.636719 C 683.484375 149.078125 689.144531 156.25 693.941406 164.023438 L 637.496094 194.910156 L 468.273438 287.511719 C 468.273438 287.511719 468.273438 287.511719 468.273438 287.515625 L 464.433594 289.617188 L 467.988281 277.484375 C 468.976562 274.109375 467.050781 270.570312 463.675781 269.574219 L 451.570312 266 Z M 410.730469 326.28125 L 419.535156 309.957031 C 421.6875 312.550781 423.609375 315.328125 425.234375 318.3125 C 426.863281 321.3125 428.175781 324.453125 429.183594 327.695312 Z M 468.238281 330.6875 L 442.660156 328.726562 C 441.347656 322.96875 439.269531 317.433594 436.4375 312.222656 C 433.605469 307.007812 430.089844 302.25 425.976562 298.023438 L 438.207031 275.347656 L 453.957031 280 L 447.855469 300.808594 C 446.777344 304.765625 448.371094 307.613281 452.171875 308.71875 L 472.886719 314.835938 Z M 483.359375 324.453125 L 486.914062 312.320312 C 487.90625 308.945312 485.976562 305.40625 482.601562 304.410156 L 470.496094 300.835938 L 643.617188 206.101562 L 700.023438 175.234375 C 703.941406 183.492188 706.875 192.152344 708.753906 201.113281 Z M 720.375 194.753906 C 717.746094 183.839844 713.730469 173.332031 708.351562 163.429688 C 708.347656 163.425781 708.347656 163.417969 708.34375 163.414062 C 708.34375 163.414062 708.34375 163.414062 708.34375 163.410156 C 708.34375 163.410156 708.339844 163.410156 708.339844 163.40625 C 702.957031 153.503906 696.324219 144.421875 688.601562 136.289062 L 700.144531 129.972656 C 708.125 137.902344 714.894531 146.925781 720.289062 156.851562 C 725.6875 166.789062 729.582031 177.402344 731.898438 188.445312 Z M 743.515625 182.089844 C 740.886719 171.175781 736.875 160.667969 731.492188 150.765625 C 726.105469 140.851562 719.46875 131.765625 711.742188 123.625 L 723.285156 117.3125 C 731.265625 125.242188 738.035156 134.265625 743.429688 144.191406 C 748.828125 154.128906 752.722656 164.738281 755.039062 175.785156 Z M 780.777344 161.699219 L 766.660156 169.425781 C 764.027344 158.511719 760.015625 148.003906 754.632812 138.101562 C 749.246094 128.1875 742.613281 119.101562 734.882812 110.964844 L 749.042969 103.214844 C 754.113281 100.441406 759.957031 99.8125 765.496094 101.441406 C 771.054688 103.078125 775.644531 106.792969 778.421875 111.902344 L 789.429688 132.160156 C 795.15625 142.703125 791.277344 155.953125 780.777344 161.699219 Z M 780.777344 161.699219 " fill-opacity="1" fill-rule="nonzero"></path></g><g clip-path="url(#436eca4401)"><path fill="#d0b444" d="M 271.296875 146.851562 C 274.820312 146.851562 277.675781 143.996094 277.675781 140.472656 L 277.675781 47.890625 C 277.675781 44.367188 274.820312 41.511719 271.296875 41.511719 C 267.777344 41.511719 264.921875 44.367188 264.921875 47.890625 L 264.921875 140.472656 C 264.921875 143.996094 267.777344 146.851562 271.296875 146.851562 Z M 271.296875 146.851562 " fill-opacity="1" fill-rule="nonzero"></path></g><path fill="#d0b444" d="M 153.964844 163.839844 C 155.191406 165.691406 157.21875 166.691406 159.28125 166.691406 C 160.492188 166.691406 161.71875 166.347656 162.804688 165.625 C 165.738281 163.675781 166.535156 159.71875 164.585938 156.785156 L 111.871094 77.425781 C 109.925781 74.492188 105.96875 73.695312 103.03125 75.640625 C 100.097656 77.589844 99.296875 81.546875 101.25 84.480469 Z M 153.964844 163.839844 " fill-opacity="1" fill-rule="nonzero"></path><path fill="#d0b444" d="M 379.792969 165.625 C 380.878906 166.347656 382.101562 166.691406 383.3125 166.691406 C 385.378906 166.691406 387.402344 165.6875 388.632812 163.839844 L 441.347656 84.484375 C 443.296875 81.550781 442.5 77.589844 439.566406 75.644531 C 436.628906 73.695312 432.671875 74.492188 430.726562 77.425781 L 378.007812 156.785156 C 376.058594 159.71875 376.855469 163.675781 379.792969 165.625 Z M 379.792969 165.625 " fill-opacity="1" fill-rule="nonzero"></path><path fill="#d0b444" d="M 4.855469 205.691406 L 83.929688 245.371094 C 84.847656 245.832031 85.824219 246.046875 86.785156 246.046875 C 89.121094 246.046875 91.371094 244.761719 92.492188 242.53125 C 94.070312 239.382812 92.796875 235.550781 89.652344 233.96875 L 10.578125 194.292969 C 7.433594 192.714844 3.597656 193.980469 2.019531 197.132812 C 0.4375 200.28125 1.710938 204.113281 4.855469 205.691406 Z M 4.855469 205.691406 " fill-opacity="1" fill-rule="nonzero"></path></svg>